<svg id="Camada_6" data-name="Camada 6" xmlns="http://www.w3.org/2000/svg" xmlns:xlink="http://www.w3.org/1999/xlink" viewBox="0 0 1311.5 1072.12"><defs><style>.cls-1,.cls-2{fill:none;}.cls-2{stroke:#211915;stroke-width:0.3px;}.cls-3,.cls-4{stroke:#5b5b5b;}.cls-3,.cls-4,.cls-5,.cls-6{stroke-miterlimit:10;}.cls-3{fill:url(#Linhas_de_1_paica_de_grade);}.cls-4{fill:url(#Linhas_de_1_paica_de_grade-3);}.cls-5{fill:#d3d3d3;stroke:#b5b5b5;}.cls-6{fill:#0dba88;stroke:#076059;}.cls-7{fill:#fff;}.cls-8{fill:#0cbcb3;}.cls-9{fill:#8e8e8e;}</style><pattern id="Linhas_de_1_paica_de_grade" data-name="Linhas de 1 paica de grade" width="72" height="72" patternTransform="translate(19.71 19.18) scale(0.3)" patternUnits="userSpaceOnUse" viewBox="0 0 72 72"><rect class="cls-1" width="72" height="72"/><line class="cls-2" x1="6" y1="71.75" x2="6" y2="144.25"/><line class="cls-2" x1="30" y1="71.75" x2="30" y2="144.25"/><line class="cls-2" x1="54" y1="71.75" x2="54" y2="144.25"/><line class="cls-2" x1="18" y1="71.75" x2="18" y2="144.25"/><line class="cls-2" x1="42" y1="71.75" x2="42" y2="144.25"/><line class="cls-2" x1="66" y1="71.75" x2="66" y2="144.25"/><line class="cls-2" x1="71.75" y1="66" x2="144.25" y2="66"/><line class="cls-2" x1="71.75" y1="42" x2="144.25" y2="42"/><line class="cls-2" x1="71.75" y1="18" x2="144.25" y2="18"/><line class="cls-2" x1="71.75" y1="54" x2="144.25" y2="54"/><line class="cls-2" x1="71.75" y1="30" x2="144.25" y2="30"/><line class="cls-2" x1="71.75" y1="6" x2="144.25" y2="6"/><line class="cls-2" x1="6" y1="-0.25" x2="6" y2="72.25"/><line class="cls-2" x1="30" y1="-0.25" x2="30" y2="72.25"/><line class="cls-2" x1="54" y1="-0.25" x2="54" y2="72.25"/><line class="cls-2" x1="-0.25" y1="66" x2="72.25" y2="66"/><line class="cls-2" x1="-0.25" y1="42" x2="72.25" y2="42"/><line class="cls-2" x1="-0.25" y1="18" x2="72.25" y2="18"/><line class="cls-2" x1="-0.25" y1="54" x2="72.25" y2="54"/><line class="cls-2" x1="-0.25" y1="30" x2="72.25" y2="30"/><line class="cls-2" x1="-0.25" y1="6" x2="72.25" y2="6"/><line class="cls-2" x1="18" y1="-0.25" x2="18" y2="72.25"/><line class="cls-2" x1="42" y1="-0.25" x2="42" y2="72.25"/><line class="cls-2" x1="66" y1="-0.25" x2="66" y2="72.25"/><line class="cls-2" x1="-72.25" y1="66" x2="0.25" y2="66"/><line class="cls-2" x1="-72.25" y1="42" x2="0.25" y2="42"/><line class="cls-2" x1="-72.25" y1="18" x2="0.25" y2="18"/><line class="cls-2" x1="-72.25" y1="54" x2="0.25" y2="54"/><line class="cls-2" x1="-72.25" y1="30" x2="0.25" y2="30"/><line class="cls-2" x1="-72.25" y1="6" x2="0.25" y2="6"/><line class="cls-2" x1="6" y1="-72.25" x2="6" y2="0.25"/><line class="cls-2" x1="30" y1="-72.25" x2="30" y2="0.25"/><line class="cls-2" x1="54" y1="-72.25" x2="54" y2="0.25"/><line class="cls-2" x1="18" y1="-72.25" x2="18" y2="0.25"/><line class="cls-2" x1="42" y1="-72.25" x2="42" y2="0.25"/><line class="cls-2" x1="66" y1="-72.25" x2="66" y2="0.25"/></pattern><pattern id="Linhas_de_1_paica_de_grade-3" data-name="Linhas de 1 paica de grade" width="72" height="72" patternTransform="translate(4.53 0.17) scale(0.3)" patternUnits="userSpaceOnUse" viewBox="0 0 72 72"><rect class="cls-1" width="72" height="72"/><line class="cls-2" x1="6" y1="71.75" x2="6" y2="144.25"/><line class="cls-2" x1="30" y1="71.75" x2="30" y2="144.25"/><line class="cls-2" x1="54" y1="71.75" x2="54" y2="144.25"/><line class="cls-2" x1="18" y1="71.75" x2="18" y2="144.25"/><line class="cls-2" x1="42" y1="71.75" x2="42" y2="144.25"/><line class="cls-2" x1="66" y1="71.75" x2="66" y2="144.25"/><line class="cls-2" x1="71.75" y1="66" x2="144.25" y2="66"/><line class="cls-2" x1="71.75" y1="42" x2="144.25" y2="42"/><line class="cls-2" x1="71.75" y1="18" x2="144.25" y2="18"/><line class="cls-2" x1="71.75" y1="54" x2="144.25" y2="54"/><line class="cls-2" x1="71.75" y1="30" x2="144.25" y2="30"/><line class="cls-2" x1="71.75" y1="6" x2="144.25" y2="6"/><line class="cls-2" x1="6" y1="-0.25" x2="6" y2="72.25"/><line class="cls-2" x1="30" y1="-0.25" x2="30" y2="72.25"/><line class="cls-2" x1="54" y1="-0.25" x2="54" y2="72.25"/><line class="cls-2" x1="-0.25" y1="66" x2="72.25" y2="66"/><line class="cls-2" x1="-0.25" y1="42" x2="72.25" y2="42"/><line class="cls-2" x1="-0.25" y1="18" x2="72.25" y2="18"/><line class="cls-2" x1="-0.25" y1="54" x2="72.25" y2="54"/><line class="cls-2" x1="-0.25" y1="30" x2="72.25" y2="30"/><line class="cls-2" x1="-0.25" y1="6" x2="72.25" y2="6"/><line class="cls-2" x1="18" y1="-0.25" x2="18" y2="72.25"/><line class="cls-2" x1="42" y1="-0.25" x2="42" y2="72.25"/><line class="cls-2" x1="66" y1="-0.25" x2="66" y2="72.25"/><line class="cls-2" x1="-72.25" y1="66" x2="0.25" y2="66"/><line class="cls-2" x1="-72.25" y1="42" x2="0.25" y2="42"/><line class="cls-2" x1="-72.25" y1="18" x2="0.25" y2="18"/><line class="cls-2" x1="-72.25" y1="54" x2="0.25" y2="54"/><line class="cls-2" x1="-72.25" y1="30" x2="0.25" y2="30"/><line class="cls-2" x1="-72.25" y1="6" x2="0.25" y2="6"/><line class="cls-2" x1="6" y1="-72.25" x2="6" y2="0.25"/><line class="cls-2" x1="30" y1="-72.25" x2="30" y2="0.25"/><line class="cls-2" x1="54" y1="-72.25" x2="54" y2="0.25"/><line class="cls-2" x1="18" y1="-72.25" x2="18" y2="0.25"/><line class="cls-2" x1="42" y1="-72.25" x2="42" y2="0.25"/><line class="cls-2" x1="66" y1="-72.25" x2="66" y2="0.25"/></pattern></defs><title>mapa</title><g id="Camada_5" data-name="Camada 5"><path class="cls-3" d="M857.33,942.33,856,960,664.17,937.33s-15.17-1.67-16.5-22.5l-5.33-656.17,61,2.83-.33,19-41.67-1.17,2.5,25.83,5.17,9.17,127,9.5,261.17,11s33,1.17,49.5,34.67c6,13.83,10.17,31.17,10.33,42.5h12.33l1.5,397.5h-13.17l.67,53.33s1.33,37-29.5,58c0,0-23.5,11.67-18.33,22.5l1.33,14.83-4.33.83.17,2.17-11.17,1.5-.83-2.33-5.33.67-1.67-24.33h-1.5l2,24.33-32,4-4.67-38a155.53,155.53,0,0,1,5.5-43.83h-12.83V770.5h59.33v-361h11.33s.83-46.83-22.83-52.67-32.83-5.83-32.83-5.83l-.33,12.17L697.17,350.83l.5-12.83L672,337s-10.33.83-10.67,5-.33,7.67-.33,7.67h11l1.17,89.5-11.5.67v2.5h11.17l1,92.17H662V537h12l.83,92.83h-12.5v2.67h12.5l.83,92.5H663.5v3h12.33l.67,69.17-12.67.17.5,21.83L658.67,830l.33,8.17,5.67,14.17,1,61.17s-1,8.83,10,9.67l81.5,9.17,1.17-12.67,44.83,4.83v12.67Z" transform="translate(-12.63 -17.72)"/><path class="cls-4" d="M1084.33,961.33l-27.67,3.5-.83-3.33L1017,966.33,991.67,981l-298-37,.67,30.33c12,41.67.33,85,.33,85v30l397.67-2.33c-52-23.67-18-94,0-99C1108.33,979,1084.33,961.33,1084.33,961.33Zm-360,54.83c-1.5,10.33-4,29.67-8.5,29.67s-3-32.67-3-32.67,2-30.5,7-31.17S725.83,1005.83,724.33,1016.17Zm294.5,43.17-2,2.83-261.33-1-10-6.17-4.83-14,3-45.17L748,984l10.33-7.67,51,6,209.17,25,2.33,5.83Zm26.17,2.33c-3.13,0-5.67-12-5.67-26.83s2.54-26.83,5.67-26.83,5.67,12,5.67,26.83S1048.13,1061.67,1045,1061.67Z" transform="translate(-12.63 -17.72)"/></g><g id="Camada_4" data-name="Camada 4"><path class="cls-5" d="M860.75,706.63c4.88-1.5,11.38-6,11.38-6,13.13-15.37,31-8.87,36.63-4.37C925,698.63,914.13,711,914.13,711c-7.87,10.5.63,15.74.63,15.74V762H925V737.25h6.5V717h-4.75c-12.75-19.75,15.75-30.5,17.5-27.25V757l12.25,3.25,6.75-84.75,10.25-.25h2.75l.25-55.75L944,619l-.75,17-7.25.25c-1.75,7.75-7.75,8.75-7.75,8.75-12.75,11-5.25,22.5-6.75,27.25s-2.25,13-6.75,12c-7.25-.75-20-11.25-35.75-5.75-13.25,8-10.25-11.5-10.25-11.5l-8.75-.75Z" transform="translate(-12.63 -17.72)"/><polygon class="cls-5" points="1015.03 751.62 1015.03 756.45 1030.87 756.45 1030.87 750.45 1015.03 751.62"/><path class="cls-5" d="M982.5,931.67s-2.67,0-14.5-4.5-86.17-34.67-86.17-34.67-12-5.83-24.33-5.17c0,0,10.83-44.5,57.17-51.17H929.5v-5.83h38v-9.67l38,2.33v-2.83l-42.67-2.83L940,774.17,929,773v41.33s-3.83-1-3.5,8.17c0,0-2.17,9.67-14.83,10.67s-28,9.83-36,15.5S852,853.83,852,853.83V834.17l-1.83-.17v-2.17H848v62.33l5.83,5.17L856,892.5a42.65,42.65,0,0,1,22.17,4c12.83,4.83,94,37.17,94,37.17s6.83,2.67,19.67,2.67H1013V931.5ZM850.83,886.33l-.33-27.67s9.67.67,9.5,9.17S850.83,886.33,850.83,886.33Z" transform="translate(-12.63 -17.72)"/><path class="cls-5" d="M904.17,857.83a8.83,8.83,0,1,0,8.83,8.83A8.83,8.83,0,0,0,904.17,857.83Zm-.17,14.5a5.67,5.67,0,1,1,5.67-5.67A5.67,5.67,0,0,1,904,872.33Z" transform="translate(-12.63 -17.72)"/><polyline class="cls-5" points="661.87 574.28 687.53 574.28 687.53 582.95 661.53 582.95"/><polygon class="cls-5" points="688.87 607.12 662.2 607.28 662.2 612.12 688.37 611.62 688.87 607.12"/><path class="cls-5" d="M698.17,816.33l.5-41.33s-.33-8.5,6-12.33,4.5-.83,4.5-.83v54.83S698.17,815.83,698.17,816.33Z" transform="translate(-12.63 -17.72)"/><path class="cls-5" d="M708.5,846.17s-.83,16.67,22.83,19.33L717,878.33l4.5-.5,72.17-60.67s11.83-8.5,12-18.33-.17-29.33-.17-29.33l-2.83.17.33,30s.67,5.83-10.33,14.67-56,47.17-56,47.17-21,.67-23.33-15.33Z" transform="translate(-12.63 -17.72)"/><polygon class="cls-5" points="744.2 535.62 753.87 535.12 753.87 521.95 756.87 521.45 756.87 537.95 744.03 538.62 744.2 535.62"/><polygon class="cls-5" points="737.7 558.62 737.7 554.12 661.53 554.28 661.7 548.62 737.7 548.45 738.03 523.28 745.53 523.45 745.2 548.78 774.37 549.12 774.53 560.95 737.7 558.62"/><polygon class="cls-5" points="678.37 319.95 677.03 367.78 670.2 367.78 671.7 319.78 678.37 319.95"/><polygon class="cls-5" points="790.2 337.28 788.37 372.28 795.37 372.12 796.53 337.12 790.2 337.28"/><path class="cls-5" d="M678.33,311.83c-12,.67-10-5.67-10-5.67l.33-26.67-7.33-.17s-.83,17.5,0,28.33S672,318.83,672,318.83l124,5-.17-7.17Z" transform="translate(-12.63 -17.72)"/><path class="cls-5" d="M684.67,944.17,685,941l181.5,21.83,2.33-5.17L945,967l1.17,6.33s4.83.83,13-.33,58.83-7.5,58.83-7.5l-9.17,13.33s-2,6.5-13.33,4.17Z" transform="translate(-12.63 -17.72)"/><polygon class="cls-5" points="1117.24 408.28 1117.24 413.28 1159.99 411.78 1159.74 406.16 1117.24 408.28"/><polygon class="cls-5" points="1117.37 471.91 1117.37 466.78 1162.99 464.16 1163.49 469.41 1117.37 471.91"/><polygon class="cls-5" points="1117.24 532.03 1147.87 530.28 1148.37 539.28 1117.24 540.78 1117.24 532.03"/><polygon class="cls-5" points="1140.87 542.91 1148.99 542.66 1151.37 581.41 1142.87 581.91 1140.87 542.91"/><polygon class="cls-5" points="1117.49 587.41 1151.49 585.91 1152.12 592.78 1116.99 595.03 1117.49 587.41"/><path class="cls-5" d="M1022.17,1016.83c0-12.5-10.67-12.83-10.67-12.83L763.33,974.83c-21-2.67-22.17,16.67-22.17,16.67L738,1018.33l-.5,21c-.67,25.33,18.5,24.17,18.5,24.17l253.67,1c13,1.83,11.33-9.17,11.33-9.17S1022.17,1029.33,1022.17,1016.83Zm-19.39,41.74-241-4.13s-18.22.69-17.3-19.76l.71-17,3.31-21.63s1.32-15.6,21.24-13.17l235.43,26.81s10.13.41,10,10.5-1.54,31.08-1.54,31.08S1015.11,1060.22,1002.78,1058.57Z" transform="translate(-12.63 -17.72)"/></g><g id="Camada_2" data-name="Camada 2"><polygon class="cls-6" points="1011.2 922.83 1025.22 920.92 1027.98 944.5 1014.17 946.41 1011.2 922.83"/><polygon class="cls-6" points="943.21 950.24 952.56 950.24 953.62 939.83 943.21 939.83 943.21 950.24"/><rect class="cls-6" x="754.12" y="836.36" width="25.49" height="24.86"/><polygon class="cls-6" points="684.86 865.25 684.86 906.05 734.79 906.05 734.79 865.25 703.35 865.25 684.86 865.25"/><polygon class="cls-6" points="703.13 858.67 716.94 858.67 716.94 861.96 716.94 865.25 703.35 865.25 703.13 858.67"/><polygon class="cls-6" points="719.71 861.96 719.71 858.67 724.59 858.67 724.59 865.25 716.94 865.25 716.94 861.96 719.71 861.96"/><rect class="cls-6" x="734.79" y="893.94" width="3.82" height="10.84"/><polygon class="cls-6" points="730.97 794.51 777.07 794.51 777.07 790.47 772.61 790.47 772.61 755.63 735.64 755.63 735.64 790.26 730.97 790.26 730.97 794.51"/><polygon class="cls-6" points="1147.38 520.01 1152.69 604.78 1242.99 599.05 1242.99 595.65 1260.62 594.37 1260.62 587.15 1264.66 586.51 1264.66 584.81 1276.98 583.75 1276.98 580.99 1272.31 580.77 1272.73 576.74 1281.87 575.89 1279.32 532.97 1269.97 533.61 1269.97 529.36 1274.01 528.94 1274.22 525.54 1261.26 526.6 1261.26 524.9 1256.8 524.9 1256.37 516.83 1238.53 518.1 1238.53 514.28 1147.38 520.01"/><polygon class="cls-6" points="1159.14 390.91 1305.87 382.98 1310.97 475.89 1164.23 484.96 1159.14 390.91"/><polygon class="cls-6" points="1032.44 376.6 1043.49 376.6 1044.55 475.18 1033.5 476.25 1032.44 376.6"/><polygon class="cls-6" points="809.01 368.81 1002.49 370.23 1002.49 391.76 991.15 391.76 990.87 421.79 819.49 420.37 820.06 390.91 809.01 390.63 809.01 368.81"/><polygon class="cls-6" points="677 345.87 789.46 350.4 788.04 387.79 675.3 383.54 677 345.87"/><polygon class="cls-6" points="690.03 266.27 692.01 197.72 693.43 197.72 693.43 188.93 687.2 188.93 688.62 157.77 691.45 157.77 692.01 152.11 694.56 152.11 694.56 149.56 790.03 154.37 787.48 203.38 759.72 203.38 756.32 269.67 690.03 266.27"/><polygon class="cls-6" points="688.19 560.31 717.51 559.6 717.93 626.88 688.19 626.88 688.19 560.31"/><polygon class="cls-6" points="684.23 633.68 718.5 633.68 718.5 680.13 699.8 680.13 699.95 678.15 684.23 678.29 684.23 633.68"/><polygon class="cls-6" points="189.48 613 192.6 588.92 221.49 593.17 217.81 617.25 189.48 613"/><polygon class="cls-6" points="46.15 591.75 61.73 590.34 61.73 596 46.15 597.13 46.15 591.75"/><polygon class="cls-6" points="93.45 761.43 95.15 737.64 106.2 738.77 107.9 725.17 124.05 726.59 122.91 741.61 117.81 741.32 116.68 761.43 120.93 761.43 120.36 776.45 103.65 776.45 103.94 762 93.45 761.43"/><polygon class="cls-6" points="0.54 661.44 4.79 607.33 6.2 607.33 6.2 609.88 107.05 600.53 107.05 598.55 108.75 598.55 110.45 620.08 108.75 625.18 105.35 669.94 101.1 678.43 110.45 672.77 114.98 666.82 116.97 660.87 116.97 649.54 114.13 628.29 120.65 624.89 124.05 632.83 127.16 641.33 128.58 653.22 126.88 666.25 121.78 677.3 114.7 684.1 106.48 689.48 96.85 692.32 89.2 692.32 88.35 696.85 133.96 693.73 136.51 719.51 82.12 714.98 77.02 776.45 80.42 776.45 79.86 778.15 51.53 776.45 51.53 773.9 54.65 773.9 64.84 664.27 0.54 661.44"/><polygon class="cls-6" points="238.77 609.32 284.1 617.25 286.36 600.53 340.19 608.89 335.09 646.99 324.32 645.57 322.62 663.42 404.21 674.75 401.09 702.23 426.87 705.63 422.62 736.79 396.56 733.67 392.88 758.88 418.94 762 414.4 793.73 306.48 778.71 304.78 790.61 299.68 789.2 294.3 820.64 266.25 816.96 271.35 784.38 274.18 784.38 279.71 748.97 259.45 745.85 262.71 722.77 259.17 721.78 259.74 718.66 250.39 716.96 252.65 700.25 230.84 697.13 234.24 678.15 227.44 677.02 238.77 609.32"/><polygon class="cls-6" points="515.32 863.55 525.41 865.89 520.37 889.26 511.18 887.67 515.32 863.55"/><polygon class="cls-6" points="543.37 881.08 551.97 884.8 570.88 838.49 562.17 834.55 543.37 881.08"/><polygon class="cls-6" points="601.23 829.28 607.81 829.28 607.81 847.27 600.94 847.27 601.23 829.28"/><polygon class="cls-6" points="619.07 829.28 629.98 829.77 629.98 845 619.07 845.42 619.07 829.28"/><polygon class="cls-6" points="615.03 759.03 630.33 759.03 629.76 802.51 614.4 802.51 615.03 759.03"/><polygon class="cls-6" points="614.82 750.81 614.82 740.33 630.33 739.9 630.33 750.39 614.82 750.81"/><polygon class="cls-6" points="587.77 754.78 588.26 737.5 613.05 737.14 612.77 754.78 587.77 754.78"/><polygon class="cls-6" points="579.06 735.94 578.63 723.76 617.3 723.33 617.65 735.09 579.06 735.94"/><polygon class="cls-6" points="560.01 715.9 568.15 715.9 568.15 723.33 559.73 723.33 560.01 715.9"/><polygon class="cls-6" points="587.41 718.87 587.41 702.09 618.01 701.73 618.01 718.45 587.41 718.87"/><polygon class="cls-6" points="803.06 556.91 853.62 555.92 853.62 573.34 803.06 573.34 803.06 556.91"/><polygon class="cls-6" points="808.44 738.91 848.67 738.91 847.96 573.34 807.73 573.34 808.44 738.91"/><polygon class="cls-6" points="856.17 728.29 856.17 698.12 860.56 698.12 860.56 682.68 874.16 682.68 874.16 685.94 896.4 686.37 896.4 713.99 901.5 713.99 901.5 709.03 907.02 709.17 907.02 738.91 869.35 738.91 869.35 728.15 856.17 728.29"/><rect class="cls-6" x="868.78" y="755.63" width="29.04" height="19.97"/><path class="cls-6" d="M847.84,773.34l.14,58.5h.71v61h5.81v6.8h-2.12s-3,4.11,2.83,13.46-3,16-3,16H808.61l-.71-6.52-1-.42v-23.8l2-.14L809,773.34Z" transform="translate(-12.63 -17.72)"/><polygon class="cls-6" points="729.41 557.19 774.16 557.19 774.73 738.91 734.22 738.91 734.08 598.27 729.41 597.98 729.41 557.19"/><polygon class="cls-6" points="730.97 738.91 730.97 755.63 963.11 755.63 963.11 753.22 1031.1 752.09 1031.1 732.26 984.92 732.26 984.64 742.17 960.56 741.89 961.13 738.91 730.97 738.91"/><path class="cls-6" d="M975.18,621.37H945.43v28.33H929.29v10.2s-3.4,7.22,0,14h45.89Z" transform="translate(-12.63 -17.72)"/><polygon class="cls-6" points="923.73 665.97 924.02 656.13 960.84 656.13 961.13 738.91 933.08 738.91 932.8 666.25 923.73 665.97"/><polygon class="cls-6" points="982.37 637.93 1032.23 637.93 1033.64 732.26 982.37 732.26 982.37 637.93"/><polygon class="cls-6" points="919.77 755.63 919.77 803.64 916.94 803.64 916.94 810.72 950.93 810.72 950.93 755.63 919.77 755.63"/><path class="cls-6" d="M687.09,707.76h3.26v-2.55H693v2.55h1.27a6.81,6.81,0,0,1,6.66-2.55A96.53,96.53,0,0,0,711,706a32.8,32.8,0,0,1,9.91-.88c5.52.35,7.37,3,10.2,2.62v52.41h-1.84a4.31,4.31,0,0,1-3.68,2.9c-3,.35-4-2.05-5.52-2.05s-2.27,2.05-5.24,2.05a2.87,2.87,0,0,1-3-2.9l-8.78,3.51h-12s-4,.32-4-4.36Z" transform="translate(-12.63 -17.72)"/><path class="cls-6" d="M706.91,769.8s-4.39-1.42-4.39,6.23v39.52H684.68v3.26H667.82v28.75h1.7a4.4,4.4,0,0,0,3.68,1.84c2.55,0,4.25-2.41,6.37-2.41s5.38,3.4,8.92,3.4,7.51-4.53,7.51-4.53v2l17.85-.14c13.46,1,4.67,6.37,12.75,8.78,4.67-.42,4-5.1,6.66-8.36s9.49-2.27,9.49-6.66c0-5.81-10.34-4.67-10.48-14.59l-1.42-2.69-1.13-12s3.68-3,3.68-6.3-2.27-6.52-2.27-8.21,2-4,2-8.5c-.3-2.73-2-5.38-2-7.93a55.23,55.23,0,0,1,.85-7.22h2l-.14-4.35H715.55l.14-3.72h-4.39l-.28-6.52h-4.39Z" transform="translate(-12.63 -17.72)"/><polygon class="cls-6" points="671.48 427.59 696.41 427.59 696.41 426.04 697.82 426.04 697.82 427.59 702.5 427.59 702.5 426.81 703.77 426.81 703.77 427.59 704.9 427.59 704.9 429.15 703.77 429.15 703.77 439.35 716.09 439.35 716.09 440.62 714.53 440.62 714.53 457.2 715.38 457.2 715.53 458.47 714.39 458.47 714.39 474.9 715.38 474.9 715.24 475.89 714.11 475.89 714.11 495.3 719.78 495.3 719.78 481.42 735.64 481.42 735.64 498.7 739.32 498.7 739.32 489.06 748.1 489.06 748.1 498.7 794.42 498.7 794.42 428.58 828.27 428.58 828.27 429.58 820.62 429.58 820.34 523.06 827.56 530.56 826.85 531.27 819.49 523.91 749.87 523.77 749.87 530.71 748.25 530.56 748.25 523.48 678.56 523.06 671.48 530 670.2 529.86 677.85 521.36 677.85 429.44 671.48 429.44 671.48 427.59"/><polygon class="cls-6" points="461.14 84.69 480.83 87.38 490.75 7.07 470.63 4.52 461.14 84.69"/><polygon class="cls-6" points="431.12 80.58 450.95 83.27 461.14 2.96 441.03 0.56 431.12 80.58"/><polygon class="cls-6" points="354.92 629.43 354.92 628.15 358.53 628.79 370.21 620.29 370.21 616.68 371.49 616.68 371.49 620.5 379.99 631.98 383.6 631.98 383.6 633.46 379.56 633.46 368.3 641.75 367.88 644.3 366.39 644.3 366.39 641.75 357.89 630.49 354.92 629.43"/></g><g id="Camada_3" data-name="Camada 3"><path class="cls-7" d="M1200.91,577.68a7.09,7.09,0,0,1,1.17-.09,1.94,1.94,0,0,1,1.32.39,1.27,1.27,0,0,1,.41,1,1.39,1.39,0,0,1-.36,1,2,2,0,0,1-1.44.52,2.09,2.09,0,0,1-.49,0v1.89h-.61Zm.61,2.28a2,2,0,0,0,.5,0c.74,0,1.18-.36,1.18-1s-.44-.92-1.11-.92a2.53,2.53,0,0,0-.57,0Z" transform="translate(-12.63 -17.72)"/><path class="cls-7" d="M1205.25,577.62v4.72h-.61v-4.72Z" transform="translate(-12.63 -17.72)"/><path class="cls-7" d="M1206.23,581.6a2.16,2.16,0,0,0,1.09.31c.62,0,1-.33,1-.81s-.25-.69-.89-.94-1.25-.67-1.25-1.34a1.36,1.36,0,0,1,1.53-1.28,2.14,2.14,0,0,1,1,.23l-.17.5a1.88,1.88,0,0,0-.9-.22c-.64,0-.89.39-.89.71s.29.66.94.91,1.2.69,1.2,1.39-.54,1.36-1.65,1.36a2.44,2.44,0,0,1-1.21-.3Z" transform="translate(-12.63 -17.72)"/><path class="cls-7" d="M1213.06,582.19a3,3,0,0,1-1.25.22,2.21,2.21,0,0,1-2.33-2.39,2.35,2.35,0,0,1,2.47-2.48,2.53,2.53,0,0,1,1.12.21l-.15.5a2.22,2.22,0,0,0-1-.2,1.75,1.75,0,0,0-1.84,1.95,1.72,1.72,0,0,0,1.81,1.9,2.44,2.44,0,0,0,1-.2Z" transform="translate(-12.63 -17.72)"/><path class="cls-7" d="M1214.43,577.62v4.72h-.61v-4.72Z" transform="translate(-12.63 -17.72)"/><path class="cls-7" d="M1215.49,582.34v-4.72h.67l1.51,2.39a13.36,13.36,0,0,1,.85,1.53h0c-.06-.63-.07-1.2-.07-1.94v-2h.57v4.72h-.62l-1.5-2.4a15,15,0,0,1-.88-1.58h0c0,.6,0,1.16,0,1.95v2Z" transform="translate(-12.63 -17.72)"/><path class="cls-7" d="M1220.86,580.86l-.49,1.48h-.63l1.6-4.72h.74l1.61,4.72H1223l-.5-1.48Zm1.55-.48-.46-1.36c-.1-.31-.18-.59-.25-.86h0c-.07.28-.15.57-.24.85l-.46,1.37Z" transform="translate(-12.63 -17.72)"/><path class="cls-7" d="M1225.75,456.85a4.41,4.41,0,0,1-1.45.26,2.22,2.22,0,0,1-2.42-2.38,2.37,2.37,0,0,1,2.56-2.44,2.92,2.92,0,0,1,1.18.22l-.15.5a2.44,2.44,0,0,0-1-.2,1.77,1.77,0,0,0-1.9,1.9,1.73,1.73,0,0,0,1.82,1.91,2,2,0,0,0,.81-.13v-1.41h-1v-.49h1.55Z" transform="translate(-12.63 -17.72)"/><path class="cls-7" d="M1227.29,452.34v4.72h-.61v-4.72Z" transform="translate(-12.63 -17.72)"/><path class="cls-7" d="M1228.35,457.06v-4.72h.67l1.51,2.39a13.36,13.36,0,0,1,.85,1.53h0c-.06-.63-.07-1.2-.07-1.94v-2h.57v4.72h-.62l-1.5-2.4a15,15,0,0,1-.88-1.58h0c0,.6,0,1.16,0,1.95v2Z" transform="translate(-12.63 -17.72)"/><path class="cls-7" d="M1233.72,455.58l-.49,1.48h-.63l1.6-4.72h.74l1.61,4.72h-.65l-.5-1.48Zm1.55-.48-.46-1.36c-.1-.31-.18-.59-.25-.86h0c-.07.28-.15.57-.24.85l-.46,1.37Zm.34-3.83-.89.82h-.5l.65-.82Z" transform="translate(-12.63 -17.72)"/><path class="cls-7" d="M1237.16,456.32a2.16,2.16,0,0,0,1.09.31c.62,0,1-.33,1-.81s-.25-.69-.89-.94-1.25-.67-1.25-1.34a1.36,1.36,0,0,1,1.53-1.28,2.14,2.14,0,0,1,1,.23l-.17.5a1.88,1.88,0,0,0-.9-.22c-.64,0-.89.39-.89.71s.29.66.94.91,1.2.69,1.2,1.39-.54,1.36-1.65,1.36a2.44,2.44,0,0,1-1.21-.3Z" transform="translate(-12.63 -17.72)"/><path class="cls-7" d="M1241.3,452.34v4.72h-.61v-4.72Z" transform="translate(-12.63 -17.72)"/><path class="cls-7" d="M1246.4,454.66a2.21,2.21,0,0,1-2.19,2.49,2.16,2.16,0,0,1-2.12-2.4,2.24,2.24,0,0,1,2.19-2.48A2.15,2.15,0,0,1,1246.4,454.66Zm-3.66.08c0,1,.55,1.91,1.51,1.91s1.51-.89,1.51-2-.49-1.92-1.51-1.92S1242.74,453.7,1242.74,454.73Z" transform="translate(-12.63 -17.72)"/><path class="cls-7" d="M867.23,410.07h.61v4.21h2v.51h-2.63Z" transform="translate(-12.63 -17.72)"/><path class="cls-7" d="M871.29,413.31l-.49,1.48h-.63l1.6-4.72h.74l1.61,4.72h-.65l-.5-1.48Zm1.55-.48-.46-1.36c-.1-.31-.18-.59-.25-.86h0c-.07.28-.15.57-.24.85l-.46,1.37Z" transform="translate(-12.63 -17.72)"/><path class="cls-7" d="M874.81,410.14a5.94,5.94,0,0,1,1.11-.1,2,2,0,0,1,1.3.34,1,1,0,0,1,.39.83,1.12,1.12,0,0,1-.8,1h0a1.22,1.22,0,0,1,1,1.18,1.27,1.27,0,0,1-.4.95,2.37,2.37,0,0,1-1.63.44,7.07,7.07,0,0,1-.95-.06Zm.61,1.93H876c.64,0,1-.34,1-.79s-.42-.77-1-.77a2.62,2.62,0,0,0-.54,0Zm0,2.26a3.25,3.25,0,0,0,.51,0c.63,0,1.21-.23,1.21-.92s-.55-.91-1.22-.91h-.5Z" transform="translate(-12.63 -17.72)"/><path class="cls-7" d="M882.64,412.39a2.21,2.21,0,0,1-2.19,2.49,2.16,2.16,0,0,1-2.12-2.4,2.24,2.24,0,0,1,2.19-2.48A2.15,2.15,0,0,1,882.64,412.39Zm-3.66.08c0,1,.55,1.91,1.51,1.91s1.51-.89,1.51-2-.49-1.92-1.51-1.92S879,411.43,879,412.46Z" transform="translate(-12.63 -17.72)"/><path class="cls-7" d="M883.43,410.14a6.35,6.35,0,0,1,1.17-.1,1.93,1.93,0,0,1,1.37.38,1.18,1.18,0,0,1,.37.9,1.24,1.24,0,0,1-.89,1.21v0a1.18,1.18,0,0,1,.69,1,7.52,7.52,0,0,0,.36,1.3h-.63a6.09,6.09,0,0,1-.31-1.13c-.14-.65-.39-.9-.95-.92H884v2h-.61Zm.61,2.15h.62c.65,0,1.06-.36,1.06-.9s-.44-.88-1.09-.88a2.52,2.52,0,0,0-.6.06Z" transform="translate(-12.63 -17.72)"/><path class="cls-7" d="M888,413.31l-.49,1.48h-.63l1.6-4.72h.74l1.61,4.72h-.65l-.5-1.48Zm1.55-.48-.46-1.36c-.1-.31-.18-.59-.25-.86h0c-.07.28-.15.57-.24.85l-.46,1.37Z" transform="translate(-12.63 -17.72)"/><path class="cls-7" d="M891.87,410.59h-1.44v-.52h3.49v.52h-1.44v4.2h-.62Z" transform="translate(-12.63 -17.72)"/><path class="cls-7" d="M898.3,412.39a2.21,2.21,0,0,1-2.19,2.49,2.16,2.16,0,0,1-2.12-2.4,2.24,2.24,0,0,1,2.19-2.48A2.15,2.15,0,0,1,898.3,412.39Zm-3.66.08c0,1,.55,1.91,1.51,1.91s1.51-.89,1.51-2-.49-1.92-1.51-1.92S894.64,411.43,894.64,412.46Zm2.53-3.47-.89.81h-.5l.65-.81Z" transform="translate(-12.63 -17.72)"/><path class="cls-7" d="M899.09,410.14a6.35,6.35,0,0,1,1.17-.1,1.93,1.93,0,0,1,1.37.38,1.18,1.18,0,0,1,.37.9,1.24,1.24,0,0,1-.89,1.21v0a1.18,1.18,0,0,1,.69,1,7.52,7.52,0,0,0,.36,1.3h-.63a6.09,6.09,0,0,1-.31-1.13c-.14-.65-.39-.9-.95-.92h-.57v2h-.61Zm.61,2.15h.62c.65,0,1.06-.36,1.06-.9s-.44-.88-1.09-.88a2.52,2.52,0,0,0-.6.06Z" transform="translate(-12.63 -17.72)"/><path class="cls-7" d="M903.47,410.07v4.72h-.61v-4.72Z" transform="translate(-12.63 -17.72)"/><path class="cls-7" d="M908.56,412.39a2.21,2.21,0,0,1-2.19,2.49,2.16,2.16,0,0,1-2.12-2.4,2.24,2.24,0,0,1,2.19-2.48A2.15,2.15,0,0,1,908.56,412.39Zm-3.66.08c0,1,.55,1.91,1.51,1.91s1.51-.89,1.51-2-.49-1.92-1.51-1.92S904.9,411.43,904.9,412.46Z" transform="translate(-12.63 -17.72)"/><path class="cls-7" d="M909.27,414.05a2.16,2.16,0,0,0,1.09.31c.62,0,1-.33,1-.81s-.25-.69-.89-.94-1.25-.67-1.25-1.34a1.36,1.36,0,0,1,1.53-1.28,2.14,2.14,0,0,1,1,.23l-.17.5a1.88,1.88,0,0,0-.9-.22c-.64,0-.89.39-.89.71s.29.66.94.91,1.2.69,1.2,1.39-.54,1.36-1.65,1.36a2.44,2.44,0,0,1-1.21-.3Z" transform="translate(-12.63 -17.72)"/><path class="cls-7" d="M914.29,410.14a8.78,8.78,0,0,1,1.3-.1,2.71,2.71,0,0,1,1.91.59,2.18,2.18,0,0,1,.67,1.7,2.5,2.5,0,0,1-.68,1.83,2.91,2.91,0,0,1-2.09.68,9.8,9.8,0,0,1-1.11-.06Zm.61,4.17a3.81,3.81,0,0,0,.62,0,1.81,1.81,0,0,0,2-2,1.68,1.68,0,0,0-1.91-1.82,3.49,3.49,0,0,0-.71.06Z" transform="translate(-12.63 -17.72)"/><path class="cls-7" d="M921.39,412.58h-1.83v1.7h2v.51h-2.65v-4.72h2.55v.51h-1.94v1.49h1.83Z" transform="translate(-12.63 -17.72)"/><path class="cls-7" d="M923.88,410.07h.61v4.21h2v.51h-2.63Z" transform="translate(-12.63 -17.72)"/><path class="cls-7" d="M927.79,410.07v4.72h-.61v-4.72Z" transform="translate(-12.63 -17.72)"/><path class="cls-7" d="M932.15,414.64a3,3,0,0,1-1.25.22,2.21,2.21,0,0,1-2.33-2.39A2.35,2.35,0,0,1,931,410a2.53,2.53,0,0,1,1.12.21l-.15.5a2.22,2.22,0,0,0-1-.2,1.75,1.75,0,0,0-1.84,1.95,1.72,1.72,0,0,0,1.81,1.9,2.44,2.44,0,0,0,1-.2Z" transform="translate(-12.63 -17.72)"/><path class="cls-7" d="M935.36,412.58h-1.83v1.7h2v.51h-2.65v-4.72h2.55v.51h-1.94v1.49h1.83Z" transform="translate(-12.63 -17.72)"/><path class="cls-7" d="M936.36,414.79v-4.72H937l1.51,2.39a13.36,13.36,0,0,1,.85,1.53h0c-.06-.63-.07-1.2-.07-1.94v-2h.57v4.72h-.62l-1.5-2.4a15,15,0,0,1-.88-1.58h0c0,.6,0,1.16,0,1.95v2Z" transform="translate(-12.63 -17.72)"/><path class="cls-7" d="M944.26,414.64a3,3,0,0,1-1.25.22,2.21,2.21,0,0,1-2.33-2.39,2.35,2.35,0,0,1,2.47-2.48,2.53,2.53,0,0,1,1.12.21l-.15.5a2.22,2.22,0,0,0-1-.2,1.75,1.75,0,0,0-1.84,1.95,1.72,1.72,0,0,0,1.81,1.9,2.44,2.44,0,0,0,1-.2Z" transform="translate(-12.63 -17.72)"/><path class="cls-7" d="M945.63,410.07v4.72H945v-4.72Z" transform="translate(-12.63 -17.72)"/><path class="cls-7" d="M947.46,413.31l-.49,1.48h-.63l1.6-4.72h.74l1.61,4.72h-.65l-.5-1.48Zm1.55-.48-.46-1.36c-.1-.31-.18-.59-.25-.86h0c-.07.28-.15.57-.24.85l-.46,1.37Z" transform="translate(-12.63 -17.72)"/><path class="cls-7" d="M951.34,410.59H949.9v-.52h3.49v.52H952v4.2h-.62Z" transform="translate(-12.63 -17.72)"/><path class="cls-7" d="M954.53,410.07v2.79c0,1.06.47,1.51,1.1,1.51s1.15-.46,1.15-1.51v-2.79h.62v2.75c0,1.45-.76,2-1.79,2s-1.69-.55-1.69-2v-2.78Z" transform="translate(-12.63 -17.72)"/><path class="cls-7" d="M958.45,410.14a6.35,6.35,0,0,1,1.17-.1,1.93,1.93,0,0,1,1.37.38,1.18,1.18,0,0,1,.37.9,1.24,1.24,0,0,1-.89,1.21v0a1.18,1.18,0,0,1,.69,1,7.52,7.52,0,0,0,.36,1.3h-.63a6.09,6.09,0,0,1-.31-1.13c-.14-.65-.39-.9-.95-.92h-.57v2h-.61Zm.61,2.15h.62c.65,0,1.06-.36,1.06-.9s-.44-.88-1.09-.88a2.52,2.52,0,0,0-.6.06Z" transform="translate(-12.63 -17.72)"/><path class="cls-7" d="M963,413.31l-.49,1.48h-.63l1.6-4.72h.74l1.61,4.72h-.65l-.5-1.48Zm1.55-.48-.46-1.36c-.1-.31-.18-.59-.25-.86h0c-.07.28-.15.57-.24.85l-.46,1.37Z" transform="translate(-12.63 -17.72)"/><path class="cls-7" d="M736.56,387.5v-4.72h.67l1.51,2.39a13.36,13.36,0,0,1,.85,1.53h0c-.06-.63-.07-1.2-.07-1.94v-2h.57v4.72h-.62l-1.5-2.4a15,15,0,0,1-.88-1.58h0c0,.6,0,1.16,0,1.95v2Z" transform="translate(-12.63 -17.72)"/><path class="cls-7" d="M744.46,387.34a3,3,0,0,1-1.25.22,2.21,2.21,0,0,1-2.33-2.39,2.35,2.35,0,0,1,2.47-2.48,2.53,2.53,0,0,1,1.12.21l-.15.5a2.22,2.22,0,0,0-1-.2,1.75,1.75,0,0,0-1.84,1.95,1.72,1.72,0,0,0,1.81,1.9,2.44,2.44,0,0,0,1-.2Z" transform="translate(-12.63 -17.72)"/><path class="cls-7" d="M747.67,385.28h-1.83V387h2v.51h-2.65v-4.72h2.55v.51h-1.94v1.49h1.83Z" transform="translate(-12.63 -17.72)"/><path class="cls-7" d="M751.25,387.5l-.6-1c-.25-.4-.4-.66-.55-.93h0c-.13.27-.27.53-.51.94l-.57,1h-.7l1.44-2.39-1.39-2.33h.71l.62,1.11c.17.31.31.55.43.8h0c.13-.28.25-.5.43-.8l.64-1.11h.7l-1.44,2.3L752,387.5Z" transform="translate(-12.63 -17.72)"/><path class="cls-7" d="M707.68,608.69l-.4,1.48h-.52l1.32-4.72h.61l1.33,4.72h-.54l-.42-1.48Zm1.28-.48-.38-1.36c-.09-.31-.14-.59-.2-.86h0c-.06.28-.12.57-.2.85l-.38,1.37Z" transform="translate(-12.63 -17.72)"/><path class="cls-7" d="M710.59,610.18v-4.72h.55l1.25,2.39a14.41,14.41,0,0,1,.7,1.53h0c0-.63-.06-1.2-.06-1.94v-2h.47v4.72H713l-1.24-2.4a16.19,16.19,0,0,1-.73-1.58h0c0,.6,0,1.16,0,1.95v2Z" transform="translate(-12.63 -17.72)"/><path class="cls-7" d="M716.42,608H714.9v1.7h1.69v.51H714.4v-4.72h2.1V606h-1.6v1.49h1.52Z" transform="translate(-12.63 -17.72)"/><path class="cls-7" d="M719.38,610.18l-.5-1c-.2-.4-.33-.66-.45-.93h0c-.11.27-.22.53-.42.94l-.47,1H717l1.19-2.39L717,605.46h.58l.51,1.11c.14.31.25.55.36.8h0c.11-.28.21-.5.35-.8l.53-1.11h.58l-1.19,2.3,1.21,2.42Z" transform="translate(-12.63 -17.72)"/><path class="cls-7" d="M723.72,607.77c0,1.62-.82,2.49-1.81,2.49s-1.75-1-1.75-2.4.77-2.48,1.81-2.48S723.72,606.37,723.72,607.77Zm-3,.08c0,1,.45,1.91,1.24,1.91s1.25-.89,1.25-2-.41-1.92-1.24-1.92S720.69,606.81,720.69,607.84Z" transform="translate(-12.63 -17.72)"/><path class="cls-7" d="M711.48,618.42a2.12,2.12,0,0,1-1,.22c-1.1,0-1.93-.84-1.93-2.39s.83-2.48,2-2.48a1.79,1.79,0,0,1,.93.21l-.12.5a1.57,1.57,0,0,0-.79-.2c-.91,0-1.52.71-1.52,1.95s.55,1.9,1.5,1.9a1.71,1.71,0,0,0,.82-.2Z" transform="translate(-12.63 -17.72)"/><path class="cls-7" d="M712.12,613.92a4.36,4.36,0,0,1,1-.1,1.41,1.41,0,0,1,1.13.39,1.31,1.31,0,0,1,.31.9,1.23,1.23,0,0,1-.73,1.2v0a1.17,1.17,0,0,1,.57,1,8.7,8.7,0,0,0,.3,1.3h-.52a7.09,7.09,0,0,1-.26-1.13c-.12-.65-.32-.9-.78-.92h-.47v2h-.5Zm.5,2.15h.51a.83.83,0,0,0,.88-.9.81.81,0,0,0-.9-.88,1.73,1.73,0,0,0-.5.06Z" transform="translate(-12.63 -17.72)"/><path class="cls-7" d="M715.89,617.09l-.4,1.48H715l1.32-4.72h.61l1.33,4.72h-.54l-.42-1.48Zm1.28-.48-.38-1.36c-.09-.31-.14-.59-.2-.86h0c-.06.28-.12.57-.2.85l-.38,1.37Z" transform="translate(-12.63 -17.72)"/><path class="cls-7" d="M718.81,613.92a6,6,0,0,1,1.07-.1,2,2,0,0,1,1.58.59,2.43,2.43,0,0,1,.55,1.7,2.81,2.81,0,0,1-.56,1.83,2.15,2.15,0,0,1-1.72.68,6.7,6.7,0,0,1-.91-.06Zm.5,4.17a2.6,2.6,0,0,0,.51,0c1.08,0,1.66-.73,1.66-2,0-1.11-.51-1.82-1.58-1.82a2.39,2.39,0,0,0-.59.06Z" transform="translate(-12.63 -17.72)"/><path class="cls-7" d="M708.75,677.14a3,3,0,0,1-1.25.22,2.21,2.21,0,0,1-2.33-2.39,2.35,2.35,0,0,1,2.47-2.48,2.53,2.53,0,0,1,1.12.21l-.15.5a2.22,2.22,0,0,0-1-.2,1.75,1.75,0,0,0-1.84,1.95,1.72,1.72,0,0,0,1.81,1.9,2.44,2.44,0,0,0,1-.2Z" transform="translate(-12.63 -17.72)"/><path class="cls-7" d="M709.51,672.63a6.35,6.35,0,0,1,1.17-.1,1.93,1.93,0,0,1,1.37.38,1.18,1.18,0,0,1,.37.9,1.24,1.24,0,0,1-.89,1.21v0a1.18,1.18,0,0,1,.69,1,7.52,7.52,0,0,0,.36,1.3H712a6.09,6.09,0,0,1-.31-1.13c-.14-.65-.39-.9-.95-.92h-.57v2h-.61Zm.61,2.15h.62c.65,0,1.06-.36,1.06-.9s-.44-.88-1.09-.88a2.52,2.52,0,0,0-.6.06Z" transform="translate(-12.63 -17.72)"/><path class="cls-7" d="M714.08,675.81l-.49,1.48H713l1.6-4.72h.74l1.61,4.72h-.65l-.5-1.48Zm1.55-.48-.46-1.36c-.1-.31-.18-.59-.25-.86h0c-.07.28-.15.57-.24.85l-.46,1.37Z" transform="translate(-12.63 -17.72)"/><path class="cls-7" d="M717.6,672.63a8.78,8.78,0,0,1,1.3-.1,2.71,2.71,0,0,1,1.91.59,2.18,2.18,0,0,1,.67,1.7,2.5,2.5,0,0,1-.68,1.83,2.91,2.91,0,0,1-2.09.68,9.8,9.8,0,0,1-1.11-.06Zm.61,4.17a3.81,3.81,0,0,0,.62,0,1.81,1.81,0,0,0,2-2,1.68,1.68,0,0,0-1.91-1.82,3.49,3.49,0,0,0-.71.06Z" transform="translate(-12.63 -17.72)"/><path class="cls-7" d="M824,584.1a2.16,2.16,0,0,0,1.09.31c.62,0,1-.33,1-.81s-.25-.69-.89-.94S824,582,824,581.32a1.36,1.36,0,0,1,1.53-1.28,2.14,2.14,0,0,1,1,.23l-.17.5a1.88,1.88,0,0,0-.9-.22c-.64,0-.89.39-.89.71s.29.66.94.91,1.2.69,1.2,1.39-.54,1.36-1.65,1.36a2.44,2.44,0,0,1-1.21-.3Z" transform="translate(-12.63 -17.72)"/><path class="cls-7" d="M830,582.62h-1.83v1.7h2v.51h-2.65v-4.72h2.55v.51h-1.94v1.49H830Z" transform="translate(-12.63 -17.72)"/><path class="cls-7" d="M831,580.18a6.35,6.35,0,0,1,1.17-.1,1.93,1.93,0,0,1,1.37.39,1.18,1.18,0,0,1,.37.9,1.24,1.24,0,0,1-.89,1.2v0a1.18,1.18,0,0,1,.69,1,7.52,7.52,0,0,0,.36,1.3h-.63a6.09,6.09,0,0,1-.31-1.13c-.14-.65-.39-.9-.95-.92h-.57v2H831Zm.61,2.15h.62c.65,0,1.06-.36,1.06-.9s-.44-.88-1.09-.88a2.52,2.52,0,0,0-.6.06Z" transform="translate(-12.63 -17.72)"/><path class="cls-7" d="M835.91,584.84l-1.54-4.72H835l.74,2.33c.2.64.38,1.21.5,1.77h0c.13-.55.33-1.14.54-1.76l.8-2.33h.65l-1.69,4.72Z" transform="translate(-12.63 -17.72)"/><path class="cls-7" d="M839.39,580.12v4.72h-.61v-4.72Z" transform="translate(-12.63 -17.72)"/><path class="cls-7" d="M840.46,580.18a8.78,8.78,0,0,1,1.3-.1,2.71,2.71,0,0,1,1.91.59,2.18,2.18,0,0,1,.67,1.7,2.5,2.5,0,0,1-.68,1.83,2.91,2.91,0,0,1-2.09.68,9.8,9.8,0,0,1-1.11-.06Zm.61,4.17a3.81,3.81,0,0,0,.62,0,1.81,1.81,0,0,0,2-2,1.68,1.68,0,0,0-1.91-1.82,3.49,3.49,0,0,0-.71.06Z" transform="translate(-12.63 -17.72)"/><path class="cls-7" d="M849.15,582.43a2.21,2.21,0,0,1-2.19,2.49,2.16,2.16,0,0,1-2.12-2.4A2.24,2.24,0,0,1,847,580,2.15,2.15,0,0,1,849.15,582.43Zm-3.66.08c0,1,.55,1.91,1.51,1.91s1.51-.89,1.51-2-.49-1.92-1.51-1.92S845.49,581.47,845.49,582.51Z" transform="translate(-12.63 -17.72)"/><path class="cls-7" d="M849.94,580.18a6.35,6.35,0,0,1,1.17-.1,1.93,1.93,0,0,1,1.37.39,1.18,1.18,0,0,1,.37.9,1.24,1.24,0,0,1-.89,1.2v0a1.18,1.18,0,0,1,.69,1,7.52,7.52,0,0,0,.36,1.3h-.63a6.09,6.09,0,0,1-.31-1.13c-.14-.65-.39-.9-.95-.92h-.57v2h-.61Zm.61,2.15h.62c.65,0,1.06-.36,1.06-.9s-.44-.88-1.09-.88a2.52,2.52,0,0,0-.6.06Z" transform="translate(-12.63 -17.72)"/><path class="cls-7" d="M856.15,582.62h-1.83v1.7h2v.51h-2.65v-4.72h2.55v.51h-1.94v1.49h1.83Z" transform="translate(-12.63 -17.72)"/><path class="cls-7" d="M857.07,584.1a2.16,2.16,0,0,0,1.09.31c.62,0,1-.33,1-.81s-.25-.69-.89-.94S857,582,857,581.32a1.36,1.36,0,0,1,1.53-1.28,2.14,2.14,0,0,1,1,.23l-.17.5a1.88,1.88,0,0,0-.9-.22c-.64,0-.89.39-.89.71s.29.66.94.91,1.2.69,1.2,1.39-.54,1.36-1.65,1.36a2.44,2.44,0,0,1-1.21-.3Z" transform="translate(-12.63 -17.72)"/><path class="cls-7" d="M717.14,901.22a3,3,0,0,1-1.25.22,2.21,2.21,0,0,1-2.33-2.39,2.35,2.35,0,0,1,2.47-2.48,2.53,2.53,0,0,1,1.12.21l-.15.5a2.22,2.22,0,0,0-1-.2,1.75,1.75,0,0,0-1.84,1.95,1.72,1.72,0,0,0,1.81,1.9,2.44,2.44,0,0,0,1-.2Z" transform="translate(-12.63 -17.72)"/><path class="cls-7" d="M718.7,899.89l-.49,1.48h-.63l1.6-4.72h.74l1.61,4.72h-.65l-.5-1.48Zm1.55-.48-.46-1.36c-.1-.31-.18-.59-.25-.86h0c-.07.28-.15.57-.24.85l-.46,1.37Z" transform="translate(-12.63 -17.72)"/><path class="cls-7" d="M722.13,900.63a2.16,2.16,0,0,0,1.09.31c.62,0,1-.33,1-.81s-.25-.69-.89-.94-1.25-.67-1.25-1.34a1.36,1.36,0,0,1,1.53-1.28,2.14,2.14,0,0,1,1,.23l-.17.5a1.88,1.88,0,0,0-.9-.22c-.64,0-.89.39-.89.71s.29.66.94.91,1.2.69,1.2,1.39-.54,1.36-1.65,1.36a2.44,2.44,0,0,1-1.21-.3Z" transform="translate(-12.63 -17.72)"/><path class="cls-7" d="M726.43,899.89l-.49,1.48h-.63l1.6-4.72h.74l1.61,4.72h-.65l-.5-1.48Zm1.55-.48-.46-1.36c-.1-.31-.18-.59-.25-.86h0c-.07.28-.15.57-.24.85l-.46,1.37Z" transform="translate(-12.63 -17.72)"/><path class="cls-7" d="M713.18,909.77l-1.54-4.72h.66l.74,2.33c.2.64.38,1.21.5,1.77h0c.13-.55.33-1.14.54-1.76l.8-2.33h.65l-1.69,4.72Z" transform="translate(-12.63 -17.72)"/><path class="cls-7" d="M718.5,907.56h-1.83v1.7h2v.51h-2.65v-4.72h2.55v.51h-1.94v1.49h1.83Z" transform="translate(-12.63 -17.72)"/><path class="cls-7" d="M719.5,905.05h.61v4.21h2v.51H719.5Z" transform="translate(-12.63 -17.72)"/><path class="cls-7" d="M723.41,905.05v2h2.28v-2h.62v4.72h-.62v-2.21h-2.28v2.21h-.61v-4.72Z" transform="translate(-12.63 -17.72)"/><path class="cls-7" d="M728.13,908.29l-.49,1.48H727l1.6-4.72h.74l1.61,4.72h-.65l-.5-1.48Zm1.55-.48-.46-1.36c-.1-.31-.18-.59-.25-.86h0c-.07.28-.15.57-.24.85l-.46,1.37Z" transform="translate(-12.63 -17.72)"/><path class="cls-7" d="M815.3,819.52h.64v4.21h2.11v.51H815.3Z" transform="translate(-12.63 -17.72)"/><path class="cls-7" d="M819.56,822.75l-.51,1.48h-.66l1.68-4.72h.77l1.69,4.72h-.68l-.53-1.48Zm1.62-.48-.48-1.36c-.11-.31-.18-.59-.26-.86h0c-.07.28-.15.57-.25.85l-.48,1.37Z" transform="translate(-12.63 -17.72)"/><path class="cls-7" d="M823.25,819.58a6.52,6.52,0,0,1,1.17-.1,2.12,2.12,0,0,1,1.36.34,1,1,0,0,1,.41.83,1.13,1.13,0,0,1-.84,1h0a1.22,1.22,0,0,1,.6,2.13,2.57,2.57,0,0,1-1.71.44,7.76,7.76,0,0,1-1-.06Zm.64,1.93h.58c.67,0,1.07-.34,1.07-.79s-.44-.77-1.09-.77a2.87,2.87,0,0,0-.57,0Zm0,2.26a3.57,3.57,0,0,0,.54,0c.66,0,1.27-.23,1.27-.92s-.58-.91-1.28-.91h-.53Z" transform="translate(-12.63 -17.72)"/><path class="cls-7" d="M831.45,821.83a2.26,2.26,0,0,1-2.3,2.49,2.21,2.21,0,0,1-2.22-2.4,2.29,2.29,0,0,1,2.3-2.48A2.19,2.19,0,0,1,831.45,821.83Zm-3.84.08a1.71,1.71,0,0,0,1.58,1.91c1,0,1.58-.89,1.58-2a1.72,1.72,0,0,0-1.58-1.92C828.14,819.94,827.61,820.87,827.61,821.91Z" transform="translate(-12.63 -17.72)"/><path class="cls-7" d="M832.28,819.58a7,7,0,0,1,1.23-.1,2.09,2.09,0,0,1,1.43.38,1.15,1.15,0,0,1,.39.9,1.25,1.25,0,0,1-.93,1.21v0a1.18,1.18,0,0,1,.73,1,7.27,7.27,0,0,0,.38,1.3h-.66a5.9,5.9,0,0,1-.33-1.13c-.15-.65-.41-.9-1-.92h-.6v2h-.64Zm.64,2.15h.65c.68,0,1.12-.36,1.12-.9s-.46-.88-1.14-.88a2.77,2.77,0,0,0-.63.06Z" transform="translate(-12.63 -17.72)"/><path class="cls-7" d="M837.06,822.75l-.51,1.48h-.66l1.68-4.72h.77l1.69,4.72h-.68l-.53-1.48Zm1.62-.48-.48-1.36c-.11-.31-.18-.59-.26-.86h0c-.07.28-.15.57-.25.85l-.48,1.37Z" transform="translate(-12.63 -17.72)"/><path class="cls-7" d="M842.2,822.12v.46h-1.81v-.46Z" transform="translate(-12.63 -17.72)"/><path class="cls-7" d="M818.65,828.44h-1.5v-.52h3.66v.52h-1.51v4.2h-.65Z" transform="translate(-12.63 -17.72)"/><path class="cls-7" d="M825.38,830.23a2.26,2.26,0,0,1-2.3,2.49,2.21,2.21,0,0,1-2.22-2.4,2.29,2.29,0,0,1,2.3-2.48A2.19,2.19,0,0,1,825.38,830.23Zm-3.84.08a1.71,1.71,0,0,0,1.58,1.91c1,0,1.59-.89,1.59-2a1.72,1.72,0,0,0-1.58-1.92C822.07,828.34,821.54,829.27,821.54,830.31Zm2.65-3.47-.93.81h-.53l.68-.81Z" transform="translate(-12.63 -17.72)"/><path class="cls-7" d="M826.21,828a7,7,0,0,1,1.23-.1,2.09,2.09,0,0,1,1.43.39,1.15,1.15,0,0,1,.39.9,1.25,1.25,0,0,1-.93,1.2v0a1.18,1.18,0,0,1,.73,1,7.27,7.27,0,0,0,.38,1.3h-.66a5.9,5.9,0,0,1-.33-1.13c-.15-.65-.41-.9-1-.92h-.6v2h-.64Zm.64,2.15h.65c.68,0,1.12-.36,1.12-.9s-.46-.88-1.14-.88a2.77,2.77,0,0,0-.63.06Z" transform="translate(-12.63 -17.72)"/><path class="cls-7" d="M830.79,827.92v4.72h-.64v-4.72Z" transform="translate(-12.63 -17.72)"/><path class="cls-7" d="M836.13,830.23a2.26,2.26,0,0,1-2.3,2.49,2.21,2.21,0,0,1-2.22-2.4,2.29,2.29,0,0,1,2.3-2.48A2.19,2.19,0,0,1,836.13,830.23Zm-3.84.08a1.71,1.71,0,0,0,1.58,1.91c1,0,1.58-.89,1.58-2a1.72,1.72,0,0,0-1.58-1.92C832.82,828.34,832.29,829.27,832.29,830.31Z" transform="translate(-12.63 -17.72)"/><path class="cls-7" d="M836.87,831.9a2.34,2.34,0,0,0,1.15.31c.65,0,1-.33,1-.81s-.26-.69-.93-.94-1.31-.67-1.31-1.34.64-1.28,1.6-1.28a2.33,2.33,0,0,1,1.09.23l-.18.5a2,2,0,0,0-.94-.22c-.67,0-.93.39-.93.71s.3.66,1,.91c.84.31,1.26.69,1.26,1.39s-.56,1.36-1.73,1.36a2.66,2.66,0,0,1-1.26-.3Z" transform="translate(-12.63 -17.72)"/><path class="cls-7" d="M814.45,916.83a5.94,5.94,0,0,1,1.11-.1,2,2,0,0,1,1.3.34,1,1,0,0,1,.39.83,1.12,1.12,0,0,1-.8,1h0a1.22,1.22,0,0,1,1,1.18,1.27,1.27,0,0,1-.4.95,2.37,2.37,0,0,1-1.63.44,7.07,7.07,0,0,1-.95-.06Zm.61,1.93h.55c.64,0,1-.34,1-.79s-.42-.77-1-.77a2.62,2.62,0,0,0-.54,0Zm0,2.26a3.25,3.25,0,0,0,.51,0c.63,0,1.21-.23,1.21-.92s-.55-.91-1.22-.91h-.5Z" transform="translate(-12.63 -17.72)"/><path class="cls-7" d="M818.86,916.77v4.72h-.61v-4.72Z" transform="translate(-12.63 -17.72)"/><path class="cls-7" d="M819.92,916.83a5.94,5.94,0,0,1,1.11-.1,2,2,0,0,1,1.3.34,1,1,0,0,1,.39.83,1.12,1.12,0,0,1-.8,1h0a1.22,1.22,0,0,1,1,1.18,1.27,1.27,0,0,1-.4.95,2.37,2.37,0,0,1-1.63.44,7.07,7.07,0,0,1-.95-.06Zm.61,1.93h.55c.64,0,1-.34,1-.79s-.42-.77-1-.77a2.62,2.62,0,0,0-.54,0Zm0,2.26a3.25,3.25,0,0,0,.51,0c.63,0,1.21-.23,1.21-.92s-.55-.91-1.22-.91h-.5Z" transform="translate(-12.63 -17.72)"/><path class="cls-7" d="M823.71,916.77h.61V921h2v.51h-2.63Z" transform="translate(-12.63 -17.72)"/><path class="cls-7" d="M827.63,916.77v4.72H827v-4.72Z" transform="translate(-12.63 -17.72)"/><path class="cls-7" d="M832.73,919.08a2.21,2.21,0,0,1-2.19,2.49,2.16,2.16,0,0,1-2.12-2.4,2.24,2.24,0,0,1,2.19-2.48A2.15,2.15,0,0,1,832.73,919.08Zm-3.66.08c0,1,.55,1.91,1.51,1.91s1.51-.89,1.51-2-.49-1.92-1.51-1.92S829.06,918.12,829.06,919.16Z" transform="translate(-12.63 -17.72)"/><path class="cls-7" d="M834.24,917.29H832.8v-.52h3.49v.52h-1.44v4.2h-.62Z" transform="translate(-12.63 -17.72)"/><path class="cls-7" d="M839.26,919.28h-1.83V921h2v.51h-2.65v-4.72h2.55v.51h-1.94v1.49h1.83Z" transform="translate(-12.63 -17.72)"/><path class="cls-7" d="M843.56,921.34a3,3,0,0,1-1.25.22,2.21,2.21,0,0,1-2.33-2.39,2.35,2.35,0,0,1,2.47-2.48,2.53,2.53,0,0,1,1.12.21l-.15.5a2.22,2.22,0,0,0-1-.2,1.75,1.75,0,0,0-1.84,1.95,1.72,1.72,0,0,0,1.81,1.9,2.44,2.44,0,0,0,1-.2Z" transform="translate(-12.63 -17.72)"/><path class="cls-7" d="M845.11,920l-.49,1.48H844l1.6-4.72h.74l1.61,4.72h-.65l-.5-1.48Zm1.55-.48-.46-1.36c-.1-.31-.18-.59-.25-.86h0c-.07.28-.15.57-.24.85l-.46,1.37Z" transform="translate(-12.63 -17.72)"/><path class="cls-7" d="M887.76,781.37a7.09,7.09,0,0,1,1.17-.09,1.94,1.94,0,0,1,1.32.39,1.27,1.27,0,0,1,.41,1,1.39,1.39,0,0,1-.36,1,2,2,0,0,1-1.44.52,2.09,2.09,0,0,1-.49,0V786h-.61Zm.61,2.28a2,2,0,0,0,.5,0c.74,0,1.18-.36,1.18-1s-.44-.92-1.11-.92a2.53,2.53,0,0,0-.57,0Z" transform="translate(-12.63 -17.72)"/><path class="cls-7" d="M891.66,784.55l-.49,1.48h-.63l1.6-4.72h.74l1.61,4.72h-.65l-.5-1.48Zm1.55-.48-.46-1.36c-.1-.31-.18-.59-.25-.86h0c-.07.28-.15.57-.24.85l-.46,1.37Zm.34-3.83-.89.82h-.5l.65-.82Z" transform="translate(-12.63 -17.72)"/><path class="cls-7" d="M895.54,781.84H894.1v-.52h3.49v.52h-1.44V786h-.62Z" transform="translate(-12.63 -17.72)"/><path class="cls-7" d="M898.73,781.32V786h-.61v-4.72Z" transform="translate(-12.63 -17.72)"/><path class="cls-7" d="M903.83,783.63a2.21,2.21,0,0,1-2.19,2.49,2.16,2.16,0,0,1-2.12-2.4,2.24,2.24,0,0,1,2.19-2.48A2.15,2.15,0,0,1,903.83,783.63Zm-3.66.08c0,1,.55,1.91,1.51,1.91s1.51-.89,1.51-2-.49-1.92-1.51-1.92S900.17,782.67,900.17,783.71Z" transform="translate(-12.63 -17.72)"/><path class="cls-7" d="M862.88,767.8a3,3,0,0,1-1.25.22,2.21,2.21,0,0,1-2.33-2.39,2.35,2.35,0,0,1,2.47-2.48,2.53,2.53,0,0,1,1.12.21l-.15.5a2.22,2.22,0,0,0-1-.2,1.75,1.75,0,0,0-1.84,1.95,1.72,1.72,0,0,0,1.81,1.9,2.44,2.44,0,0,0,1-.2Z" transform="translate(-12.63 -17.72)"/><path class="cls-7" d="M867.53,765.55a2.21,2.21,0,0,1-2.19,2.49,2.16,2.16,0,0,1-2.12-2.4,2.24,2.24,0,0,1,2.19-2.48A2.15,2.15,0,0,1,867.53,765.55Zm-3.66.08c0,1,.55,1.91,1.51,1.91s1.51-.89,1.51-2-.49-1.92-1.51-1.92S863.87,764.59,863.87,765.63Z" transform="translate(-12.63 -17.72)"/><path class="cls-7" d="M868.32,763.3a6.35,6.35,0,0,1,1.17-.1,1.93,1.93,0,0,1,1.37.39,1.18,1.18,0,0,1,.37.9,1.24,1.24,0,0,1-.89,1.2v0a1.18,1.18,0,0,1,.69,1,7.52,7.52,0,0,0,.36,1.3h-.63a6.09,6.09,0,0,1-.31-1.13c-.14-.65-.39-.9-.95-.92h-.57v2h-.61Zm.61,2.15h.62c.65,0,1.06-.36,1.06-.9s-.44-.88-1.09-.88a2.52,2.52,0,0,0-.6.06Z" transform="translate(-12.63 -17.72)"/><path class="cls-7" d="M872.08,763.3a6.35,6.35,0,0,1,1.17-.1,1.93,1.93,0,0,1,1.37.39,1.18,1.18,0,0,1,.37.9,1.24,1.24,0,0,1-.89,1.2v0a1.18,1.18,0,0,1,.69,1,7.52,7.52,0,0,0,.36,1.3h-.63a6.09,6.09,0,0,1-.31-1.13c-.14-.65-.39-.9-.95-.92h-.57v2h-.61Zm.61,2.15h.62c.65,0,1.06-.36,1.06-.9s-.44-.88-1.09-.88a2.52,2.52,0,0,0-.6.06Z" transform="translate(-12.63 -17.72)"/><path class="cls-7" d="M878.29,765.75h-1.83v1.7h2V768h-2.65v-4.72h2.55v.51h-1.94v1.49h1.83Z" transform="translate(-12.63 -17.72)"/><path class="cls-7" d="M879.29,763.3a8.78,8.78,0,0,1,1.3-.1,2.71,2.71,0,0,1,1.91.59,2.18,2.18,0,0,1,.67,1.7,2.5,2.5,0,0,1-.68,1.83,2.91,2.91,0,0,1-2.09.68,9.8,9.8,0,0,1-1.11-.06Zm.61,4.17a3.81,3.81,0,0,0,.62,0,1.81,1.81,0,0,0,2-2,1.68,1.68,0,0,0-1.91-1.82,3.49,3.49,0,0,0-.71.06Z" transform="translate(-12.63 -17.72)"/><path class="cls-7" d="M888,765.55A2.21,2.21,0,0,1,885.8,768a2.16,2.16,0,0,1-2.12-2.4,2.24,2.24,0,0,1,2.19-2.48A2.15,2.15,0,0,1,888,765.55Zm-3.66.08c0,1,.55,1.91,1.51,1.91s1.51-.89,1.51-2-.49-1.92-1.51-1.92S884.33,764.59,884.33,765.63Z" transform="translate(-12.63 -17.72)"/><path class="cls-7" d="M888.78,763.3a6.35,6.35,0,0,1,1.17-.1,1.93,1.93,0,0,1,1.37.39,1.18,1.18,0,0,1,.37.9,1.24,1.24,0,0,1-.89,1.2v0a1.18,1.18,0,0,1,.69,1,7.52,7.52,0,0,0,.36,1.3h-.63a6.09,6.09,0,0,1-.31-1.13c-.14-.65-.39-.9-.95-.92h-.57v2h-.61Zm.61,2.15H890c.65,0,1.06-.36,1.06-.9s-.44-.88-1.09-.88a2.52,2.52,0,0,0-.6.06Z" transform="translate(-12.63 -17.72)"/><path class="cls-7" d="M897.33,767.8a3,3,0,0,1-1.25.22,2.21,2.21,0,0,1-2.33-2.39,2.35,2.35,0,0,1,2.47-2.48,2.53,2.53,0,0,1,1.12.21l-.15.5a2.22,2.22,0,0,0-1-.2,1.75,1.75,0,0,0-1.84,1.95,1.72,1.72,0,0,0,1.81,1.9,2.44,2.44,0,0,0,1-.2Z" transform="translate(-12.63 -17.72)"/><path class="cls-7" d="M900.53,765.75H898.7v1.7h2V768h-2.65v-4.72h2.55v.51H898.7v1.49h1.83Z" transform="translate(-12.63 -17.72)"/><path class="cls-7" d="M901.53,768v-4.72h.67l1.51,2.39a13.36,13.36,0,0,1,.85,1.53h0c-.06-.63-.07-1.2-.07-1.94v-2h.57V768h-.62l-1.5-2.4a15,15,0,0,1-.88-1.58h0c0,.6,0,1.16,0,1.95v2Z" transform="translate(-12.63 -17.72)"/><path class="cls-7" d="M907,763.76H905.6v-.52h3.49v.52h-1.44V768H907Z" transform="translate(-12.63 -17.72)"/><path class="cls-7" d="M909.62,763.3a6.35,6.35,0,0,1,1.17-.1,1.93,1.93,0,0,1,1.37.39,1.18,1.18,0,0,1,.37.9,1.24,1.24,0,0,1-.89,1.2v0a1.18,1.18,0,0,1,.69,1,7.52,7.52,0,0,0,.36,1.3h-.63a6.09,6.09,0,0,1-.31-1.13c-.14-.65-.39-.9-.95-.92h-.57v2h-.61Zm.61,2.15h.62c.65,0,1.06-.36,1.06-.9s-.44-.88-1.09-.88a2.52,2.52,0,0,0-.6.06Z" transform="translate(-12.63 -17.72)"/><path class="cls-7" d="M914.18,766.47l-.49,1.48h-.63l1.6-4.72h.74L917,768h-.65l-.5-1.48Zm1.55-.48-.46-1.36c-.1-.31-.18-.59-.25-.86h0c-.07.28-.15.57-.24.85l-.46,1.37Z" transform="translate(-12.63 -17.72)"/><path class="cls-7" d="M917.7,763.24h.61v4.21h2V768H917.7Z" transform="translate(-12.63 -17.72)"/><path class="cls-7" d="M1011,692.31a5.94,5.94,0,0,1,1.11-.1,2,2,0,0,1,1.3.34,1,1,0,0,1,.39.83,1.12,1.12,0,0,1-.8,1h0a1.22,1.22,0,0,1,1,1.18,1.27,1.27,0,0,1-.4.95,2.37,2.37,0,0,1-1.63.44,7.07,7.07,0,0,1-.95-.06Zm.61,1.93h.55c.64,0,1-.34,1-.79s-.42-.77-1-.77a2.62,2.62,0,0,0-.54,0Zm0,2.26a3.25,3.25,0,0,0,.51,0c.63,0,1.21-.23,1.21-.92s-.55-.91-1.22-.91h-.5Z" transform="translate(-12.63 -17.72)"/><path class="cls-7" d="M1014.76,692.25h.61v4.21h2V697h-2.63Z" transform="translate(-12.63 -17.72)"/><path class="cls-7" d="M1021.83,694.56a2.21,2.21,0,0,1-2.19,2.49,2.16,2.16,0,0,1-2.12-2.4,2.24,2.24,0,0,1,2.19-2.48A2.15,2.15,0,0,1,1021.83,694.56Zm-3.66.08c0,1,.55,1.91,1.51,1.91s1.51-.89,1.51-2-.49-1.92-1.51-1.92S1018.16,693.6,1018.16,694.64Z" transform="translate(-12.63 -17.72)"/><path class="cls-7" d="M1025.91,696.81a3,3,0,0,1-1.25.22,2.21,2.21,0,0,1-2.33-2.39,2.35,2.35,0,0,1,2.47-2.48,2.53,2.53,0,0,1,1.12.21l-.15.5a2.22,2.22,0,0,0-1-.2,1.75,1.75,0,0,0-1.84,1.95,1.72,1.72,0,0,0,1.81,1.9,2.44,2.44,0,0,0,1-.2Z" transform="translate(-12.63 -17.72)"/><path class="cls-7" d="M1030.56,694.56a2.21,2.21,0,0,1-2.19,2.49,2.16,2.16,0,0,1-2.12-2.4,2.24,2.24,0,0,1,2.19-2.48A2.15,2.15,0,0,1,1030.56,694.56Zm-3.66.08c0,1,.55,1.91,1.51,1.91s1.51-.89,1.51-2-.49-1.92-1.51-1.92S1026.9,693.6,1026.9,694.64Z" transform="translate(-12.63 -17.72)"/><path class="cls-7" d="M1015,700.71a8.78,8.78,0,0,1,1.3-.1,2.71,2.71,0,0,1,1.91.59,2.18,2.18,0,0,1,.67,1.7,2.5,2.5,0,0,1-.68,1.83,2.91,2.91,0,0,1-2.09.68,9.8,9.8,0,0,1-1.11-.06Zm.61,4.17a3.81,3.81,0,0,0,.62,0,1.81,1.81,0,0,0,2-2,1.68,1.68,0,0,0-1.91-1.82,3.49,3.49,0,0,0-.71.06Z" transform="translate(-12.63 -17.72)"/><path class="cls-7" d="M1020.34,703.88l-.49,1.48h-.63l1.6-4.72h.74l1.61,4.72h-.65l-.5-1.48Zm1.55-.48-.46-1.36c-.1-.31-.18-.59-.25-.86h0c-.07.28-.15.57-.24.85l-.46,1.37Z" transform="translate(-12.63 -17.72)"/><path class="cls-7" d="M1023.77,704.63a2.16,2.16,0,0,0,1.09.31c.62,0,1-.33,1-.81s-.25-.69-.89-.94-1.25-.67-1.25-1.34a1.36,1.36,0,0,1,1.53-1.28,2.14,2.14,0,0,1,1,.23l-.17.5a1.88,1.88,0,0,0-.9-.22c-.64,0-.89.39-.89.71s.29.66.94.91,1.2.69,1.2,1.39-.54,1.36-1.65,1.36a2.44,2.44,0,0,1-1.21-.3Z" transform="translate(-12.63 -17.72)"/><path class="cls-7" d="M999.53,713.61a3,3,0,0,1-1.25.22,2.21,2.21,0,0,1-2.33-2.39,2.35,2.35,0,0,1,2.47-2.48,2.53,2.53,0,0,1,1.12.21l-.15.5a2.22,2.22,0,0,0-1-.2,1.75,1.75,0,0,0-1.84,1.95,1.72,1.72,0,0,0,1.81,1.9,2.44,2.44,0,0,0,1-.2Z" transform="translate(-12.63 -17.72)"/><path class="cls-7" d="M1004.18,711.36a2.21,2.21,0,0,1-2.19,2.49,2.16,2.16,0,0,1-2.12-2.4,2.24,2.24,0,0,1,2.19-2.48A2.15,2.15,0,0,1,1004.18,711.36Zm-3.66.08c0,1,.55,1.91,1.51,1.91s1.51-.89,1.51-2-.49-1.92-1.51-1.92S1000.52,710.4,1000.52,711.44Z" transform="translate(-12.63 -17.72)"/><path class="cls-7" d="M1009,711.36a2.21,2.21,0,0,1-2.19,2.49,2.16,2.16,0,0,1-2.12-2.4,2.24,2.24,0,0,1,2.19-2.48A2.15,2.15,0,0,1,1009,711.36Zm-3.66.08c0,1,.55,1.91,1.51,1.91s1.51-.89,1.51-2-.49-1.92-1.51-1.92S1005.34,710.4,1005.34,711.44Z" transform="translate(-12.63 -17.72)"/><path class="cls-7" d="M1009.79,709.11a6.35,6.35,0,0,1,1.17-.1,1.93,1.93,0,0,1,1.37.38,1.18,1.18,0,0,1,.37.9,1.24,1.24,0,0,1-.89,1.21v0a1.18,1.18,0,0,1,.69,1,7.52,7.52,0,0,0,.36,1.3h-.63a6.09,6.09,0,0,1-.31-1.13c-.14-.65-.39-.9-.95-.92h-.57v2h-.61Zm.61,2.15h.62c.65,0,1.06-.36,1.06-.9s-.44-.88-1.09-.88a2.52,2.52,0,0,0-.6.06Z" transform="translate(-12.63 -17.72)"/><path class="cls-7" d="M1013.56,709.11a8.78,8.78,0,0,1,1.3-.1,2.71,2.71,0,0,1,1.91.59,2.18,2.18,0,0,1,.67,1.7,2.5,2.5,0,0,1-.68,1.83,2.91,2.91,0,0,1-2.09.68,9.8,9.8,0,0,1-1.11-.06Zm.61,4.17a3.81,3.81,0,0,0,.62,0,1.81,1.81,0,0,0,2-2,1.68,1.68,0,0,0-1.91-1.82,3.49,3.49,0,0,0-.71.06Z" transform="translate(-12.63 -17.72)"/><path class="cls-7" d="M1020.67,711.55h-1.83v1.7h2v.51h-2.65V709h2.55v.51h-1.94v1.49h1.83Z" transform="translate(-12.63 -17.72)"/><path class="cls-7" d="M1021.67,713.77V709h.67l1.51,2.39a13.36,13.36,0,0,1,.85,1.53h0c-.06-.63-.07-1.2-.07-1.94v-2h.57v4.72h-.62l-1.5-2.4a15,15,0,0,1-.88-1.58h0c0,.6,0,1.16,0,1.95v2Z" transform="translate(-12.63 -17.72)"/><path class="cls-7" d="M1027,712.28l-.49,1.48h-.63l1.6-4.72h.74l1.61,4.72h-.65l-.5-1.48Zm1.55-.48-.46-1.36c-.1-.31-.18-.59-.25-.86h0c-.07.28-.15.57-.24.85l-.46,1.37Z" transform="translate(-12.63 -17.72)"/><path class="cls-7" d="M1033.75,713.61a3,3,0,0,1-1.24.22l-.16.28a.56.56,0,0,1,.49.53c0,.41-.36.57-.72.57a1.06,1.06,0,0,1-.5-.12l.1-.32a.83.83,0,0,0,.39.09c.16,0,.29-.06.29-.21s-.22-.27-.55-.3l.29-.54a2.18,2.18,0,0,1-2-2.37,2.35,2.35,0,0,1,2.47-2.48,2.53,2.53,0,0,1,1.12.21l-.15.5a2.22,2.22,0,0,0-1-.2,1.75,1.75,0,0,0-1.84,1.95,1.72,1.72,0,0,0,1.81,1.9,2.44,2.44,0,0,0,1-.2Z" transform="translate(-12.63 -17.72)"/><path class="cls-7" d="M1038.4,711.36a2.21,2.21,0,0,1-2.19,2.49,2.16,2.16,0,0,1-2.12-2.4,2.24,2.24,0,0,1,2.19-2.48A2.15,2.15,0,0,1,1038.4,711.36Zm-3.66.08c0,1,.55,1.91,1.51,1.91s1.51-.89,1.51-2-.49-1.92-1.51-1.92S1034.73,710.4,1034.73,711.44Zm.64-2.69c0-.43.17-.71.48-.71a.79.79,0,0,1,.41.14.74.74,0,0,0,.34.13c.1,0,.17,0,.19-.27h.32c0,.44-.15.68-.47.68a.94.94,0,0,1-.43-.13.81.81,0,0,0-.33-.13c-.11,0-.17.12-.18.31Z" transform="translate(-12.63 -17.72)"/><path class="cls-7" d="M1041.63,711.55h-1.83v1.7h2v.51h-2.65V709h2.55v.51h-1.94v1.49h1.83Z" transform="translate(-12.63 -17.72)"/><path class="cls-7" d="M1042.55,713a2.16,2.16,0,0,0,1.09.31c.62,0,1-.33,1-.81s-.25-.69-.89-.94-1.25-.67-1.25-1.34A1.36,1.36,0,0,1,1044,709a2.14,2.14,0,0,1,1,.23l-.17.5a1.88,1.88,0,0,0-.9-.22c-.64,0-.89.39-.89.71s.29.66.94.91,1.2.69,1.2,1.39-.54,1.36-1.65,1.36a2.44,2.44,0,0,1-1.21-.3Z" transform="translate(-12.63 -17.72)"/><path class="cls-7" d="M935.48,663l-.51,1.48h-.66l1.67-4.72h.77l1.68,4.72h-.68l-.53-1.48Zm1.61-.48-.48-1.36c-.11-.31-.18-.59-.26-.86h0c-.07.28-.15.57-.25.85l-.48,1.37Z" transform="translate(-12.63 -17.72)"/><path class="cls-7" d="M939.58,659.74v2.79c0,1.06.49,1.51,1.15,1.51s1.2-.46,1.2-1.51v-2.79h.64v2.75c0,1.45-.79,2-1.86,2s-1.77-.55-1.77-2v-2.78Z" transform="translate(-12.63 -17.72)"/><path class="cls-7" d="M943.67,659.8a9.52,9.52,0,0,1,1.35-.1,2.9,2.9,0,0,1,2,.59,2.13,2.13,0,0,1,.69,1.7,2.44,2.44,0,0,1-.71,1.83,3.11,3.11,0,0,1-2.17.68,10.63,10.63,0,0,1-1.15-.06Zm.63,4.17a4.12,4.12,0,0,0,.64,0,1.85,1.85,0,0,0,2.09-2c0-1.11-.65-1.82-2-1.82a3.77,3.77,0,0,0-.74.06Z" transform="translate(-12.63 -17.72)"/><path class="cls-7" d="M949.16,659.74v4.72h-.63v-4.72Z" transform="translate(-12.63 -17.72)"/><path class="cls-7" d="M951.21,660.26h-1.5v-.52h3.64v.52h-1.5v4.2h-.64Z" transform="translate(-12.63 -17.72)"/><path class="cls-7" d="M957.9,662a2.25,2.25,0,0,1-2.28,2.49,2.2,2.2,0,0,1-2.21-2.4,2.28,2.28,0,0,1,2.28-2.48A2.18,2.18,0,0,1,957.9,662Zm-3.81.08a1.71,1.71,0,0,0,1.57,1.91c1,0,1.58-.89,1.58-2a1.71,1.71,0,0,0-1.57-1.92C954.61,660.16,954.09,661.09,954.09,662.13Zm2.63-3.47-.93.81h-.52l.68-.81Z" transform="translate(-12.63 -17.72)"/><path class="cls-7" d="M958.73,659.8a6.89,6.89,0,0,1,1.22-.1,2.07,2.07,0,0,1,1.42.39,1.15,1.15,0,0,1,.39.9,1.25,1.25,0,0,1-.93,1.2v0a1.18,1.18,0,0,1,.72,1,7.3,7.3,0,0,0,.38,1.3h-.66a6,6,0,0,1-.33-1.13c-.15-.65-.41-.9-1-.92h-.6v2h-.63Zm.63,2.15H960c.68,0,1.11-.36,1.11-.9s-.46-.88-1.13-.88a2.73,2.73,0,0,0-.63.06Z" transform="translate(-12.63 -17.72)"/><path class="cls-7" d="M963.29,659.74v4.72h-.63v-4.72Z" transform="translate(-12.63 -17.72)"/><path class="cls-7" d="M968.6,662a2.25,2.25,0,0,1-2.28,2.49,2.2,2.2,0,0,1-2.21-2.4,2.28,2.28,0,0,1,2.28-2.48A2.18,2.18,0,0,1,968.6,662Zm-3.81.08a1.71,1.71,0,0,0,1.57,1.91c1,0,1.58-.89,1.58-2a1.71,1.71,0,0,0-1.57-1.92C965.31,660.16,964.78,661.09,964.78,662.13Z" transform="translate(-12.63 -17.72)"/><path class="cls-7" d="M947,707h.61v4.21h2v.51H947Z" transform="translate(-12.63 -17.72)"/><path class="cls-7" d="M951,710.23l-.49,1.48h-.63l1.6-4.72h.74l1.61,4.72h-.65l-.5-1.48Zm1.55-.48-.46-1.36c-.1-.31-.18-.59-.25-.86h0c-.07.28-.15.57-.24.85l-.46,1.37Z" transform="translate(-12.63 -17.72)"/><path class="cls-7" d="M954.55,707.06a5.94,5.94,0,0,1,1.11-.1,2,2,0,0,1,1.3.34,1,1,0,0,1,.39.83,1.12,1.12,0,0,1-.8,1h0a1.22,1.22,0,0,1,1,1.18,1.27,1.27,0,0,1-.4.95,2.37,2.37,0,0,1-1.63.44,7.07,7.07,0,0,1-.95-.06Zm.61,1.93h.55c.64,0,1-.34,1-.79s-.42-.77-1-.77a2.62,2.62,0,0,0-.54,0Zm0,2.26a3.25,3.25,0,0,0,.51,0c.63,0,1.21-.23,1.21-.92s-.55-.91-1.22-.91h-.5Z" transform="translate(-12.63 -17.72)"/><path class="cls-7" d="M962.38,709.31a2.21,2.21,0,0,1-2.19,2.49,2.16,2.16,0,0,1-2.12-2.4,2.24,2.24,0,0,1,2.19-2.48A2.15,2.15,0,0,1,962.38,709.31Zm-3.66.08c0,1,.55,1.91,1.51,1.91s1.51-.89,1.51-2-.49-1.92-1.51-1.92S958.71,708.35,958.71,709.39Z" transform="translate(-12.63 -17.72)"/><path class="cls-7" d="M963.16,707.06a6.35,6.35,0,0,1,1.17-.1,1.93,1.93,0,0,1,1.37.38,1.18,1.18,0,0,1,.37.9,1.24,1.24,0,0,1-.89,1.21v0a1.18,1.18,0,0,1,.69,1,7.52,7.52,0,0,0,.36,1.3h-.63a6.09,6.09,0,0,1-.31-1.13c-.14-.65-.39-.9-.95-.92h-.57v2h-.61Zm.61,2.15h.62c.65,0,1.06-.36,1.06-.9s-.44-.88-1.09-.88a2.52,2.52,0,0,0-.6.06Z" transform="translate(-12.63 -17.72)"/><path class="cls-7" d="M967.73,710.23l-.49,1.48h-.63l1.6-4.72h.74l1.61,4.72h-.65l-.5-1.48Zm1.55-.48-.46-1.36c-.1-.31-.18-.59-.25-.86h0c-.07.28-.15.57-.24.85l-.46,1.37Z" transform="translate(-12.63 -17.72)"/><path class="cls-7" d="M972.64,709.6v.46h-1.73v-.46Z" transform="translate(-12.63 -17.72)"/><path class="cls-7" d="M950.15,715.92h-1.44v-.52h3.49v.52h-1.44v4.2h-.62Z" transform="translate(-12.63 -17.72)"/><path class="cls-7" d="M956.58,717.71a2.21,2.21,0,0,1-2.19,2.49,2.16,2.16,0,0,1-2.12-2.4,2.24,2.24,0,0,1,2.19-2.48A2.15,2.15,0,0,1,956.58,717.71Zm-3.66.08c0,1,.55,1.91,1.51,1.91s1.51-.89,1.51-2-.49-1.92-1.51-1.92S952.92,716.75,952.92,717.79Zm2.53-3.47-.89.81h-.5l.65-.81Z" transform="translate(-12.63 -17.72)"/><path class="cls-7" d="M957.37,715.46a6.35,6.35,0,0,1,1.17-.1,1.93,1.93,0,0,1,1.37.39,1.18,1.18,0,0,1,.37.9,1.24,1.24,0,0,1-.89,1.2v0a1.18,1.18,0,0,1,.69,1,7.52,7.52,0,0,0,.36,1.3h-.63a6.09,6.09,0,0,1-.31-1.13c-.14-.65-.39-.9-.95-.92H958v2h-.61Zm.61,2.15h.62c.65,0,1.06-.36,1.06-.9s-.44-.88-1.09-.88a2.52,2.52,0,0,0-.6.06Z" transform="translate(-12.63 -17.72)"/><path class="cls-7" d="M961.74,715.4v4.72h-.61V715.4Z" transform="translate(-12.63 -17.72)"/><path class="cls-7" d="M966.84,717.71a2.21,2.21,0,0,1-2.19,2.49,2.16,2.16,0,0,1-2.12-2.4,2.24,2.24,0,0,1,2.19-2.48A2.15,2.15,0,0,1,966.84,717.71Zm-3.66.08c0,1,.55,1.91,1.51,1.91s1.51-.89,1.51-2-.49-1.92-1.51-1.92S963.18,716.75,963.18,717.79Z" transform="translate(-12.63 -17.72)"/><path class="cls-7" d="M967.55,719.38a2.16,2.16,0,0,0,1.09.31c.62,0,1-.33,1-.81s-.25-.69-.89-.94-1.25-.67-1.25-1.34a1.36,1.36,0,0,1,1.53-1.28,2.14,2.14,0,0,1,1,.23l-.17.5a1.88,1.88,0,0,0-.9-.22c-.64,0-.89.39-.89.71s.29.66.94.91,1.2.69,1.2,1.39-.54,1.36-1.65,1.36a2.44,2.44,0,0,1-1.21-.3Z" transform="translate(-12.63 -17.72)"/><path class="cls-7" d="M732.16,189.74a6.35,6.35,0,0,1,1.17-.1,1.93,1.93,0,0,1,1.37.38,1.18,1.18,0,0,1,.37.9,1.24,1.24,0,0,1-.89,1.21v0a1.18,1.18,0,0,1,.69,1,7.52,7.52,0,0,0,.36,1.3h-.63a6.09,6.09,0,0,1-.31-1.13c-.14-.65-.39-.9-.95-.92h-.57v2h-.61Zm.61,2.15h.62c.65,0,1.06-.36,1.06-.9s-.44-.88-1.09-.88a2.52,2.52,0,0,0-.6.06Z" transform="translate(-12.63 -17.72)"/><path class="cls-7" d="M738.37,192.18h-1.83v1.7h2v.51h-2.65v-4.72h2.55v.51h-1.94v1.49h1.83Z" transform="translate(-12.63 -17.72)"/><path class="cls-7" d="M739.29,193.65a2.16,2.16,0,0,0,1.09.31c.62,0,1-.33,1-.81s-.25-.69-.89-.94-1.25-.67-1.25-1.34a1.36,1.36,0,0,1,1.53-1.28,2.14,2.14,0,0,1,1,.23l-.17.5a1.88,1.88,0,0,0-.9-.22c-.64,0-.89.39-.89.71s.29.66.94.91,1.2.69,1.2,1.39-.54,1.36-1.65,1.36a2.44,2.44,0,0,1-1.21-.3Z" transform="translate(-12.63 -17.72)"/><path class="cls-7" d="M743.72,190.19h-1.44v-.52h3.49v.52h-1.44v4.2h-.62Z" transform="translate(-12.63 -17.72)"/><path class="cls-7" d="M746.54,192.91l-.49,1.48h-.63l1.6-4.72h.74l1.61,4.72h-.65l-.5-1.48Zm1.55-.48-.46-1.36c-.1-.31-.18-.59-.25-.86h0c-.07.28-.15.57-.24.85l-.46,1.37Z" transform="translate(-12.63 -17.72)"/><path class="cls-7" d="M750.48,189.68v2.79c0,1.06.47,1.51,1.1,1.51s1.15-.46,1.15-1.51v-2.79h.62v2.75c0,1.45-.76,2-1.79,2s-1.69-.55-1.69-2v-2.78Z" transform="translate(-12.63 -17.72)"/><path class="cls-7" d="M754.4,189.74a6.35,6.35,0,0,1,1.17-.1,1.93,1.93,0,0,1,1.37.38,1.18,1.18,0,0,1,.37.9,1.24,1.24,0,0,1-.89,1.21v0a1.18,1.18,0,0,1,.69,1,7.52,7.52,0,0,0,.36,1.3h-.63a6.09,6.09,0,0,1-.31-1.13c-.14-.65-.39-.9-.95-.92H755v2h-.61Zm.61,2.15h.62c.65,0,1.06-.36,1.06-.9s-.44-.88-1.09-.88a2.52,2.52,0,0,0-.6.06Z" transform="translate(-12.63 -17.72)"/><path class="cls-7" d="M759,192.91l-.49,1.48h-.63l1.6-4.72h.74l1.61,4.72h-.65l-.5-1.48Zm1.55-.48-.46-1.36c-.1-.31-.18-.59-.25-.86h0c-.07.28-.15.57-.24.85l-.46,1.37Z" transform="translate(-12.63 -17.72)"/><path class="cls-7" d="M762.48,194.4v-4.72h.67l1.51,2.39a13.36,13.36,0,0,1,.85,1.53h0c-.06-.63-.07-1.2-.07-1.94v-2H766v4.72h-.62l-1.5-2.4a15,15,0,0,1-.88-1.58h0c0,.6,0,1.16,0,1.95v2Z" transform="translate(-12.63 -17.72)"/><path class="cls-7" d="M768,190.19h-1.44v-.52H770v.52H768.6v4.2H768Z" transform="translate(-12.63 -17.72)"/><path class="cls-7" d="M773,192.18h-1.83v1.7h2v.51h-2.65v-4.72h2.55v.51h-1.94v1.49H773Z" transform="translate(-12.63 -17.72)"/><path class="cls-7" d="M731.42,198.08v2.79c0,1.06.47,1.51,1.1,1.51s1.15-.46,1.15-1.51v-2.79h.62v2.75c0,1.45-.76,2-1.79,2s-1.69-.55-1.69-2v-2.78Z" transform="translate(-12.63 -17.72)"/><path class="cls-7" d="M735.34,202.8v-4.72H736l1.51,2.39a13.36,13.36,0,0,1,.85,1.53h0c-.06-.63-.07-1.2-.07-1.94v-2h.57v4.72h-.62l-1.5-2.4a15,15,0,0,1-.88-1.58h0c0,.6,0,1.16,0,1.95v2Z" transform="translate(-12.63 -17.72)"/><path class="cls-7" d="M740.56,198.08v4.72h-.61v-4.72Z" transform="translate(-12.63 -17.72)"/><path class="cls-7" d="M742.66,202.8l-1.54-4.72h.66l.74,2.33c.2.64.38,1.21.5,1.77h0c.13-.55.33-1.14.54-1.76l.8-2.33H745l-1.69,4.72Z" transform="translate(-12.63 -17.72)"/><path class="cls-7" d="M748,200.58h-1.83v1.7h2v.51h-2.65v-4.72h2.55v.51h-1.94v1.49H748Z" transform="translate(-12.63 -17.72)"/><path class="cls-7" d="M749,198.14a6.35,6.35,0,0,1,1.17-.1,1.93,1.93,0,0,1,1.37.39,1.18,1.18,0,0,1,.37.9,1.24,1.24,0,0,1-.89,1.2v0a1.18,1.18,0,0,1,.69,1,7.52,7.52,0,0,0,.36,1.3h-.63a6.09,6.09,0,0,1-.31-1.13c-.14-.65-.39-.9-.95-.92h-.57v2H749Zm.61,2.15h.62c.65,0,1.06-.36,1.06-.9s-.44-.88-1.09-.88a2.52,2.52,0,0,0-.6.06Z" transform="translate(-12.63 -17.72)"/><path class="cls-7" d="M752.65,202.05a2.16,2.16,0,0,0,1.09.31c.62,0,1-.33,1-.81s-.25-.69-.89-.94-1.25-.67-1.25-1.34a1.36,1.36,0,0,1,1.53-1.28,2.14,2.14,0,0,1,1,.23l-.17.5a1.88,1.88,0,0,0-.9-.22c-.64,0-.89.39-.89.71s.29.66.94.91,1.2.69,1.2,1.39-.54,1.36-1.65,1.36a2.44,2.44,0,0,1-1.21-.3Z" transform="translate(-12.63 -17.72)"/><path class="cls-7" d="M756.8,198.08v4.72h-.61v-4.72Z" transform="translate(-12.63 -17.72)"/><path class="cls-7" d="M758.76,198.59h-1.44v-.52h3.49v.52h-1.44v4.2h-.62Z" transform="translate(-12.63 -17.72)"/><path class="cls-7" d="M761.58,201.31l-.49,1.48h-.63l1.6-4.72h.74l1.61,4.72h-.65l-.5-1.48Zm1.55-.48-.46-1.36c-.1-.31-.18-.59-.25-.86h0c-.07.28-.15.57-.24.85l-.46,1.37Zm.34-3.83-.89.82h-.5l.65-.82Z" transform="translate(-12.63 -17.72)"/><path class="cls-7" d="M765.1,198.14a6.35,6.35,0,0,1,1.17-.1,1.93,1.93,0,0,1,1.37.39,1.18,1.18,0,0,1,.37.9,1.24,1.24,0,0,1-.89,1.2v0a1.18,1.18,0,0,1,.69,1,7.52,7.52,0,0,0,.36,1.3h-.63a6.09,6.09,0,0,1-.31-1.13c-.14-.65-.39-.9-.95-.92h-.57v2h-.61Zm.61,2.15h.62c.65,0,1.06-.36,1.06-.9s-.44-.88-1.09-.88a2.52,2.52,0,0,0-.6.06Z" transform="translate(-12.63 -17.72)"/><path class="cls-7" d="M769.47,198.08v4.72h-.61v-4.72Z" transform="translate(-12.63 -17.72)"/><path class="cls-7" d="M774.57,200.39a2.21,2.21,0,0,1-2.19,2.49,2.16,2.16,0,0,1-2.12-2.4,2.24,2.24,0,0,1,2.19-2.48A2.15,2.15,0,0,1,774.57,200.39Zm-3.66.08c0,1,.55,1.91,1.51,1.91s1.51-.89,1.51-2-.49-1.92-1.51-1.92S770.91,199.43,770.91,200.46Z" transform="translate(-12.63 -17.72)"/><path class="cls-7" d="M687.69,830.87a5.94,5.94,0,0,1,1.11-.1,2,2,0,0,1,1.3.34,1,1,0,0,1,.39.83,1.12,1.12,0,0,1-.8,1h0a1.22,1.22,0,0,1,1,1.18,1.27,1.27,0,0,1-.4.95,2.37,2.37,0,0,1-1.63.44,7.07,7.07,0,0,1-.95-.06Zm.61,1.93h.55c.64,0,1-.34,1-.79s-.42-.77-1-.77a2.62,2.62,0,0,0-.54,0Zm0,2.26a3.25,3.25,0,0,0,.51,0c.63,0,1.21-.23,1.21-.92s-.55-.91-1.22-.91h-.5Z" transform="translate(-12.63 -17.72)"/><path class="cls-7" d="M691.48,830.81h.61V835h2v.51h-2.63Z" transform="translate(-12.63 -17.72)"/><path class="cls-7" d="M698.55,833.12a2.21,2.21,0,0,1-2.19,2.49,2.16,2.16,0,0,1-2.12-2.4,2.24,2.24,0,0,1,2.19-2.48A2.15,2.15,0,0,1,698.55,833.12Zm-3.66.08c0,1,.55,1.91,1.51,1.91s1.51-.89,1.51-2-.49-1.92-1.51-1.92S694.89,832.16,694.89,833.2Z" transform="translate(-12.63 -17.72)"/><path class="cls-7" d="M702.64,835.38a3,3,0,0,1-1.25.22,2.21,2.21,0,0,1-2.33-2.39,2.35,2.35,0,0,1,2.47-2.48,2.53,2.53,0,0,1,1.12.21l-.15.5a2.22,2.22,0,0,0-1-.2,1.75,1.75,0,0,0-1.84,1.95,1.72,1.72,0,0,0,1.81,1.9,2.44,2.44,0,0,0,1-.2Z" transform="translate(-12.63 -17.72)"/><path class="cls-7" d="M707.29,833.12a2.21,2.21,0,0,1-2.19,2.49,2.16,2.16,0,0,1-2.12-2.4,2.24,2.24,0,0,1,2.19-2.48A2.15,2.15,0,0,1,707.29,833.12Zm-3.66.08c0,1,.55,1.91,1.51,1.91s1.51-.89,1.51-2-.49-1.92-1.51-1.92S703.62,832.16,703.62,833.2Z" transform="translate(-12.63 -17.72)"/><path class="cls-7" d="M709.56,830.81h.61V835h2v.51h-2.63Z" transform="translate(-12.63 -17.72)"/><path class="cls-8" d="M695.55,735.27l-.49,1.48h-.63L696,732h.74l1.61,4.72h-.65l-.5-1.48Zm1.55-.48-.46-1.36c-.1-.31-.18-.59-.25-.86h0c-.07.28-.15.57-.24.85l-.46,1.37Z" transform="translate(-12.63 -17.72)"/><path class="cls-8" d="M702.55,736.55a4.39,4.39,0,0,1-1.45.26,2.22,2.22,0,0,1-2.42-2.38,2.37,2.37,0,0,1,2.56-2.44,2.92,2.92,0,0,1,1.18.22l-.15.5a2.44,2.44,0,0,0-1-.2,1.77,1.77,0,0,0-1.9,1.9,1.73,1.73,0,0,0,1.82,1.91,2,2,0,0,0,.81-.13v-1.41h-1v-.49h1.55Z" transform="translate(-12.63 -17.72)"/><path class="cls-8" d="M703.48,732.1a6.35,6.35,0,0,1,1.17-.1,1.93,1.93,0,0,1,1.37.38,1.18,1.18,0,0,1,.37.9,1.24,1.24,0,0,1-.89,1.21v0a1.18,1.18,0,0,1,.69,1,7.52,7.52,0,0,0,.36,1.3h-.63a6.09,6.09,0,0,1-.31-1.13c-.14-.65-.39-.9-.95-.92h-.57v2h-.61Zm.61,2.15h.62c.65,0,1.06-.36,1.06-.9s-.44-.88-1.09-.88a2.52,2.52,0,0,0-.6.06Z" transform="translate(-12.63 -17.72)"/><path class="cls-8" d="M708,735.27l-.49,1.48h-.63l1.6-4.72h.74l1.61,4.72h-.65l-.5-1.48Zm1.55-.48-.46-1.36c-.1-.31-.18-.59-.25-.86h0c-.07.28-.15.57-.24.85l-.46,1.37Zm.34-3.83-.89.82h-.5l.65-.82Z" transform="translate(-12.63 -17.72)"/><path class="cls-8" d="M711.57,732.1a6.35,6.35,0,0,1,1.17-.1,1.93,1.93,0,0,1,1.37.38,1.18,1.18,0,0,1,.37.9,1.24,1.24,0,0,1-.89,1.21v0a1.18,1.18,0,0,1,.69,1,7.52,7.52,0,0,0,.36,1.3H714a6.09,6.09,0,0,1-.31-1.13c-.14-.65-.39-.9-.95-.92h-.57v2h-.61Zm.61,2.15h.62c.65,0,1.06-.36,1.06-.9s-.44-.88-1.09-.88a2.52,2.52,0,0,0-.6.06Z" transform="translate(-12.63 -17.72)"/><path class="cls-8" d="M715.94,732v4.72h-.61V732Z" transform="translate(-12.63 -17.72)"/><path class="cls-8" d="M717.77,735.27l-.49,1.48h-.63l1.6-4.72H719l1.61,4.72h-.65l-.5-1.48Zm1.55-.48-.46-1.36c-.1-.31-.18-.59-.25-.86h0c-.07.28-.15.57-.24.85l-.46,1.37Z" transform="translate(-12.63 -17.72)"/><path class="cls-8" d="M721.21,736a2.16,2.16,0,0,0,1.09.31c.62,0,1-.33,1-.81s-.25-.69-.89-.94-1.25-.67-1.25-1.34a1.36,1.36,0,0,1,1.53-1.28,2.14,2.14,0,0,1,1,.23l-.17.5a1.88,1.88,0,0,0-.9-.22c-.64,0-.89.39-.89.71s.29.66.94.91,1.2.69,1.2,1.39-.54,1.36-1.65,1.36a2.44,2.44,0,0,1-1.21-.3Z" transform="translate(-12.63 -17.72)"/><path d="M457,111.69l-1.82-.23-.21,1.69,2,.26-.06.51-2.63-.33.59-4.68,2.53.32-.06.51-1.92-.24-.19,1.48,1.82.23Z" transform="translate(-12.63 -17.72)"/><path d="M457.73,113.27a2.15,2.15,0,0,0,1,.44c.62.08,1-.2,1.08-.67s-.16-.72-.76-1-1.15-.82-1.07-1.48a1.36,1.36,0,0,1,1.68-1.08,2.14,2.14,0,0,1,1,.36l-.23.47a1.88,1.88,0,0,0-.86-.34c-.64-.08-.93.27-1,.59s.2.69.82,1,1.11.84,1,1.53-.71,1.28-1.81,1.14a2.44,2.44,0,0,1-1.16-.45Z" transform="translate(-12.63 -17.72)"/><path d="M462.56,110.39l-1.42-.18.07-.51,3.47.44-.07.51-1.43-.18-.53,4.17-.61-.08Z" transform="translate(-12.63 -17.72)"/><path d="M465.8,110.28l-.35,2.77c-.13,1,.28,1.55.9,1.63s1.2-.31,1.33-1.35l.35-2.77.61.08-.35,2.73c-.18,1.44-1,1.93-2,1.8s-1.61-.76-1.43-2.21l.35-2.76Z" transform="translate(-12.63 -17.72)"/><path d="M469.68,110.78l2.52.32-.06.51-1.92-.24-.2,1.56,1.77.22-.06.5-1.77-.23-.27,2.12-.6-.08Z" transform="translate(-12.63 -17.72)"/><path d="M472.87,114.44l-.67,1.41-.62-.08,2.19-4.48.73.09,1,4.89-.65-.08-.31-1.54Zm1.6-.28-.29-1.41c-.07-.32-.1-.61-.13-.89h0c-.1.27-.22.54-.34.82l-.63,1.3Z" transform="translate(-12.63 -17.72)"/><path d="M476.19,115.61a2.16,2.16,0,0,0,1,.44c.62.08,1-.2,1.08-.67s-.16-.72-.76-1-1.15-.82-1.07-1.48a1.36,1.36,0,0,1,1.68-1.08,2.14,2.14,0,0,1,1,.36l-.23.47a1.87,1.87,0,0,0-.86-.34c-.64-.08-.93.27-1,.59s.2.69.82,1,1.11.84,1,1.53-.71,1.28-1.81,1.14a2.45,2.45,0,0,1-1.16-.45Z" transform="translate(-12.63 -17.72)"/><path class="cls-7" d="M51.41,645.88a5.94,5.94,0,0,1,1.11-.1,2,2,0,0,1,1.3.34,1,1,0,0,1,.39.83,1.12,1.12,0,0,1-.8,1h0a1.22,1.22,0,0,1,1,1.18,1.27,1.27,0,0,1-.4.95,2.37,2.37,0,0,1-1.63.44,7.07,7.07,0,0,1-.95-.06Zm.61,1.93h.55c.64,0,1-.34,1-.79s-.42-.77-1-.77a2.62,2.62,0,0,0-.54,0Zm0,2.26a3.25,3.25,0,0,0,.51,0c.63,0,1.21-.23,1.21-.92s-.55-.91-1.22-.91H52Z" transform="translate(-12.63 -17.72)"/><path class="cls-7" d="M55.2,645.82h.61V650h2v.51H55.2Z" transform="translate(-12.63 -17.72)"/><path class="cls-7" d="M62.27,648.13a2.21,2.21,0,0,1-2.19,2.49,2.16,2.16,0,0,1-2.12-2.4,2.24,2.24,0,0,1,2.19-2.48A2.15,2.15,0,0,1,62.27,648.13Zm-3.66.08c0,1,.55,1.91,1.51,1.91s1.51-.89,1.51-2-.49-1.92-1.51-1.92S58.6,647.17,58.6,648.21Z" transform="translate(-12.63 -17.72)"/><path class="cls-7" d="M66.35,650.39a3,3,0,0,1-1.25.22,2.21,2.21,0,0,1-2.33-2.39,2.35,2.35,0,0,1,2.47-2.48,2.53,2.53,0,0,1,1.12.21l-.15.5a2.22,2.22,0,0,0-1-.2,1.75,1.75,0,0,0-1.84,1.95,1.72,1.72,0,0,0,1.81,1.9,2.44,2.44,0,0,0,1-.2Z" transform="translate(-12.63 -17.72)"/><path class="cls-7" d="M71,648.13a2.21,2.21,0,0,1-2.19,2.49,2.16,2.16,0,0,1-2.12-2.4,2.24,2.24,0,0,1,2.19-2.48A2.15,2.15,0,0,1,71,648.13Zm-3.66.08c0,1,.55,1.91,1.51,1.91s1.51-.89,1.51-2-.49-1.92-1.51-1.92S67.34,647.17,67.34,648.21Z" transform="translate(-12.63 -17.72)"/><path class="cls-7" d="M73.27,645.88a8.78,8.78,0,0,1,1.3-.1,2.71,2.71,0,0,1,1.91.59,2.18,2.18,0,0,1,.67,1.7,2.5,2.5,0,0,1-.68,1.83,2.91,2.91,0,0,1-2.09.68,9.8,9.8,0,0,1-1.11-.06Zm.61,4.17a3.81,3.81,0,0,0,.62,0,1.81,1.81,0,0,0,2-2,1.68,1.68,0,0,0-1.91-1.82,3.49,3.49,0,0,0-.71.06Z" transform="translate(-12.63 -17.72)"/><path class="cls-7" d="M80.38,648.33H78.55V650h2v.51H77.94v-4.72h2.55v.51H78.55v1.49h1.83Z" transform="translate(-12.63 -17.72)"/><path class="cls-7" d="M55.36,656.87c0-.66-.08-1.45-.07-2h0c-.16.55-.36,1.14-.6,1.79l-.83,2.29h-.46l-.76-2.25c-.22-.67-.41-1.27-.55-1.83h0c0,.59,0,1.38-.09,2.09l-.13,2h-.58l.33-4.72h.78l.81,2.28c.2.58.36,1.1.48,1.59h0c.12-.48.29-1,.5-1.59l.84-2.28h.78l.29,4.72h-.6Z" transform="translate(-12.63 -17.72)"/><path class="cls-7" d="M59.45,656.73H57.62v1.7h2v.51H57v-4.72h2.55v.51H57.62v1.49h1.83Z" transform="translate(-12.63 -17.72)"/><path class="cls-7" d="M60.45,654.28a8.78,8.78,0,0,1,1.3-.1,2.71,2.71,0,0,1,1.91.59,2.18,2.18,0,0,1,.67,1.7,2.5,2.5,0,0,1-.68,1.83,2.91,2.91,0,0,1-2.09.68,9.8,9.8,0,0,1-1.11-.06Zm.61,4.17a3.81,3.81,0,0,0,.62,0,1.81,1.81,0,0,0,2-2,1.68,1.68,0,0,0-1.91-1.82,3.49,3.49,0,0,0-.71.06Z" transform="translate(-12.63 -17.72)"/><path class="cls-7" d="M65.72,654.22v4.72h-.61v-4.72Z" transform="translate(-12.63 -17.72)"/><path class="cls-7" d="M70.08,658.79a3,3,0,0,1-1.25.22,2.21,2.21,0,0,1-2.33-2.39A2.35,2.35,0,0,1,69,654.14a2.53,2.53,0,0,1,1.12.21l-.15.5a2.22,2.22,0,0,0-1-.2,1.75,1.75,0,0,0-1.84,1.95A1.72,1.72,0,0,0,69,658.5a2.44,2.44,0,0,0,1-.2Z" transform="translate(-12.63 -17.72)"/><path class="cls-7" d="M71.46,654.22v4.72h-.61v-4.72Z" transform="translate(-12.63 -17.72)"/><path class="cls-7" d="M72.52,658.94v-4.72h.67l1.51,2.39a13.36,13.36,0,0,1,.85,1.53h0c-.06-.63-.07-1.2-.07-1.94v-2h.57v4.72h-.62l-1.5-2.4a15,15,0,0,1-.88-1.58h0c0,.6,0,1.16,0,1.95v2Z" transform="translate(-12.63 -17.72)"/><path class="cls-7" d="M77.89,657.46l-.49,1.48h-.63l1.6-4.72h.74l1.61,4.72h-.65l-.5-1.48Zm1.55-.48L79,655.62c-.1-.31-.18-.59-.25-.86h0c-.07.28-.15.57-.24.85L78,657Z" transform="translate(-12.63 -17.72)"/><path class="cls-7" d="M770.81,865.33h-1.44v-.52h3.49v.52h-1.44v4.2h-.62Z" transform="translate(-12.63 -17.72)"/><path class="cls-7" d="M777.24,867.12a2.21,2.21,0,0,1-2.19,2.49,2.16,2.16,0,0,1-2.12-2.4,2.24,2.24,0,0,1,2.19-2.48A2.15,2.15,0,0,1,777.24,867.12Zm-3.66.08c0,1,.55,1.91,1.51,1.91s1.51-.89,1.51-2-.49-1.92-1.51-1.92S773.58,866.16,773.58,867.2Z" transform="translate(-12.63 -17.72)"/><path class="cls-7" d="M778,864.87a6.35,6.35,0,0,1,1.17-.1,1.93,1.93,0,0,1,1.37.39,1.18,1.18,0,0,1,.37.9,1.24,1.24,0,0,1-.89,1.2v0a1.18,1.18,0,0,1,.69,1,7.52,7.52,0,0,0,.36,1.3h-.63a6.09,6.09,0,0,1-.31-1.13c-.14-.65-.39-.9-.95-.92h-.57v2H778Zm.61,2.15h.62c.65,0,1.06-.36,1.06-.9s-.44-.88-1.09-.88a2.52,2.52,0,0,0-.6.06Z" transform="translate(-12.63 -17.72)"/><path class="cls-7" d="M781.8,864.87a6.35,6.35,0,0,1,1.17-.1,1.93,1.93,0,0,1,1.37.39,1.18,1.18,0,0,1,.37.9,1.24,1.24,0,0,1-.89,1.2v0a1.18,1.18,0,0,1,.69,1,7.52,7.52,0,0,0,.36,1.3h-.63a6.09,6.09,0,0,1-.31-1.13c-.14-.65-.39-.9-.95-.92h-.57v2h-.61Zm.61,2.15H783c.65,0,1.06-.36,1.06-.9s-.44-.88-1.09-.88a2.52,2.52,0,0,0-.6.06Z" transform="translate(-12.63 -17.72)"/><path class="cls-7" d="M788,867.32h-1.83V869h2v.51h-2.65v-4.72h2.55v.51h-1.94v1.49H788Z" transform="translate(-12.63 -17.72)"/><path class="cls-7" d="M698.44,482.92a5.94,5.94,0,0,1,1.11-.1,2,2,0,0,1,1.3.34,1,1,0,0,1,.39.83,1.12,1.12,0,0,1-.8,1h0a1.22,1.22,0,0,1,1,1.18,1.27,1.27,0,0,1-.4.95,2.37,2.37,0,0,1-1.63.44,7.07,7.07,0,0,1-.95-.06Zm.61,1.93h.55c.64,0,1-.34,1-.79s-.42-.77-1-.77a2.62,2.62,0,0,0-.54,0Zm0,2.26a3.25,3.25,0,0,0,.51,0c.63,0,1.21-.23,1.21-.92s-.55-.91-1.22-.91H699Z" transform="translate(-12.63 -17.72)"/><path class="cls-7" d="M702.23,482.85h.61v4.21h2v.51h-2.63Z" transform="translate(-12.63 -17.72)"/><path class="cls-7" d="M709.29,485.16a2.21,2.21,0,0,1-2.19,2.49,2.16,2.16,0,0,1-2.12-2.4,2.24,2.24,0,0,1,2.19-2.48A2.15,2.15,0,0,1,709.29,485.16Zm-3.66.08c0,1,.55,1.91,1.51,1.91s1.51-.89,1.51-2-.49-1.92-1.51-1.92S705.63,484.2,705.63,485.24Z" transform="translate(-12.63 -17.72)"/><path class="cls-7" d="M713.38,487.42a3,3,0,0,1-1.25.22,2.21,2.21,0,0,1-2.33-2.39,2.35,2.35,0,0,1,2.47-2.48,2.53,2.53,0,0,1,1.12.21l-.15.5a2.22,2.22,0,0,0-1-.2,1.75,1.75,0,0,0-1.84,1.95,1.72,1.72,0,0,0,1.81,1.9,2.44,2.44,0,0,0,1-.2Z" transform="translate(-12.63 -17.72)"/><path class="cls-7" d="M718,485.16a2.21,2.21,0,0,1-2.19,2.49,2.16,2.16,0,0,1-2.12-2.4,2.24,2.24,0,0,1,2.19-2.48A2.15,2.15,0,0,1,718,485.16Zm-3.66.08c0,1,.55,1.91,1.51,1.91s1.51-.89,1.51-2-.49-1.92-1.51-1.92S714.37,484.2,714.37,485.24Z" transform="translate(-12.63 -17.72)"/><path class="cls-7" d="M709.9,495.82a3,3,0,0,1-1.25.22,2.21,2.21,0,0,1-2.33-2.39,2.35,2.35,0,0,1,2.47-2.48,2.53,2.53,0,0,1,1.12.21l-.15.5a2.22,2.22,0,0,0-1-.2,1.75,1.75,0,0,0-1.84,1.95,1.72,1.72,0,0,0,1.81,1.9,2.44,2.44,0,0,0,1-.2Z" transform="translate(-12.63 -17.72)"/><path class="cls-7" d="M810.71,483.52a5.94,5.94,0,0,1,1.11-.1,2,2,0,0,1,1.3.34,1,1,0,0,1,.39.83,1.12,1.12,0,0,1-.8,1h0a1.22,1.22,0,0,1,1,1.18,1.27,1.27,0,0,1-.4.95,2.37,2.37,0,0,1-1.63.44,7.07,7.07,0,0,1-.95-.06Zm.61,1.93h.55c.64,0,1-.34,1-.79s-.42-.77-1-.77a2.62,2.62,0,0,0-.54,0Zm0,2.26a3.25,3.25,0,0,0,.51,0c.63,0,1.21-.23,1.21-.92s-.55-.91-1.22-.91h-.5Z" transform="translate(-12.63 -17.72)"/><path class="cls-7" d="M814.5,483.46h.61v4.21h2v.51H814.5Z" transform="translate(-12.63 -17.72)"/><path class="cls-7" d="M821.57,485.77a2.21,2.21,0,0,1-2.19,2.49,2.16,2.16,0,0,1-2.12-2.4,2.24,2.24,0,0,1,2.19-2.48A2.15,2.15,0,0,1,821.57,485.77Zm-3.66.08c0,1,.55,1.91,1.51,1.91s1.51-.89,1.51-2-.49-1.92-1.51-1.92S817.9,484.81,817.9,485.85Z" transform="translate(-12.63 -17.72)"/><path class="cls-7" d="M825.65,488a3,3,0,0,1-1.25.22,2.21,2.21,0,0,1-2.33-2.39,2.35,2.35,0,0,1,2.47-2.48,2.53,2.53,0,0,1,1.12.21l-.15.5a2.22,2.22,0,0,0-1-.2,1.75,1.75,0,0,0-1.84,1.95,1.72,1.72,0,0,0,1.81,1.9,2.44,2.44,0,0,0,1-.2Z" transform="translate(-12.63 -17.72)"/><path class="cls-7" d="M830.3,485.77a2.21,2.21,0,0,1-2.19,2.49,2.16,2.16,0,0,1-2.12-2.4,2.24,2.24,0,0,1,2.19-2.48A2.15,2.15,0,0,1,830.3,485.77Zm-3.66.08c0,1,.55,1.91,1.51,1.91s1.51-.89,1.51-2-.49-1.92-1.51-1.92S826.64,484.81,826.64,485.85Z" transform="translate(-12.63 -17.72)"/><path class="cls-7" d="M816.11,491.92a5.94,5.94,0,0,1,1.11-.1,2,2,0,0,1,1.3.34,1,1,0,0,1,.39.83,1.12,1.12,0,0,1-.8,1h0a1.22,1.22,0,0,1,1,1.18,1.27,1.27,0,0,1-.4.95,2.37,2.37,0,0,1-1.63.44,7.07,7.07,0,0,1-.95-.06Zm.61,1.93h.55c.64,0,1-.34,1-.79s-.42-.77-1-.77a2.62,2.62,0,0,0-.54,0Zm0,2.26a3.25,3.25,0,0,0,.51,0c.63,0,1.21-.23,1.21-.92s-.55-.91-1.22-.91h-.5Z" transform="translate(-12.63 -17.72)"/><path class="cls-7" d="M821.35,494.46v.46h-1.73v-.46Z" transform="translate(-12.63 -17.72)"/><path class="cls-7" d="M821.88,496.58v-.38l.48-.47c1.16-1.11,1.69-1.69,1.69-2.38a.81.81,0,0,0-.9-.89,1.55,1.55,0,0,0-1,.39l-.2-.43a2,2,0,0,1,1.29-.46,1.28,1.28,0,0,1,1.39,1.32c0,.84-.61,1.52-1.57,2.44l-.36.34h2v.51Z" transform="translate(-12.63 -17.72)"/><path class="cls-7" d="M828.07,667.73a5.94,5.94,0,0,1,1.11-.1,2,2,0,0,1,1.3.34,1,1,0,0,1,.39.83,1.12,1.12,0,0,1-.8,1h0a1.22,1.22,0,0,1,1,1.18,1.27,1.27,0,0,1-.4.95,2.37,2.37,0,0,1-1.63.44,7.07,7.07,0,0,1-.95-.06Zm.61,1.93h.55c.64,0,1-.34,1-.79s-.42-.77-1-.77a2.62,2.62,0,0,0-.54,0Zm0,2.26a3.25,3.25,0,0,0,.51,0c.63,0,1.21-.23,1.21-.92s-.55-.91-1.22-.91h-.5Z" transform="translate(-12.63 -17.72)"/><path class="cls-7" d="M831.87,667.67h.61v4.21h2v.51h-2.63Z" transform="translate(-12.63 -17.72)"/><path class="cls-7" d="M838.93,670a2.21,2.21,0,0,1-2.19,2.49,2.16,2.16,0,0,1-2.12-2.4,2.24,2.24,0,0,1,2.19-2.48A2.15,2.15,0,0,1,838.93,670Zm-3.66.08c0,1,.55,1.91,1.51,1.91s1.51-.89,1.51-2-.49-1.92-1.51-1.92S835.27,669,835.27,670.06Z" transform="translate(-12.63 -17.72)"/><path class="cls-7" d="M843,672.24a3,3,0,0,1-1.25.22,2.21,2.21,0,0,1-2.33-2.39,2.35,2.35,0,0,1,2.47-2.48,2.53,2.53,0,0,1,1.12.21l-.15.5a2.22,2.22,0,0,0-1-.2,1.75,1.75,0,0,0-1.84,1.95,1.72,1.72,0,0,0,1.81,1.9,2.44,2.44,0,0,0,1-.2Z" transform="translate(-12.63 -17.72)"/><path class="cls-7" d="M847.67,670a2.21,2.21,0,0,1-2.19,2.49,2.16,2.16,0,0,1-2.12-2.4,2.24,2.24,0,0,1,2.19-2.48A2.15,2.15,0,0,1,847.67,670Zm-3.66.08c0,1,.55,1.91,1.51,1.91s1.51-.89,1.51-2-.49-1.92-1.51-1.92S844,669,844,670.06Z" transform="translate(-12.63 -17.72)"/><path class="cls-7" d="M850.7,670.91l-.49,1.48h-.63l1.6-4.72h.74l1.61,4.72h-.65l-.5-1.48Zm1.55-.48-.46-1.36c-.1-.31-.18-.59-.25-.86h0c-.07.28-.15.57-.24.85l-.46,1.37Z" transform="translate(-12.63 -17.72)"/><path class="cls-7" d="M755.1,668.3a5.94,5.94,0,0,1,1.11-.1,2,2,0,0,1,1.3.34,1,1,0,0,1,.39.83,1.12,1.12,0,0,1-.8,1h0a1.22,1.22,0,0,1,1,1.18,1.27,1.27,0,0,1-.4.95A2.37,2.37,0,0,1,756,673a7.07,7.07,0,0,1-.95-.06Zm.61,1.93h.55c.64,0,1-.34,1-.79s-.42-.77-1-.77a2.62,2.62,0,0,0-.54,0Zm0,2.26a3.25,3.25,0,0,0,.51,0c.63,0,1.21-.23,1.21-.92s-.55-.91-1.22-.91h-.5Z" transform="translate(-12.63 -17.72)"/><path class="cls-7" d="M758.89,668.24h.61v4.21h2V673h-2.63Z" transform="translate(-12.63 -17.72)"/><path class="cls-7" d="M766,670.55a2.21,2.21,0,0,1-2.19,2.49,2.16,2.16,0,0,1-2.12-2.4,2.24,2.24,0,0,1,2.19-2.48A2.15,2.15,0,0,1,766,670.55Zm-3.66.08c0,1,.55,1.91,1.51,1.91s1.51-.89,1.51-2-.49-1.92-1.51-1.92S762.3,669.59,762.3,670.63Z" transform="translate(-12.63 -17.72)"/><path class="cls-7" d="M770,672.81a3,3,0,0,1-1.25.22,2.21,2.21,0,0,1-2.33-2.39,2.35,2.35,0,0,1,2.47-2.48,2.53,2.53,0,0,1,1.12.21l-.15.5a2.22,2.22,0,0,0-1-.2,1.75,1.75,0,0,0-1.84,1.95,1.72,1.72,0,0,0,1.81,1.9,2.44,2.44,0,0,0,1-.2Z" transform="translate(-12.63 -17.72)"/><path class="cls-7" d="M774.69,670.55A2.21,2.21,0,0,1,772.5,673a2.16,2.16,0,0,1-2.12-2.4,2.24,2.24,0,0,1,2.19-2.48A2.15,2.15,0,0,1,774.69,670.55Zm-3.66.08c0,1,.55,1.91,1.51,1.91s1.51-.89,1.51-2-.49-1.92-1.51-1.92S771,669.59,771,670.63Z" transform="translate(-12.63 -17.72)"/><path class="cls-7" d="M777,668.3a5.94,5.94,0,0,1,1.11-.1,2,2,0,0,1,1.3.34,1,1,0,0,1,.39.83,1.12,1.12,0,0,1-.8,1h0a1.22,1.22,0,0,1,1,1.18,1.27,1.27,0,0,1-.4.95,2.37,2.37,0,0,1-1.63.44,7.07,7.07,0,0,1-.95-.06Zm.61,1.93h.55c.64,0,1-.34,1-.79s-.42-.77-1-.77a2.62,2.62,0,0,0-.54,0Zm0,2.26a3.25,3.25,0,0,0,.51,0c.63,0,1.21-.23,1.21-.92s-.55-.91-1.22-.91h-.5Z" transform="translate(-12.63 -17.72)"/><path class="cls-7" d="M935.34,797.82l-.49,1.48h-.63l1.6-4.72h.74l1.61,4.72h-.65l-.5-1.48Zm1.55-.48-.46-1.36c-.1-.31-.18-.59-.25-.86h0c-.07.28-.15.57-.24.85l-.46,1.37Z" transform="translate(-12.63 -17.72)"/><path class="cls-7" d="M938.86,794.65a8.78,8.78,0,0,1,1.3-.1,2.71,2.71,0,0,1,1.91.59,2.18,2.18,0,0,1,.67,1.7,2.5,2.5,0,0,1-.68,1.83,2.91,2.91,0,0,1-2.09.68,9.8,9.8,0,0,1-1.11-.06Zm.61,4.17a3.81,3.81,0,0,0,.62,0,1.81,1.81,0,0,0,2-2,1.68,1.68,0,0,0-1.91-1.82,3.49,3.49,0,0,0-.71.06Z" transform="translate(-12.63 -17.72)"/><path class="cls-7" d="M947.5,797.23c0-.66-.08-1.45-.07-2h0c-.16.55-.36,1.14-.6,1.79l-.83,2.29h-.46l-.76-2.25c-.22-.67-.41-1.27-.55-1.83h0c0,.59,0,1.38-.09,2.09l-.13,2h-.58l.33-4.72h.78l.81,2.28c.2.58.36,1.1.48,1.59h0c.12-.48.29-1,.5-1.59l.84-2.28h.78l.29,4.72h-.6Z" transform="translate(-12.63 -17.72)"/><path class="cls-7" d="M949.76,794.59v4.72h-.61v-4.72Z" transform="translate(-12.63 -17.72)"/><path class="cls-7" d="M950.82,799.31v-4.72h.67L953,797a13.36,13.36,0,0,1,.85,1.53h0c-.06-.63-.07-1.2-.07-1.94v-2h.57v4.72h-.62l-1.5-2.4a15,15,0,0,1-.88-1.58h0c0,.6,0,1.16,0,1.95v2Z" transform="translate(-12.63 -17.72)"/><path class="cls-7" d="M956,794.59v4.72h-.61v-4.72Z" transform="translate(-12.63 -17.72)"/><path class="cls-7" d="M957,798.56a2.16,2.16,0,0,0,1.09.31c.62,0,1-.33,1-.81s-.25-.69-.89-.94-1.25-.67-1.25-1.34a1.36,1.36,0,0,1,1.53-1.28,2.14,2.14,0,0,1,1,.23l-.17.5a1.88,1.88,0,0,0-.9-.22c-.64,0-.89.39-.89.71s.29.66.94.91,1.2.69,1.2,1.39-.54,1.36-1.65,1.36a2.44,2.44,0,0,1-1.21-.3Z" transform="translate(-12.63 -17.72)"/><path class="cls-7" d="M962,797.19v.46h-1.73v-.46Z" transform="translate(-12.63 -17.72)"/><path class="cls-7" d="M937.28,803.5h-1.44V803h3.49v.52h-1.44v4.2h-.62Z" transform="translate(-12.63 -17.72)"/><path class="cls-7" d="M939.86,803A6.35,6.35,0,0,1,941,803a1.93,1.93,0,0,1,1.37.39,1.18,1.18,0,0,1,.37.9,1.24,1.24,0,0,1-.89,1.2v0a1.18,1.18,0,0,1,.69,1,7.52,7.52,0,0,0,.36,1.3h-.63a6.09,6.09,0,0,1-.31-1.13c-.14-.65-.39-.9-.95-.92h-.57v2h-.61Zm.61,2.15h.62c.65,0,1.06-.36,1.06-.9s-.44-.88-1.09-.88a2.52,2.52,0,0,0-.6.06Z" transform="translate(-12.63 -17.72)"/><path class="cls-7" d="M944.42,806.22l-.49,1.48h-.63l1.6-4.72h.74l1.61,4.72h-.65l-.5-1.48Zm1.55-.48-.46-1.36c-.1-.31-.18-.59-.25-.86h0c-.07.28-.15.57-.24.85l-.46,1.37Z" transform="translate(-12.63 -17.72)"/><path class="cls-7" d="M951.14,807.55a3,3,0,0,1-1.24.22l-.16.28a.56.56,0,0,1,.49.53c0,.41-.36.57-.72.57a1.06,1.06,0,0,1-.5-.12l.1-.31a.84.84,0,0,0,.39.09c.16,0,.29-.06.29-.21s-.22-.27-.55-.3l.29-.54a2.18,2.18,0,0,1-2-2.37,2.35,2.35,0,0,1,2.47-2.48,2.53,2.53,0,0,1,1.12.21l-.15.5a2.22,2.22,0,0,0-1-.2,1.75,1.75,0,0,0-1.84,1.95,1.72,1.72,0,0,0,1.81,1.9,2.44,2.44,0,0,0,1-.2Z" transform="translate(-12.63 -17.72)"/><path class="cls-7" d="M952.69,806.22l-.49,1.48h-.63l1.6-4.72h.74l1.61,4.72h-.65l-.5-1.48Zm0-3.52c0-.43.17-.71.48-.71a.88.88,0,0,1,.42.14.74.74,0,0,0,.33.13c.11,0,.17,0,.19-.27h.33c0,.44-.15.68-.48.68a1,1,0,0,1-.43-.13.77.77,0,0,0-.33-.13c-.11,0-.16.12-.18.31Zm1.55,3-.46-1.36c-.1-.31-.18-.59-.25-.86h0c-.07.28-.15.57-.24.85l-.46,1.37Z" transform="translate(-12.63 -17.72)"/><path class="cls-7" d="M960.14,805.3a2.21,2.21,0,0,1-2.19,2.49,2.16,2.16,0,0,1-2.12-2.4,2.24,2.24,0,0,1,2.19-2.48A2.15,2.15,0,0,1,960.14,805.3Zm-3.66.08c0,1,.55,1.91,1.51,1.91s1.51-.89,1.51-2-.49-1.92-1.51-1.92S956.48,804.34,956.48,805.38Z" transform="translate(-12.63 -17.72)"/><path class="cls-7" d="M749.12,790.46a6,6,0,0,1,1-.08,1.64,1.64,0,0,1,1.12.34,1.09,1.09,0,0,1,.35.85,1.19,1.19,0,0,1-.31.86,1.65,1.65,0,0,1-1.23.44,1.78,1.78,0,0,1-.42,0v1.62h-.52Zm.52,1.95a1.71,1.71,0,0,0,.43,0c.63,0,1-.31,1-.86s-.37-.79-.95-.79a2.16,2.16,0,0,0-.49,0Z" transform="translate(-12.63 -17.72)"/><path class="cls-7" d="M752.28,790.47a5.34,5.34,0,0,1,1-.08,1.63,1.63,0,0,1,1.16.33,1,1,0,0,1,.32.77,1.06,1.06,0,0,1-.76,1v0a1,1,0,0,1,.59.82,6.44,6.44,0,0,0,.31,1.11h-.54a5.28,5.28,0,0,1-.27-1c-.12-.56-.33-.77-.8-.79h-.49v1.75h-.52Zm.52,1.84h.53c.55,0,.9-.31.9-.77s-.37-.75-.92-.76a2.12,2.12,0,0,0-.51,0Z" transform="translate(-12.63 -17.72)"/><path class="cls-7" d="M758.93,792.39a1.89,1.89,0,0,1-1.86,2.13,1.85,1.85,0,0,1-1.8-2.05,1.91,1.91,0,0,1,1.86-2.12A1.83,1.83,0,0,1,758.93,792.39Zm-3.11.07c0,.86.46,1.64,1.28,1.64s1.29-.76,1.29-1.68-.42-1.64-1.28-1.64S755.81,791.57,755.81,792.46Z" transform="translate(-12.63 -17.72)"/><path class="cls-7" d="M759.6,790.41h2.16v.44h-1.64v1.34h1.52v.43h-1.52v1.83h-.52Z" transform="translate(-12.63 -17.72)"/><path class="cls-7" d="M764.57,792.56H763V794h1.74v.44H762.5v-4h2.17v.44H763v1.28h1.56Z" transform="translate(-12.63 -17.72)"/><path class="cls-7" d="M765.35,793.82a1.82,1.82,0,0,0,.93.26c.53,0,.84-.28.84-.69s-.21-.59-.76-.8-1.06-.58-1.06-1.15a1.16,1.16,0,0,1,1.3-1.1,1.81,1.81,0,0,1,.89.2l-.14.43a1.59,1.59,0,0,0-.76-.19c-.55,0-.76.33-.76.61s.24.56.8.78,1,.59,1,1.19-.46,1.16-1.4,1.16a2.06,2.06,0,0,1-1-.26Z" transform="translate(-12.63 -17.72)"/><path class="cls-7" d="M768.29,793.82a1.82,1.82,0,0,0,.93.26c.53,0,.84-.28.84-.69s-.21-.59-.76-.8-1.06-.58-1.06-1.15a1.16,1.16,0,0,1,1.3-1.1,1.81,1.81,0,0,1,.89.2l-.14.43a1.59,1.59,0,0,0-.76-.19c-.55,0-.76.33-.76.61s.24.56.8.78,1,.59,1,1.19-.46,1.16-1.4,1.16a2.06,2.06,0,0,1-1-.26Z" transform="translate(-12.63 -17.72)"/><path class="cls-7" d="M774.72,792.39a1.89,1.89,0,0,1-1.86,2.13,1.85,1.85,0,0,1-1.8-2.05,1.91,1.91,0,0,1,1.86-2.12A1.83,1.83,0,0,1,774.72,792.39Zm-3.11.07c0,.86.46,1.64,1.28,1.64s1.29-.76,1.29-1.68-.42-1.64-1.28-1.64S771.61,791.57,771.61,792.46Z" transform="translate(-12.63 -17.72)"/><path class="cls-7" d="M775.39,790.47a5.34,5.34,0,0,1,1-.08,1.63,1.63,0,0,1,1.16.33,1,1,0,0,1,.32.77,1.06,1.06,0,0,1-.76,1v0a1,1,0,0,1,.59.82,6.44,6.44,0,0,0,.31,1.11h-.54a5.28,5.28,0,0,1-.27-1c-.12-.56-.33-.77-.8-.79h-.49v1.75h-.52Zm.52,1.84h.53c.55,0,.9-.31.9-.77s-.37-.75-.92-.76a2.12,2.12,0,0,0-.51,0Z" transform="translate(-12.63 -17.72)"/><path class="cls-7" d="M780.67,792.56h-1.56V794h1.74v.44h-2.26v-4h2.17v.44h-1.65v1.28h1.56Z" transform="translate(-12.63 -17.72)"/><path class="cls-7" d="M781.45,793.82a1.82,1.82,0,0,0,.93.26c.53,0,.84-.28.84-.69s-.21-.59-.76-.8-1.06-.58-1.06-1.15a1.16,1.16,0,0,1,1.3-1.1,1.81,1.81,0,0,1,.89.2l-.14.43a1.59,1.59,0,0,0-.76-.19c-.55,0-.76.33-.76.61s.24.56.8.78,1,.59,1,1.19-.46,1.16-1.4,1.16a2.06,2.06,0,0,1-1-.26Z" transform="translate(-12.63 -17.72)"/><path class="cls-9" d="M873.46,1027a6,6,0,0,1,1-.08,1.66,1.66,0,0,1,1.13.34,1.09,1.09,0,0,1,.35.85,1.19,1.19,0,0,1-.31.86,1.67,1.67,0,0,1-1.23.44,1.8,1.8,0,0,1-.42,0V1031h-.52ZM874,1029a1.73,1.73,0,0,0,.43,0c.63,0,1-.31,1-.86s-.38-.79-1-.79a2.19,2.19,0,0,0-.49,0Z" transform="translate(-12.63 -17.72)"/><path class="cls-9" d="M876.65,1027a5.42,5.42,0,0,1,1-.08,1.65,1.65,0,0,1,1.17.33,1,1,0,0,1,.32.77,1.06,1.06,0,0,1-.76,1v0a1,1,0,0,1,.59.82,6.42,6.42,0,0,0,.31,1.11h-.54a5.18,5.18,0,0,1-.27-1c-.12-.56-.34-.77-.81-.79h-.49V1031h-.52Zm.52,1.84h.53c.56,0,.91-.31.91-.77s-.38-.75-.93-.76a2.15,2.15,0,0,0-.52,0Z" transform="translate(-12.63 -17.72)"/><path class="cls-9" d="M880.56,1029.73l-.42,1.27h-.54l1.37-4h.63l1.38,4h-.56l-.43-1.27Zm1.33-.41-.4-1.16c-.09-.26-.15-.5-.21-.74h0c-.06.24-.13.49-.2.73l-.4,1.17Z" transform="translate(-12.63 -17.72)"/><path class="cls-9" d="M886.31,1030.87a2.56,2.56,0,0,1-1.06.19l-.14.24a.48.48,0,0,1,.42.45c0,.35-.31.49-.62.49a.91.91,0,0,1-.43-.1l.08-.27a.71.71,0,0,0,.34.08c.14,0,.25-.05.25-.18s-.19-.23-.47-.26l.25-.46a1.87,1.87,0,0,1-1.7-2,2,2,0,0,1,2.11-2.12,2.16,2.16,0,0,1,1,.18l-.13.43a1.9,1.9,0,0,0-.82-.17,1.5,1.5,0,0,0-1.58,1.67,1.47,1.47,0,0,0,1.55,1.63,2.09,2.09,0,0,0,.85-.17Z" transform="translate(-12.63 -17.72)"/><path class="cls-9" d="M887.65,1029.73l-.42,1.27h-.54l1.37-4h.63l1.38,4h-.56l-.43-1.27Zm1.33-.41-.4-1.16c-.09-.26-.15-.5-.21-.74h0c-.06.24-.13.49-.2.73l-.4,1.17Z" transform="translate(-12.63 -17.72)"/></g></svg>