<?xml version="1.0" encoding="utf-8"?>
<!-- Generator: Adobe Illustrator 20.1.0, SVG Export Plug-In . SVG Version: 6.00 Build 0)  -->
<svg version="1.1" id="Camada_6" xmlns="http://www.w3.org/2000/svg" xmlns:xlink="http://www.w3.org/1999/xlink" x="0px" y="0px"
	 viewBox="0 0 1311.5 1072.1" style="enable-background:new 0 0 1311.5 1072.1;" xml:space="preserve">
<style type="text/css">
	.st0{fill:none;}
	.st1{fill:none;stroke:#211915;stroke-width:0.3;}
	.st2{fill:#FFFFFF;stroke:#000000;stroke-width:0.75;stroke-miterlimit:10;}
	.st3{fill:none;stroke:#000000;stroke-width:0.75;stroke-miterlimit:10;}
	.st4{fill:none;stroke:#000000;stroke-miterlimit:10;}
	.st5{fill:url(#SVGID_1_);stroke:#5B5B5B;stroke-miterlimit:10;}
	.st6{fill:url(#SVGID_2_);stroke:#5B5B5B;stroke-miterlimit:10;}
	.st7{fill:#D3D3D3;stroke:#B5B5B5;stroke-miterlimit:10;}
	.st8{fill:#0DBA88;stroke:#076059;stroke-miterlimit:10;}
	.st9{fill:#FFFFFF;}
	.st10{fill:#8E8E8E;}
</style>
<pattern  y="1072.1" width="72" height="72" patternUnits="userSpaceOnUse" id="Linhas_de_1_paica_de_grade" viewBox="72.3 -144.3 72 72" style="overflow:visible;">
	<g>
		<rect x="72.3" y="-144.3" class="st0" width="72" height="72"/>
		<rect x="72.3" y="-144.3" class="st0" width="72" height="72"/>
		<line class="st1" x1="78.3" y1="-144" x2="78.3" y2="-216.5"/>
		<line class="st1" x1="102.3" y1="-144" x2="102.3" y2="-216.5"/>
		<line class="st1" x1="126.3" y1="-144" x2="126.3" y2="-216.5"/>
		<line class="st1" x1="90.3" y1="-144" x2="90.3" y2="-216.5"/>
		<line class="st1" x1="114.3" y1="-144" x2="114.3" y2="-216.5"/>
		<line class="st1" x1="138.3" y1="-144" x2="138.3" y2="-216.5"/>
		<line class="st1" x1="144" y1="-138.3" x2="216.5" y2="-138.3"/>
		<line class="st1" x1="144" y1="-114.3" x2="216.5" y2="-114.3"/>
		<line class="st1" x1="144" y1="-90.3" x2="216.5" y2="-90.3"/>
		<line class="st1" x1="144" y1="-126.3" x2="216.5" y2="-126.3"/>
		<line class="st1" x1="144" y1="-102.3" x2="216.5" y2="-102.3"/>
		<line class="st1" x1="144" y1="-78.3" x2="216.5" y2="-78.3"/>
		<line class="st1" x1="78.3" y1="-72" x2="78.3" y2="-144.5"/>
		<line class="st1" x1="102.3" y1="-72" x2="102.3" y2="-144.5"/>
		<line class="st1" x1="126.3" y1="-72" x2="126.3" y2="-144.5"/>
		<line class="st1" x1="72" y1="-138.3" x2="144.5" y2="-138.3"/>
		<line class="st1" x1="72" y1="-114.3" x2="144.5" y2="-114.3"/>
		<line class="st1" x1="72" y1="-90.3" x2="144.5" y2="-90.3"/>
		<line class="st1" x1="72" y1="-126.3" x2="144.5" y2="-126.3"/>
		<line class="st1" x1="72" y1="-102.3" x2="144.5" y2="-102.3"/>
		<line class="st1" x1="72" y1="-78.3" x2="144.5" y2="-78.3"/>
		<line class="st1" x1="90.3" y1="-72" x2="90.3" y2="-144.5"/>
		<line class="st1" x1="114.3" y1="-72" x2="114.3" y2="-144.5"/>
		<line class="st1" x1="138.3" y1="-72" x2="138.3" y2="-144.5"/>
		<line class="st1" x1="0" y1="-138.3" x2="72.5" y2="-138.3"/>
		<line class="st1" x1="0" y1="-114.3" x2="72.5" y2="-114.3"/>
		<line class="st1" x1="0" y1="-90.3" x2="72.5" y2="-90.3"/>
		<line class="st1" x1="0" y1="-126.3" x2="72.5" y2="-126.3"/>
		<line class="st1" x1="0" y1="-102.3" x2="72.5" y2="-102.3"/>
		<line class="st1" x1="0" y1="-78.3" x2="72.5" y2="-78.3"/>
		<line class="st1" x1="78.3" y1="0" x2="78.3" y2="-72.5"/>
		<line class="st1" x1="102.3" y1="0" x2="102.3" y2="-72.5"/>
		<line class="st1" x1="126.3" y1="0" x2="126.3" y2="-72.5"/>
		<line class="st1" x1="90.3" y1="0" x2="90.3" y2="-72.5"/>
		<line class="st1" x1="114.3" y1="0" x2="114.3" y2="-72.5"/>
		<line class="st1" x1="138.3" y1="0" x2="138.3" y2="-72.5"/>
	</g>
</pattern>
<pattern  y="1072.1" width="72" height="72" patternUnits="userSpaceOnUse" id="Linhas_de_1_paica_de_grade-3" viewBox="72.3 -144.3 72 72" style="overflow:visible;">
	<g>
		<rect x="72.3" y="-144.3" class="st0" width="72" height="72"/>
		<rect x="72.3" y="-144.3" class="st0" width="72" height="72"/>
		<line class="st1" x1="78.3" y1="-144" x2="78.3" y2="-216.5"/>
		<line class="st1" x1="102.3" y1="-144" x2="102.3" y2="-216.5"/>
		<line class="st1" x1="126.3" y1="-144" x2="126.3" y2="-216.5"/>
		<line class="st1" x1="90.3" y1="-144" x2="90.3" y2="-216.5"/>
		<line class="st1" x1="114.3" y1="-144" x2="114.3" y2="-216.5"/>
		<line class="st1" x1="138.3" y1="-144" x2="138.3" y2="-216.5"/>
		<line class="st1" x1="144" y1="-138.3" x2="216.5" y2="-138.3"/>
		<line class="st1" x1="144" y1="-114.3" x2="216.5" y2="-114.3"/>
		<line class="st1" x1="144" y1="-90.3" x2="216.5" y2="-90.3"/>
		<line class="st1" x1="144" y1="-126.3" x2="216.5" y2="-126.3"/>
		<line class="st1" x1="144" y1="-102.3" x2="216.5" y2="-102.3"/>
		<line class="st1" x1="144" y1="-78.3" x2="216.5" y2="-78.3"/>
		<line class="st1" x1="78.3" y1="-72" x2="78.3" y2="-144.5"/>
		<line class="st1" x1="102.3" y1="-72" x2="102.3" y2="-144.5"/>
		<line class="st1" x1="126.3" y1="-72" x2="126.3" y2="-144.5"/>
		<line class="st1" x1="72" y1="-138.3" x2="144.5" y2="-138.3"/>
		<line class="st1" x1="72" y1="-114.3" x2="144.5" y2="-114.3"/>
		<line class="st1" x1="72" y1="-90.3" x2="144.5" y2="-90.3"/>
		<line class="st1" x1="72" y1="-126.3" x2="144.5" y2="-126.3"/>
		<line class="st1" x1="72" y1="-102.3" x2="144.5" y2="-102.3"/>
		<line class="st1" x1="72" y1="-78.3" x2="144.5" y2="-78.3"/>
		<line class="st1" x1="90.3" y1="-72" x2="90.3" y2="-144.5"/>
		<line class="st1" x1="114.3" y1="-72" x2="114.3" y2="-144.5"/>
		<line class="st1" x1="138.3" y1="-72" x2="138.3" y2="-144.5"/>
		<line class="st1" x1="0" y1="-138.3" x2="72.5" y2="-138.3"/>
		<line class="st1" x1="0" y1="-114.3" x2="72.5" y2="-114.3"/>
		<line class="st1" x1="0" y1="-90.3" x2="72.5" y2="-90.3"/>
		<line class="st1" x1="0" y1="-126.3" x2="72.5" y2="-126.3"/>
		<line class="st1" x1="0" y1="-102.3" x2="72.5" y2="-102.3"/>
		<line class="st1" x1="0" y1="-78.3" x2="72.5" y2="-78.3"/>
		<line class="st1" x1="78.3" y1="0" x2="78.3" y2="-72.5"/>
		<line class="st1" x1="102.3" y1="0" x2="102.3" y2="-72.5"/>
		<line class="st1" x1="126.3" y1="0" x2="126.3" y2="-72.5"/>
		<line class="st1" x1="90.3" y1="0" x2="90.3" y2="-72.5"/>
		<line class="st1" x1="114.3" y1="0" x2="114.3" y2="-72.5"/>
		<line class="st1" x1="138.3" y1="0" x2="138.3" y2="-72.5"/>
	</g>
</pattern>
<g id="Camada_2_1_">
	<path class="st2" d="M638,241c0,0,16.5-62.5-21.5-90.5s-59-30.5-133.5-36"/>
	<path class="st3" d="M646.5,240.5c0,0,18.5-66-22.5-93c-28.5-27.5-51-34.5-139-42"/>
	<polyline class="st3" points="655.7,288.4 776.5,294.5 780,202 787.5,203.4 783.2,298.9 	"/>
	<polyline class="st3" points="487.1,-27.4 674.6,28.1 1369.1,347.6 1379.6,485.6 1358.6,469.1 1102.1,934.1 1054.9,941.3 	"/>
	<polygon class="st3" points="370.1,-22.9 316.1,289.1 -18.4,269.6 -27.4,176.6 319.1,-63.4 	"/>
	<polygon class="st3" points="672,926.5 507.3,905.3 507.3,900.7 672.4,923.3 	"/>
	<polygon class="st3" points="401.3,383.3 538,388.7 530,524.7 392.7,519.3 	"/>
	<polygon class="st3" points="436.7,422.7 497.3,424.7 496.7,484.7 434.7,484.7 	"/>
	<polyline class="st3" points="507.3,900.7 568,535.3 187.3,510 	"/>
	<polyline class="st4" points="507.3,905.3 456,888.7 162.7,847.3 	"/>
	<polyline class="st3" points="531.5,753.5 589.5,755.5 590,821 575.5,821.5 576.5,893.5 560.5,892 558.5,905.5 	"/>
	<polyline class="st3" points="523,880.5 526.5,880.5 524.5,901 	"/>
	<polyline class="st3" points="515,850.5 534.5,854 543.5,817.5 522.5,814.5 575.5,821.5 	"/>
	<line class="st3" x1="589.5" y1="800" x2="525" y2="797"/>
	<path class="st3" d="M790.5,919.5c0,0,56.5,8.5,181-32"/>
	<path class="st3" d="M844,936c0,0,42.2-3.1,111.4-26.5c34.6-5.5,47.1,28,47.1,28"/>
	<path class="st3" d="M857.5,869.5c0,0,78.5,10,84,10s7-1,3-6.5s-65-94-65-94l-0.5-6h6l1,6l25,37h5.5c0,0-1.5,6,2.5,12.5
		s28,39.8,33.5,47C963,887.3,987,883,986.8,863s0-110.3,0-110.3"/>
	<path class="st3" d="M876.3,877.3l93.5,10.8c16.5-1.5,23.3-16.6,22.8-22.6"/>
	<path class="st3" d="M872.8,682.8c0,0,2.5-4,6.5-1.5s7.5,1.8,11.5-2.3s15.3,1,15.3,1"/>
	<polyline class="st3" points="206.5,588 216,540.5 500,584.5 456,888.7 	"/>
	<polyline class="st3" points="286.4,600.5 291.5,564.5 486,593 446,873 230.5,842.5 250.4,717 	"/>
	<polyline class="st3" points="201,616 156.5,847 -7.5,827.5 	"/>
</g>
<g id="Camada_5">
	<pattern  id="SVGID_1_" xlink:href="#Linhas_de_1_paica_de_grade" patternTransform="matrix(0.3 0 0 -0.3 -5218.3447 -10937.541)">
	</pattern>
	<path class="st5" d="M844.7,924.6l-1.3,17.7l-191.8-22.7c0,0-15.2-1.7-16.5-22.5l-5.3-656.2l61,2.8l-0.3,19l-41.7-1.2l2.5,25.8
		l5.2,9.2l127,9.5l261.2,11c0,0,33,1.2,49.5,34.7c6,13.8,10.2,31.2,10.3,42.5h12.3l1.5,397.5H1105l0.7,53.3c0,0,1.3,37-29.5,58
		c0,0-23.5,11.7-18.3,22.5l1.3,14.8l-4.3,0.8l0.2,2.2l-11.2,1.5l-0.8-2.3l-5.3,0.7l-1.7-24.3h-1.5l2,24.3l-32,4l-4.7-38
		c-0.3-14.8,1.6-29.6,5.5-43.8h-12.8V752.8h59.3v-361h11.3c0,0,0.8-46.8-22.8-52.7s-32.8-5.8-32.8-5.8l-0.3,12.2l-322.7-12.3
		l0.5-12.8l-25.7-1c0,0-10.3,0.8-10.7,5s-0.3,7.7-0.3,7.7h11l1.2,89.5l-11.5,0.7v2.5h11.2l1,92.2h-11.8v2.5h12l0.8,92.8h-12.5v2.7
		h12.5l0.8,92.5h-12.2v3h12.3l0.7,69.2l-12.7,0.2l0.5,21.8l-5.7,10.8l0.3,8.2l5.7,14.2l1,61.2c0,0-1,8.8,10,9.7l81.5,9.2l1.2-12.7
		l44.8,4.8v12.7L844.7,924.6z"/>
	
		<pattern  id="SVGID_2_" xlink:href="#Linhas_de_1_paica_de_grade-3" patternTransform="matrix(0.3 0 0 -0.3 -5233.5249 -10918.5313)">
	</pattern>
	<path class="st6" d="M1071.7,943.6l-27.7,3.5l-0.8-3.3l-38.8,4.8L979,963.3l-298-37l0.7,30.3c12,41.7,0.3,85,0.3,85v30l397.7-2.3
		c-52-23.7-18-94,0-99C1095.7,961.3,1071.7,943.6,1071.7,943.6z M711.7,998.4c-1.5,10.3-4,29.7-8.5,29.7s-3-32.7-3-32.7
		s2-30.5,7-31.2S713.2,988.1,711.7,998.4L711.7,998.4z M1006.2,1041.6l-2,2.8l-261.3-1l-10-6.2l-4.8-14l3-45.2l4.3-11.8l10.3-7.7
		l51,6l209.2,25l2.3,5.8L1006.2,1041.6z M1032.4,1043.9c-3.1,0-5.7-12-5.7-26.8s2.5-26.8,5.7-26.8s5.7,12,5.7,26.8
		C1038,1031.9,1035.5,1044,1032.4,1043.9L1032.4,1043.9z"/>
</g>
<g id="Camada_4">
	<path class="st7" d="M848.1,688.9c4.9-1.5,11.4-6,11.4-6c13.1-15.4,31-8.9,36.6-4.4c16.2,2.4,5.4,14.7,5.4,14.7
		c-7.9,10.5,0.6,15.7,0.6,15.7v35.3h10.2v-24.8h6.5v-20.3h-4.8c-12.8-19.8,15.8-30.5,17.5-27.3v67.3l12.3,3.3l6.8-84.8l10.3-0.3h2.8
		l0.3-55.8l-32.5-0.5l-0.8,17l-7.3,0.3c-1.8,7.8-7.8,8.8-7.8,8.8c-12.8,11-5.3,22.5-6.8,27.3s-2.3,13-6.8,12
		c-7.3-0.8-20-11.3-35.8-5.8c-13.3,8-10.3-11.5-10.3-11.5l-8.8-0.8L848.1,688.9z"/>
	<polygon class="st7" points="1015,751.6 1015,756.5 1030.9,756.5 1030.9,750.5 	"/>
	<path class="st7" d="M969.9,914c0,0-2.7,0-14.5-4.5s-86.2-34.7-86.2-34.7s-12-5.8-24.3-5.2c0,0,10.8-44.5,57.2-51.2h14.8v-5.8h38
		v-9.7l38,2.3v-2.8l-42.7-2.8l-22.8-43.2l-11-1.2v41.3c0,0-3.8-1-3.5,8.2c0,0-2.2,9.7-14.8,10.7s-28,9.8-36,15.5s-22.7,5.2-22.7,5.2
		v-19.7l-1.8-0.2v-2.2h-2.2v62.3l5.8,5.2l2.2-6.8c7.6-0.7,15.3,0.7,22.2,4c12.8,4.8,94,37.2,94,37.2s6.8,2.7,19.7,2.7h21.2v-4.8
		L969.9,914z M838.2,868.6l-0.3-27.7c0,0,9.7,0.7,9.5,9.2S838.2,868.6,838.2,868.6z"/>
	<path class="st7" d="M891.5,840.1c-4.9,0-8.8,4-8.8,8.8c0,4.9,4,8.8,8.8,8.8c4.9,0,8.8-4,8.8-8.8S896.4,840.1,891.5,840.1
		C891.5,840.1,891.5,840.1,891.5,840.1z M891.4,854.6c-3.1,0-5.7-2.5-5.7-5.7c0-3.1,2.5-5.7,5.7-5.7c3.1,0,5.7,2.5,5.7,5.7
		c0,0,0,0,0,0C897,852.1,894.5,854.6,891.4,854.6z"/>
	<polyline class="st7" points="661.9,574.3 687.5,574.3 687.5,583 661.5,583 	"/>
	<polygon class="st7" points="688.9,607.1 662.2,607.3 662.2,612.1 688.4,611.6 	"/>
	<path class="st7" d="M685.5,798.6l0.5-41.3c0,0-0.3-8.5,6-12.3s4.5-0.8,4.5-0.8V799C696.5,799,685.5,798.1,685.5,798.6z"/>
	<path class="st7" d="M695.9,828.5c0,0-0.8,16.7,22.8,19.3l-14.3,12.8l4.5-0.5l72.2-60.7c0,0,11.8-8.5,12-18.3s-0.2-29.3-0.2-29.3
		L790,752l0.3,30c0,0,0.7,5.8-10.3,14.7s-56,47.2-56,47.2s-21,0.7-23.3-15.3L695.9,828.5z"/>
	<polygon class="st7" points="744.2,535.6 753.9,535.1 753.9,522 756.9,521.5 756.9,538 744,538.6 	"/>
	<polygon class="st7" points="737.7,558.6 737.7,554.1 661.5,554.3 661.7,548.6 737.7,548.5 738,523.3 745.5,523.5 745.2,548.8 
		774.4,549.1 774.5,561 	"/>
	<polygon class="st7" points="678.4,320 677,367.8 670.2,367.8 671.7,319.8 	"/>
	<polygon class="st7" points="790.2,337.3 788.4,372.3 795.4,372.1 796.5,337.1 	"/>
	<path class="st7" d="M665.7,294.1c-12,0.7-10-5.7-10-5.7l0.3-26.7l-7.3-0.2c0,0-0.8,17.5,0,28.3s10.7,11.2,10.7,11.2l124,5
		l-0.2-7.2L665.7,294.1z"/>
	<path class="st7" d="M672,926.5l0.3-3.2l181.5,21.8l2.3-5.2l76.2,9.3l1.2,6.3c0,0,4.8,0.8,13-0.3s58.8-7.5,58.8-7.5l-9.2,13.3
		c0,0-2,6.5-13.3,4.2L672,926.5z"/>
	<polygon class="st7" points="1117.2,408.3 1117.2,413.3 1160,411.8 1159.7,406.2 	"/>
	<polygon class="st7" points="1117.4,471.9 1117.4,466.8 1163,464.2 1163.5,469.4 	"/>
	<polygon class="st7" points="1117.2,532 1147.9,530.3 1148.4,539.3 1117.2,540.8 	"/>
	<polygon class="st7" points="1140.9,542.9 1149,542.7 1151.4,581.4 1142.9,581.9 	"/>
	<polygon class="st7" points="1117.5,587.4 1151.5,585.9 1152.1,592.8 1117,595 	"/>
	<path class="st7" d="M1009.5,999.1c0-12.5-10.7-12.8-10.7-12.8l-248.2-29.2c-21-2.7-22.2,16.7-22.2,16.7l-3.2,26.8l-0.5,21
		c-0.7,25.3,18.5,24.2,18.5,24.2l253.7,1c13,1.8,11.3-9.2,11.3-9.2S1009.5,1011.6,1009.5,999.1z M990.1,1040.9l-241-4.1
		c0,0-18.2,0.7-17.3-19.8l0.7-17l3.3-21.6c0,0,1.3-15.6,21.2-13.2L992.5,992c0,0,10.1,0.4,10,10.5c-0.1,10.1-1.5,31.1-1.5,31.1
		S1002.5,1042.5,990.1,1040.9L990.1,1040.9z"/>
</g>
<g id="Camada_2">
	<polygon class="st8" points="1011.2,922.8 1025.2,920.9 1028,944.5 1014.2,946.4 	"/>
	<polygon class="st8" points="943.2,950.2 952.6,950.2 953.6,939.8 943.2,939.8 	"/>
	<rect x="754.1" y="836.4" class="st8" width="25.5" height="24.9"/>
	<polygon class="st8" points="684.9,865.3 684.9,906 734.8,906 734.8,865.3 703.3,865.3 	"/>
	<polygon class="st8" points="703.1,858.7 716.9,858.7 716.9,862 716.9,865.3 703.3,865.3 	"/>
	<polygon class="st8" points="719.7,862 719.7,858.7 724.6,858.7 724.6,865.3 716.9,865.3 716.9,862 	"/>
	<rect x="734.8" y="893.9" class="st8" width="3.8" height="10.8"/>
	<polygon class="st8" points="731,794.5 777.1,794.5 777.1,790.5 772.6,790.5 772.6,755.6 735.6,755.6 735.6,790.3 731,790.3 	"/>
	<polygon class="st8" points="1147.4,520 1152.7,604.8 1243,599 1243,595.7 1260.6,594.4 1260.6,587.2 1264.7,586.5 1264.7,584.8 
		1277,583.8 1277,581 1272.3,580.8 1272.7,576.7 1281.9,575.9 1279.3,533 1270,533.6 1270,529.4 1274,528.9 1274.2,525.5 
		1261.3,526.6 1261.3,524.9 1256.8,524.9 1256.4,516.8 1238.5,518.1 1238.5,514.3 	"/>
	<polygon class="st8" points="1159.1,390.9 1305.9,383 1311,475.9 1164.2,485 	"/>
	<polygon class="st8" points="1032.4,376.6 1043.5,376.6 1044.6,475.2 1033.5,476.3 	"/>
	<polygon class="st8" points="809,368.8 1002.5,370.2 1002.5,391.8 991.2,391.8 990.9,421.8 819.5,420.4 820.1,390.9 809,390.6 	"/>
	<polygon class="st8" points="677,345.9 789.5,350.4 788,387.8 675.3,383.5 	"/>
	<polygon class="st8" points="690,266.3 692,197.7 693.4,197.7 693.4,188.9 687.2,188.9 688.6,157.8 691.5,157.8 692,152.1 
		694.6,152.1 694.6,149.6 790,154.4 787.5,203.4 759.7,203.4 756.3,269.7 	"/>
	<polygon class="st8" points="688.2,560.3 717.5,559.6 717.9,626.9 688.2,626.9 	"/>
	<polygon class="st8" points="684.2,633.7 718.5,633.7 718.5,680.1 699.8,680.1 700,678.2 684.2,678.3 	"/>
	<polygon class="st8" points="189.5,613 192.6,588.9 221.5,593.2 217.8,617.3 	"/>
	<polygon class="st8" points="46.2,591.8 61.7,590.3 61.7,596 46.2,597.1 	"/>
	<polygon class="st8" points="93.4,761.4 95.2,737.6 106.2,738.8 107.9,725.2 124.1,726.6 122.9,741.6 117.8,741.3 116.7,761.4 
		120.9,761.4 120.4,776.5 103.7,776.5 103.9,762 	"/>
	<polygon class="st8" points="0.5,661.4 4.8,607.3 6.2,607.3 6.2,609.9 107.1,600.5 107.1,598.5 108.8,598.5 110.4,620.1 
		108.8,625.2 105.3,669.9 101.1,678.4 110.4,672.8 115,666.8 117,660.9 117,649.5 114.1,628.3 120.7,624.9 124.1,632.8 127.2,641.3 
		128.6,653.2 126.9,666.3 121.8,677.3 114.7,684.1 106.5,689.5 96.8,692.3 89.2,692.3 88.3,696.8 134,693.7 136.5,719.5 82.1,715 
		77,776.5 80.4,776.5 79.9,778.2 51.5,776.5 51.5,773.9 54.7,773.9 64.8,664.3 	"/>
	<polygon class="st8" points="238.8,609.3 284.1,617.3 286.4,600.5 340.2,608.9 335.1,647 324.3,645.6 322.6,663.4 404.2,674.8 
		401.1,702.2 426.9,705.6 422.6,736.8 396.6,733.7 392.9,758.9 418.9,762 414.4,793.7 306.5,778.7 304.8,790.6 299.7,789.2 
		294.3,820.6 266.3,817 271.4,784.4 274.2,784.4 279.7,749 259.5,745.8 262.7,722.8 259.2,721.8 259.7,718.7 250.4,717 252.6,700.3 
		230.8,697.1 234.2,678.2 227.4,677 	"/>
	<polygon class="st8" points="515.3,863.5 525.4,865.9 520.4,889.3 511.2,887.7 	"/>
	<polygon class="st8" points="543.4,881.1 552,884.8 570.9,838.5 562.2,834.5 	"/>
	<polygon class="st8" points="601.2,829.3 607.8,829.3 607.8,847.3 600.9,847.3 	"/>
	<polygon class="st8" points="619.1,829.3 630,829.8 630,845 619.1,845.4 	"/>
	<polygon class="st8" points="615,759 630.3,759 629.8,802.5 614.4,802.5 	"/>
	<polygon class="st8" points="614.8,750.8 614.8,740.3 630.3,739.9 630.3,750.4 	"/>
	<polygon class="st8" points="587.8,754.8 588.3,737.5 613,737.1 612.8,754.8 	"/>
	<polygon class="st8" points="579.1,735.9 578.6,723.8 617.3,723.3 617.7,735.1 	"/>
	<polygon class="st8" points="560,715.9 568.2,715.9 568.2,723.3 559.7,723.3 	"/>
	<polygon class="st8" points="587.4,718.9 587.4,702.1 618,701.7 618,718.5 	"/>
	<polygon class="st8" points="803.1,556.9 853.6,555.9 853.6,573.3 803.1,573.3 	"/>
	<polygon class="st8" points="808.4,738.9 848.7,738.9 848,573.3 807.7,573.3 	"/>
	<polygon class="st8" points="856.2,728.3 856.2,698.1 860.6,698.1 860.6,682.7 874.2,682.7 874.2,685.9 896.4,686.4 896.4,714 
		901.5,714 901.5,709 907,709.2 907,738.9 869.3,738.9 869.3,728.2 	"/>
	<rect x="868.8" y="755.6" class="st8" width="29" height="20"/>
	<path class="st8" d="M835.2,755.6l0.1,58.5h0.7v61h5.8v6.8h-2.1c0,0-3,4.1,2.8,13.5s-3,16-3,16H796l-0.7-6.5l-1-0.4v-23.8l2-0.1
		l0.1-124.9H835.2z"/>
	<polygon class="st8" points="729.4,557.2 774.2,557.2 774.7,738.9 734.2,738.9 734.1,598.3 729.4,598 	"/>
	<polygon class="st8" points="731,738.9 731,755.6 963.1,755.6 963.1,753.2 1031.1,752.1 1031.1,732.3 984.9,732.3 984.6,742.2 
		960.6,741.9 961.1,738.9 	"/>
	<path class="st8" d="M962.5,603.7h-29.8V632h-16.1v10.2c0,0-3.4,7.2,0,14h45.9V603.7z"/>
	<polygon class="st8" points="923.7,666 924,656.1 960.8,656.1 961.1,738.9 933.1,738.9 932.8,666.3 	"/>
	<polygon class="st8" points="982.4,637.9 1032.2,637.9 1033.6,732.3 982.4,732.3 	"/>
	<polygon class="st8" points="919.8,755.6 919.8,803.6 916.9,803.6 916.9,810.7 950.9,810.7 950.9,755.6 	"/>
	<path class="st8" d="M674.5,690h3.3v-2.5h2.6v2.5h1.3c1.6-2,4.1-3,6.7-2.5c3.3,0.4,6.7,0.7,10.1,0.8c3.2-0.8,6.6-1.1,9.9-0.9
		c5.5,0.3,7.4,3,10.2,2.6v52.4h-1.8c-0.5,1.6-2,2.7-3.7,2.9c-3,0.3-4-2-5.5-2s-2.3,2-5.2,2c-1.6,0.1-2.9-1.2-3-2.7
		c0-0.1,0-0.1,0-0.2l-8.8,3.5h-12c0,0-4,0.3-4-4.4L674.5,690z"/>
	<path class="st8" d="M694.3,752.1c0,0-4.4-1.4-4.4,6.2v39.5H672v3.3h-16.9v28.8h1.7c0.8,1.2,2.2,1.9,3.7,1.8c2.5,0,4.3-2.4,6.4-2.4
		s5.4,3.4,8.9,3.4s7.5-4.5,7.5-4.5v2l17.8-0.1c13.5,1,4.7,6.4,12.8,8.8c4.7-0.4,4-5.1,6.7-8.4s9.5-2.3,9.5-6.7
		c0-5.8-10.3-4.7-10.5-14.6l-1.4-2.7l-1.1-12c0,0,3.7-3,3.7-6.3s-2.3-6.5-2.3-8.2s2-4,2-8.5c-0.3-2.7-2-5.4-2-7.9
		c0.1-2.4,0.4-4.8,0.8-7.2h2l-0.1-4.3h-18.3l0.1-3.7h-4.4l-0.3-6.5H694L694.3,752.1z"/>
	<polygon class="st8" points="671.5,427.6 696.4,427.6 696.4,426 697.8,426 697.8,427.6 702.5,427.6 702.5,426.8 703.8,426.8 
		703.8,427.6 704.9,427.6 704.9,429.1 703.8,429.1 703.8,439.4 716.1,439.4 716.1,440.6 714.5,440.6 714.5,457.2 715.4,457.2 
		715.5,458.5 714.4,458.5 714.4,474.9 715.4,474.9 715.2,475.9 714.1,475.9 714.1,495.3 719.8,495.3 719.8,481.4 735.6,481.4 
		735.6,498.7 739.3,498.7 739.3,489.1 748.1,489.1 748.1,498.7 794.4,498.7 794.4,428.6 828.3,428.6 828.3,429.6 820.6,429.6 
		820.3,523.1 827.6,530.6 826.8,531.3 819.5,523.9 749.9,523.8 749.9,530.7 748.3,530.6 748.3,523.5 678.6,523.1 671.5,530 
		670.2,529.9 677.8,521.4 677.8,429.4 671.5,429.4 	"/>
	<polygon class="st8" points="461.1,84.7 480.8,87.4 490.8,7.1 470.6,4.5 	"/>
	<polygon class="st8" points="431.1,80.6 451,83.3 461.1,3 441,0.6 	"/>
	<polygon class="st8" points="354.9,629.4 354.9,628.2 358.5,628.8 370.2,620.3 370.2,616.7 371.5,616.7 371.5,620.5 380,632 
		383.6,632 383.6,633.5 379.6,633.5 368.3,641.8 367.9,644.3 366.4,644.3 366.4,641.8 357.9,630.5 	"/>
</g>
<g id="Camada_3">
	<path class="st9" d="M1188.3,560c0.4-0.1,0.8-0.1,1.2-0.1c0.5,0,0.9,0.1,1.3,0.4c0.3,0.3,0.4,0.6,0.4,1c0,0.4-0.1,0.7-0.4,1
		c-0.4,0.4-0.9,0.5-1.4,0.5c-0.2,0-0.3,0-0.5,0v1.9h-0.6L1188.3,560z M1188.9,562.2c0.2,0,0.3,0,0.5,0c0.7,0,1.2-0.4,1.2-1
		s-0.4-0.9-1.1-0.9c-0.2,0-0.4,0-0.6,0L1188.9,562.2z"/>
	<path class="st9" d="M1192.6,559.9v4.7h-0.6v-4.7H1192.6z"/>
	<path class="st9" d="M1193.6,563.9c0.3,0.2,0.7,0.3,1.1,0.3c0.6,0,1-0.3,1-0.8s-0.3-0.7-0.9-0.9s-1.3-0.7-1.3-1.3
		c0-0.8,0.7-1.3,1.4-1.3c0,0,0.1,0,0.1,0c0.3,0,0.7,0.1,1,0.2l-0.2,0.5c-0.3-0.1-0.6-0.2-0.9-0.2c-0.6,0-0.9,0.4-0.9,0.7
		s0.3,0.7,0.9,0.9s1.2,0.7,1.2,1.4s-0.5,1.4-1.7,1.4c-0.4,0-0.8-0.1-1.2-0.3L1193.6,563.9z"/>
	<path class="st9" d="M1200.4,564.5c-0.4,0.2-0.8,0.2-1.3,0.2c-1.2,0.1-2.3-0.9-2.3-2.1c0-0.1,0-0.2,0-0.3c-0.1-1.3,0.9-2.4,2.2-2.5
		c0.1,0,0.2,0,0.3,0c0.4,0,0.8,0.1,1.1,0.2l-0.2,0.5c-0.3-0.1-0.7-0.2-1-0.2c-1-0.1-1.8,0.7-1.8,1.6c0,0.1,0,0.2,0,0.3
		c-0.1,0.9,0.6,1.8,1.5,1.9c0.1,0,0.2,0,0.3,0c0.3,0,0.7-0.1,1-0.2L1200.4,564.5z"/>
	<path class="st9" d="M1201.8,559.9v4.7h-0.6v-4.7H1201.8z"/>
	<path class="st9" d="M1202.9,564.6v-4.7h0.7l1.5,2.4c0.3,0.5,0.6,1,0.8,1.5l0,0c-0.1-0.6-0.1-1.2-0.1-1.9v-2h0.6v4.7h-0.6l-1.5-2.4
		c-0.3-0.5-0.6-1-0.9-1.6l0,0c0,0.6,0,1.2,0,2v2L1202.9,564.6z"/>
	<path class="st9" d="M1208.2,563.1l-0.5,1.5h-0.6l1.6-4.7h0.7l1.6,4.7h-0.7l-0.5-1.5H1208.2z M1209.8,562.7l-0.5-1.4
		c-0.1-0.3-0.2-0.6-0.3-0.9l0,0c-0.1,0.3-0.2,0.6-0.2,0.8l-0.5,1.4H1209.8z"/>
	<path class="st9" d="M1213.1,439.1c-0.5,0.2-1,0.3-1.4,0.3c-1.2,0.1-2.3-0.8-2.4-2c0-0.1,0-0.3,0-0.4c0-1.3,1-2.4,2.3-2.4
		c0.1,0,0.2,0,0.3,0c0.4,0,0.8,0.1,1.2,0.2l-0.2,0.5c-0.3-0.1-0.7-0.2-1-0.2c-1-0.1-1.8,0.7-1.9,1.6c0,0.1,0,0.2,0,0.3
		c-0.1,1,0.6,1.8,1.5,1.9c0.1,0,0.2,0,0.3,0c0.3,0,0.6,0,0.8-0.1v-1.4h-1v-0.5h1.6L1213.1,439.1z"/>
	<path class="st9" d="M1214.7,434.6v4.7h-0.6v-4.7H1214.7z"/>
	<path class="st9" d="M1215.7,439.3v-4.7h0.7l1.5,2.4c0.3,0.5,0.6,1,0.8,1.5l0,0c-0.1-0.6-0.1-1.2-0.1-1.9v-2h0.6v4.7h-0.6l-1.5-2.4
		c-0.3-0.5-0.6-1-0.9-1.6l0,0c0,0.6,0,1.2,0,2v2L1215.7,439.3z"/>
	<path class="st9" d="M1221.1,437.9l-0.5,1.5h-0.6l1.6-4.7h0.7l1.6,4.7h-0.7l-0.5-1.5H1221.1z M1222.6,437.4l-0.5-1.4
		c-0.1-0.3-0.2-0.6-0.3-0.9l0,0c-0.1,0.3-0.2,0.6-0.2,0.9l-0.5,1.4L1222.6,437.4z M1223,433.5l-0.9,0.8h-0.5l0.7-0.8H1223z"/>
	<path class="st9" d="M1224.5,438.6c0.3,0.2,0.7,0.3,1.1,0.3c0.6,0,1-0.3,1-0.8s-0.3-0.7-0.9-0.9s-1.3-0.7-1.3-1.3
		c0-0.8,0.7-1.3,1.4-1.3c0,0,0.1,0,0.1,0c0.3,0,0.7,0.1,1,0.2l-0.2,0.5c-0.3-0.1-0.6-0.2-0.9-0.2c-0.6,0-0.9,0.4-0.9,0.7
		s0.3,0.7,0.9,0.9s1.2,0.7,1.2,1.4s-0.5,1.4-1.7,1.4c-0.4,0-0.8-0.1-1.2-0.3L1224.5,438.6z"/>
	<path class="st9" d="M1228.7,434.6v4.7h-0.6v-4.7H1228.7z"/>
	<path class="st9" d="M1233.8,436.9c0.2,1.2-0.7,2.3-1.9,2.5c-0.1,0-0.2,0-0.3,0c-1.2,0-2.1-1-2.1-2.2c0-0.1,0-0.1,0-0.2
		c-0.1-1.2,0.8-2.3,2-2.5c0.1,0,0.1,0,0.2,0c1.2,0,2.1,1,2.1,2.2C1233.8,436.8,1233.8,436.9,1233.8,436.9z M1230.1,437
		c0,1,0.6,1.9,1.5,1.9s1.5-0.9,1.5-2s-0.5-1.9-1.5-1.9S1230.1,436,1230.1,437L1230.1,437z"/>
	<path class="st9" d="M854.6,392.4h0.6v4.2h2v0.5h-2.6L854.6,392.4z"/>
	<path class="st9" d="M858.7,395.6l-0.5,1.5h-0.6l1.6-4.7h0.7l1.6,4.7h-0.7l-0.5-1.5H858.7z M860.2,395.1l-0.5-1.4
		c-0.1-0.3-0.2-0.6-0.3-0.9l0,0c-0.1,0.3-0.2,0.6-0.2,0.9l-0.5,1.4L860.2,395.1z"/>
	<path class="st9" d="M862.2,392.4c0.4-0.1,0.7-0.1,1.1-0.1c0.5,0,0.9,0.1,1.3,0.3c0.3,0.2,0.4,0.5,0.4,0.8c0,0.5-0.4,0.9-0.8,1l0,0
		c0.6,0.1,1,0.6,1,1.2c0,0.4-0.1,0.7-0.4,1c-0.5,0.3-1.1,0.5-1.6,0.4c-0.3,0-0.6,0-1-0.1L862.2,392.4z M862.8,394.4h0.6
		c0.6,0,1-0.3,1-0.8s-0.4-0.8-1-0.8c-0.2,0-0.4,0-0.5,0L862.8,394.4z M862.8,396.6c0.2,0,0.3,0,0.5,0c0.6,0,1.2-0.2,1.2-0.9
		s-0.5-0.9-1.2-0.9h-0.5L862.8,396.6z"/>
	<path class="st9" d="M870,394.7c0.2,1.2-0.7,2.3-1.9,2.5c-0.1,0-0.2,0-0.3,0c-1.2,0-2.1-1-2.1-2.2c0-0.1,0-0.1,0-0.2
		c-0.1-1.2,0.8-2.3,2-2.5c0.1,0,0.1,0,0.2,0c1.2,0,2.1,1,2.1,2.2C870,394.5,870,394.6,870,394.7z M866.4,394.8c0,1,0.5,1.9,1.5,1.9
		s1.5-0.9,1.5-2s-0.5-1.9-1.5-1.9S866.4,393.7,866.4,394.8L866.4,394.8z"/>
	<path class="st9" d="M870.8,392.4c0.4-0.1,0.8-0.1,1.2-0.1c0.5-0.1,1,0.1,1.4,0.4c0.2,0.2,0.4,0.6,0.4,0.9c0,0.6-0.4,1.1-0.9,1.2
		l0,0c0.4,0.2,0.7,0.6,0.7,1c0.1,0.4,0.2,0.9,0.4,1.3h-0.6c-0.1-0.4-0.2-0.7-0.3-1.1c-0.1-0.6-0.4-0.9-1-0.9h-0.6v2h-0.6
		L870.8,392.4z M871.4,394.6h0.6c0.7,0,1.1-0.4,1.1-0.9s-0.4-0.9-1.1-0.9c-0.2,0-0.4,0-0.6,0.1L871.4,394.6z"/>
	<path class="st9" d="M875.4,395.6l-0.5,1.5h-0.6l1.6-4.7h0.7l1.6,4.7h-0.7l-0.5-1.5H875.4z M876.9,395.1l-0.5-1.4
		c-0.1-0.3-0.2-0.6-0.3-0.9l0,0c-0.1,0.3-0.2,0.6-0.2,0.9l-0.5,1.4L876.9,395.1z"/>
	<path class="st9" d="M879.2,392.9h-1.4v-0.5h3.5v0.5h-1.4v4.2h-0.6L879.2,392.9z"/>
	<path class="st9" d="M885.7,394.7c0.2,1.2-0.7,2.3-1.9,2.5c-0.1,0-0.2,0-0.3,0c-1.2,0-2.1-1-2.1-2.2c0-0.1,0-0.1,0-0.2
		c-0.1-1.2,0.8-2.3,2-2.5c0.1,0,0.1,0,0.2,0c1.2,0,2.1,1,2.1,2.2C885.7,394.5,885.7,394.6,885.7,394.7z M882,394.8
		c0,1,0.5,1.9,1.5,1.9s1.5-0.9,1.5-2s-0.5-1.9-1.5-1.9S882,393.7,882,394.8L882,394.8z M884.5,391.3l-0.9,0.8h-0.5l0.7-0.8H884.5z"
		/>
	<path class="st9" d="M886.5,392.4c0.4-0.1,0.8-0.1,1.2-0.1c0.5-0.1,1,0.1,1.4,0.4c0.2,0.2,0.4,0.6,0.4,0.9c0,0.6-0.4,1.1-0.9,1.2
		l0,0c0.4,0.2,0.7,0.6,0.7,1c0.1,0.4,0.2,0.9,0.4,1.3h-0.6c-0.1-0.4-0.2-0.7-0.3-1.1c-0.1-0.6-0.4-0.9-1-0.9h-0.6v2h-0.6
		L886.5,392.4z M887.1,394.6h0.6c0.7,0,1.1-0.4,1.1-0.9s-0.4-0.9-1.1-0.9c-0.2,0-0.4,0-0.6,0.1L887.1,394.6z"/>
	<path class="st9" d="M890.8,392.4v4.7h-0.6v-4.7H890.8z"/>
	<path class="st9" d="M895.9,394.7c0.2,1.2-0.7,2.3-1.9,2.5c-0.1,0-0.2,0-0.3,0c-1.2,0-2.1-1-2.1-2.2c0-0.1,0-0.1,0-0.2
		c-0.1-1.2,0.8-2.3,2-2.5c0.1,0,0.1,0,0.2,0c1.2,0,2.1,1,2.1,2.2C895.9,394.5,895.9,394.6,895.9,394.7z M892.3,394.8
		c0,1,0.5,1.9,1.5,1.9s1.5-0.9,1.5-2s-0.5-1.9-1.5-1.9S892.3,393.7,892.3,394.8L892.3,394.8z"/>
	<path class="st9" d="M896.6,396.3c0.3,0.2,0.7,0.3,1.1,0.3c0.6,0,1-0.3,1-0.8s-0.3-0.7-0.9-0.9s-1.3-0.7-1.3-1.3
		c0-0.8,0.7-1.3,1.4-1.3c0,0,0.1,0,0.1,0c0.3,0,0.7,0.1,1,0.2L899,393c-0.3-0.1-0.6-0.2-0.9-0.2c-0.6,0-0.9,0.4-0.9,0.7
		s0.3,0.7,0.9,0.9s1.2,0.7,1.2,1.4s-0.5,1.4-1.7,1.4c-0.4,0-0.8-0.1-1.2-0.3L896.6,396.3z"/>
	<path class="st9" d="M901.7,392.4c0.4-0.1,0.9-0.1,1.3-0.1c0.7-0.1,1.4,0.2,1.9,0.6c0.5,0.4,0.7,1.1,0.7,1.7c0,0.7-0.2,1.3-0.7,1.8
		c-0.6,0.5-1.3,0.7-2.1,0.7c-0.4,0-0.7,0-1.1-0.1L901.7,392.4z M902.3,396.6c0.2,0,0.4,0,0.6,0c1,0.1,1.9-0.6,2-1.6
		c0-0.1,0-0.3,0-0.4c0.1-0.9-0.6-1.7-1.5-1.8c-0.1,0-0.3,0-0.4,0c-0.2,0-0.5,0-0.7,0.1V396.6z"/>
	<path class="st9" d="M908.8,394.9h-1.8v1.7h2v0.5h-2.7v-4.7h2.5v0.5h-1.9v1.5h1.8L908.8,394.9z"/>
	<path class="st9" d="M911.3,392.4h0.6v4.2h2v0.5h-2.6L911.3,392.4z"/>
	<path class="st9" d="M915.2,392.4v4.7h-0.6v-4.7H915.2z"/>
	<path class="st9" d="M919.5,396.9c-0.4,0.2-0.8,0.2-1.3,0.2c-1.2,0.1-2.3-0.9-2.3-2.1c0-0.1,0-0.2,0-0.3c-0.1-1.3,0.9-2.4,2.2-2.5
		c0.1,0,0.1,0,0.2,0c0.4,0,0.8,0.1,1.1,0.2l-0.2,0.5c-0.3-0.1-0.7-0.2-1-0.2c-1-0.1-1.8,0.7-1.8,1.6c0,0.1,0,0.2,0,0.3
		c-0.1,0.9,0.6,1.8,1.5,1.9c0.1,0,0.2,0,0.3,0c0.3,0,0.7-0.1,1-0.2L919.5,396.9z"/>
	<path class="st9" d="M922.7,394.9h-1.8v1.7h2v0.5h-2.7v-4.7h2.5v0.5h-1.9v1.5h1.8L922.7,394.9z"/>
	<path class="st9" d="M923.7,397.1v-4.7h0.6l1.5,2.4c0.3,0.5,0.6,1,0.8,1.5l0,0c-0.1-0.6-0.1-1.2-0.1-1.9v-2h0.6v4.7h-0.6l-1.5-2.4
		c-0.3-0.5-0.6-1-0.9-1.6l0,0c0,0.6,0,1.2,0,2v2L923.7,397.1z"/>
	<path class="st9" d="M931.6,396.9c-0.4,0.2-0.8,0.2-1.3,0.2c-1.2,0.1-2.3-0.9-2.3-2.1c0-0.1,0-0.2,0-0.3c-0.1-1.3,0.9-2.4,2.2-2.5
		c0.1,0,0.2,0,0.3,0c0.4,0,0.8,0.1,1.1,0.2l-0.2,0.5c-0.3-0.1-0.7-0.2-1-0.2c-1-0.1-1.8,0.7-1.8,1.6c0,0.1,0,0.2,0,0.3
		c-0.1,0.9,0.6,1.8,1.5,1.9c0.1,0,0.2,0,0.3,0c0.3,0,0.7-0.1,1-0.2L931.6,396.9z"/>
	<path class="st9" d="M933,392.4v4.7h-0.6v-4.7H933z"/>
	<path class="st9" d="M934.8,395.6l-0.5,1.5h-0.6l1.6-4.7h0.7l1.6,4.7H937l-0.5-1.5H934.8z M936.4,395.1l-0.5-1.4
		c-0.1-0.3-0.2-0.6-0.3-0.9l0,0c-0.1,0.3-0.2,0.6-0.2,0.9l-0.5,1.4L936.4,395.1z"/>
	<path class="st9" d="M938.7,392.9h-1.4v-0.5h3.5v0.5h-1.4v4.2h-0.6L938.7,392.9z"/>
	<path class="st9" d="M941.9,392.4v2.8c0,1.1,0.5,1.5,1.1,1.5s1.2-0.5,1.2-1.5v-2.8h0.6v2.8c0,1.5-0.8,2-1.8,2s-1.7-0.5-1.7-2v-2.8
		L941.9,392.4z"/>
	<path class="st9" d="M945.8,392.4c0.4-0.1,0.8-0.1,1.2-0.1c0.5-0.1,1,0.1,1.4,0.4c0.2,0.2,0.4,0.6,0.4,0.9c0,0.6-0.4,1.1-0.9,1.2
		l0,0c0.4,0.2,0.7,0.6,0.7,1c0.1,0.4,0.2,0.9,0.4,1.3h-0.6c-0.1-0.4-0.2-0.7-0.3-1.1c-0.1-0.6-0.4-0.9-1-0.9h-0.6v2h-0.6
		L945.8,392.4z M946.4,394.6h0.6c0.7,0,1.1-0.4,1.1-0.9s-0.4-0.9-1.1-0.9c-0.2,0-0.4,0-0.6,0.1L946.4,394.6z"/>
	<path class="st9" d="M950.4,395.6l-0.5,1.5h-0.6l1.6-4.7h0.7l1.6,4.7h-0.7l-0.5-1.5H950.4z M951.9,395.1l-0.5-1.4
		c-0.1-0.3-0.2-0.6-0.3-0.9l0,0c-0.1,0.3-0.2,0.6-0.2,0.9l-0.5,1.4L951.9,395.1z"/>
	<path class="st9" d="M723.9,369.8v-4.7h0.7l1.5,2.4c0.3,0.5,0.6,1,0.8,1.5l0,0c-0.1-0.6-0.1-1.2-0.1-1.9v-2h0.6v4.7h-0.6l-1.5-2.4
		c-0.3-0.5-0.6-1-0.9-1.6l0,0c0,0.6,0,1.2,0,2v2L723.9,369.8z"/>
	<path class="st9" d="M731.8,369.6c-0.4,0.2-0.8,0.2-1.3,0.2c-1.2,0.1-2.3-0.9-2.3-2.1c0-0.1,0-0.2,0-0.3c-0.1-1.3,0.9-2.4,2.2-2.5
		c0.1,0,0.2,0,0.3,0c0.4,0,0.8,0.1,1.1,0.2l-0.2,0.5c-0.3-0.1-0.7-0.2-1-0.2c-1-0.1-1.8,0.7-1.8,1.6c0,0.1,0,0.2,0,0.3
		c-0.1,0.9,0.6,1.8,1.5,1.9c0.1,0,0.2,0,0.3,0c0.3,0,0.7-0.1,1-0.2L731.8,369.6z"/>
	<path class="st9" d="M735,367.6h-1.8v1.7h2v0.5h-2.7v-4.7h2.5v0.5h-1.9v1.5h1.8L735,367.6z"/>
	<path class="st9" d="M738.6,369.8l-0.6-1c-0.3-0.4-0.4-0.7-0.5-0.9l0,0c-0.1,0.3-0.3,0.5-0.5,0.9l-0.6,1h-0.7l1.4-2.4l-1.4-2.3h0.7
		l0.6,1.1c0.2,0.3,0.3,0.5,0.4,0.8l0,0c0.1-0.3,0.3-0.5,0.4-0.8l0.6-1.1h0.7l-1.4,2.3l1.5,2.4H738.6z"/>
	<path class="st9" d="M695,591l-0.4,1.5h-0.5l1.3-4.7h0.6l1.3,4.7h-0.5l-0.4-1.5H695z M696.3,590.5l-0.4-1.4
		c-0.1-0.3-0.1-0.6-0.2-0.9l0,0c-0.1,0.3-0.1,0.6-0.2,0.8l-0.4,1.4H696.3z"/>
	<path class="st9" d="M698,592.5v-4.7h0.5l1.3,2.4c0.3,0.5,0.5,1,0.7,1.5l0,0c0-0.6-0.1-1.2-0.1-1.9v-2h0.5v4.7h-0.5l-1.2-2.4
		c-0.3-0.5-0.5-1-0.7-1.6l0,0c0,0.6,0,1.2,0,2v2L698,592.5z"/>
	<path class="st9" d="M703.8,590.3h-1.5v1.7h1.7v0.5h-2.2v-4.7h2.1v0.5h-1.6v1.5h1.5L703.8,590.3z"/>
	<path class="st9" d="M706.8,592.5l-0.5-1c-0.2-0.4-0.3-0.7-0.5-0.9l0,0c-0.1,0.3-0.2,0.5-0.4,0.9l-0.5,1h-0.5l1.2-2.4l-1.2-2.3h0.6
		l0.5,1.1c0.1,0.3,0.3,0.5,0.4,0.8l0,0c0.1-0.3,0.2-0.5,0.3-0.8l0.5-1.1h0.6l-1.2,2.3l1.2,2.4H706.8z"/>
	<path class="st9" d="M711.1,590.1c0,1.6-0.8,2.5-1.8,2.5s-1.8-1-1.8-2.4s0.8-2.5,1.8-2.5S711.1,588.7,711.1,590.1z M708.1,590.1
		c0,1,0.5,1.9,1.2,1.9s1.3-0.9,1.3-2s-0.4-1.9-1.2-1.9S708.1,589.1,708.1,590.1L708.1,590.1z"/>
	<path class="st9" d="M698.8,600.7c-0.3,0.2-0.7,0.2-1,0.2c-1.1,0-1.9-0.8-1.9-2.4s0.8-2.5,2-2.5c0.3,0,0.6,0.1,0.9,0.2l-0.1,0.5
		c-0.2-0.1-0.5-0.2-0.8-0.2c-0.9,0-1.5,0.7-1.5,2s0.5,1.9,1.5,1.9c0.3,0,0.6-0.1,0.8-0.2L698.8,600.7z"/>
	<path class="st9" d="M699.5,596.2c0.3-0.1,0.7-0.1,1-0.1c0.4,0,0.8,0.1,1.1,0.4c0.2,0.3,0.3,0.6,0.3,0.9c0,0.5-0.3,1-0.7,1.2l0,0
		c0.4,0.2,0.6,0.6,0.6,1c0.1,0.4,0.2,0.9,0.3,1.3h-0.5c-0.1-0.4-0.2-0.7-0.3-1.1c-0.1-0.7-0.3-0.9-0.8-0.9H700v2h-0.5L699.5,596.2z
		 M700,598.4h0.5c0.5,0,0.9-0.3,0.9-0.8c0,0,0-0.1,0-0.1c0-0.4-0.3-0.8-0.7-0.9c-0.1,0-0.1,0-0.2,0c-0.2,0-0.3,0-0.5,0.1L700,598.4z
		"/>
	<path class="st9" d="M703.3,599.4l-0.4,1.5h-0.5l1.3-4.7h0.6l1.3,4.7h-0.5l-0.4-1.5H703.3z M704.5,598.9l-0.4-1.4
		c-0.1-0.3-0.1-0.6-0.2-0.9l0,0c-0.1,0.3-0.1,0.6-0.2,0.8l-0.4,1.4H704.5z"/>
	<path class="st9" d="M706.2,596.2c0.4-0.1,0.7-0.1,1.1-0.1c0.6,0,1.2,0.2,1.6,0.6c0.4,0.5,0.6,1.1,0.5,1.7c0,0.7-0.2,1.3-0.6,1.8
		c-0.4,0.5-1.1,0.7-1.7,0.7c-0.3,0-0.6,0-0.9-0.1L706.2,596.2z M706.7,600.4c0.2,0,0.3,0,0.5,0c1.1,0,1.7-0.7,1.7-2
		c0-1.1-0.5-1.8-1.6-1.8c-0.2,0-0.4,0-0.6,0.1L706.7,600.4z"/>
	<path class="st9" d="M696.1,659.4c-0.4,0.2-0.8,0.2-1.3,0.2c-1.2,0.1-2.3-0.9-2.3-2.1c0-0.1,0-0.2,0-0.3c-0.1-1.3,0.9-2.4,2.2-2.5
		c0.1,0,0.2,0,0.3,0c0.4,0,0.8,0.1,1.1,0.2l-0.2,0.5c-0.3-0.1-0.7-0.2-1-0.2c-1-0.1-1.8,0.7-1.8,1.6c0,0.1,0,0.2,0,0.3
		c-0.1,0.9,0.6,1.8,1.5,1.9c0.1,0,0.2,0,0.3,0c0.3,0,0.7-0.1,1-0.2L696.1,659.4z"/>
	<path class="st9" d="M696.9,654.9c0.4-0.1,0.8-0.1,1.2-0.1c0.5-0.1,1,0.1,1.4,0.4c0.2,0.2,0.4,0.6,0.4,0.9c0,0.6-0.4,1.1-0.9,1.2
		l0,0c0.4,0.2,0.7,0.6,0.7,1c0.1,0.4,0.2,0.9,0.4,1.3h-0.6c-0.1-0.4-0.2-0.7-0.3-1.1c-0.1-0.7-0.4-0.9-1-0.9h-0.6v2h-0.6
		L696.9,654.9z M697.5,657.1h0.6c0.7,0,1.1-0.4,1.1-0.9s-0.4-0.9-1.1-0.9c-0.2,0-0.4,0-0.6,0.1L697.5,657.1z"/>
	<path class="st9" d="M701.5,658.1l-0.5,1.5h-0.6l1.6-4.7h0.7l1.6,4.7h-0.7l-0.5-1.5H701.5z M703,657.6l-0.5-1.4
		c-0.1-0.3-0.2-0.6-0.3-0.9l0,0c-0.1,0.3-0.2,0.6-0.2,0.8l-0.5,1.4H703z"/>
	<path class="st9" d="M705,654.9c0.4-0.1,0.9-0.1,1.3-0.1c0.7-0.1,1.4,0.2,1.9,0.6c0.5,0.4,0.7,1.1,0.7,1.7c0,0.7-0.2,1.3-0.7,1.8
		c-0.6,0.5-1.3,0.7-2.1,0.7c-0.4,0-0.7,0-1.1-0.1L705,654.9z M705.6,659.1c0.2,0,0.4,0,0.6,0c1,0.1,1.9-0.6,2-1.6c0-0.1,0-0.3,0-0.4
		c0.1-0.9-0.6-1.7-1.5-1.8c-0.1,0-0.3,0-0.4,0c-0.2,0-0.5,0-0.7,0.1V659.1z"/>
	<path class="st9" d="M811.4,566.4c0.3,0.2,0.7,0.3,1.1,0.3c0.6,0,1-0.3,1-0.8s-0.3-0.7-0.9-0.9s-1.2-0.7-1.2-1.3
		c0-0.8,0.7-1.3,1.4-1.3c0,0,0.1,0,0.1,0c0.3,0,0.7,0.1,1,0.2l-0.2,0.5c-0.3-0.1-0.6-0.2-0.9-0.2c-0.6,0-0.9,0.4-0.9,0.7
		s0.3,0.7,0.9,0.9s1.2,0.7,1.2,1.4s-0.5,1.4-1.7,1.4c-0.4,0-0.8-0.1-1.2-0.3L811.4,566.4z"/>
	<path class="st9" d="M817.4,564.9h-1.8v1.7h2v0.5h-2.7v-4.7h2.5v0.5h-1.9v1.5h1.9V564.9z"/>
	<path class="st9" d="M818.4,562.5c0.4-0.1,0.8-0.1,1.2-0.1c0.5,0,1,0.1,1.4,0.4c0.2,0.2,0.4,0.6,0.4,0.9c0,0.6-0.4,1-0.9,1.2l0,0
		c0.4,0.2,0.7,0.6,0.7,1c0.1,0.4,0.2,0.9,0.4,1.3h-0.6c-0.1-0.4-0.2-0.7-0.3-1.1c-0.1-0.7-0.4-0.9-1-0.9H819v2h-0.6V562.5z
		 M819,564.6h0.6c0.7,0,1.1-0.4,1.1-0.9s-0.4-0.9-1.1-0.9c-0.2,0-0.4,0-0.6,0.1L819,564.6z"/>
	<path class="st9" d="M823.3,567.1l-1.5-4.7h0.6l0.7,2.3c0.2,0.6,0.4,1.2,0.5,1.8l0,0c0.1-0.5,0.3-1.1,0.5-1.8l0.8-2.3h0.7l-1.7,4.7
		L823.3,567.1z"/>
	<path class="st9" d="M826.8,562.4v4.7h-0.6v-4.7H826.8z"/>
	<path class="st9" d="M827.8,562.5c0.4-0.1,0.9-0.1,1.3-0.1c0.7-0.1,1.4,0.2,1.9,0.6c0.5,0.4,0.7,1.1,0.7,1.7c0,0.7-0.2,1.3-0.7,1.8
		c-0.6,0.5-1.3,0.7-2.1,0.7c-0.4,0-0.7,0-1.1-0.1L827.8,562.5z M828.4,566.6c0.2,0,0.4,0,0.6,0c1,0.1,1.9-0.6,2-1.6
		c0-0.1,0-0.3,0-0.4c0.1-0.9-0.6-1.7-1.5-1.8c-0.1,0-0.3,0-0.4,0c-0.2,0-0.5,0-0.7,0.1V566.6z"/>
	<path class="st9" d="M836.5,564.7c0.2,1.2-0.7,2.3-1.9,2.5c-0.1,0-0.2,0-0.3,0c-1.2,0-2.1-1-2.1-2.2c0-0.1,0-0.1,0-0.2
		c-0.2-1.2,0.7-2.3,1.9-2.5c0.1,0,0.1,0,0.2,0c1.2,0,2.2,0.9,2.2,2.1C836.5,564.5,836.5,564.6,836.5,564.7z M832.9,564.8
		c0,1,0.5,1.9,1.5,1.9s1.5-0.9,1.5-2s-0.5-1.9-1.5-1.9S832.9,563.8,832.9,564.8L832.9,564.8z"/>
	<path class="st9" d="M837.3,562.5c0.4-0.1,0.8-0.1,1.2-0.1c0.5,0,1,0.1,1.4,0.4c0.2,0.2,0.4,0.6,0.4,0.9c0,0.6-0.4,1-0.9,1.2l0,0
		c0.4,0.2,0.7,0.6,0.7,1c0.1,0.4,0.2,0.9,0.4,1.3h-0.6c-0.1-0.4-0.2-0.7-0.3-1.1c-0.1-0.7-0.4-0.9-1-0.9h-0.6v2h-0.6L837.3,562.5z
		 M837.9,564.6h0.6c0.7,0,1.1-0.4,1.1-0.9s-0.4-0.9-1.1-0.9c-0.2,0-0.4,0-0.6,0.1L837.9,564.6z"/>
	<path class="st9" d="M843.5,564.9h-1.8v1.7h2v0.5H841v-4.7h2.5v0.5h-1.9v1.5h1.8L843.5,564.9z"/>
	<path class="st9" d="M844.4,566.4c0.3,0.2,0.7,0.3,1.1,0.3c0.6,0,1-0.3,1-0.8s-0.3-0.7-0.9-0.9s-1.3-0.7-1.3-1.3
		c0-0.8,0.7-1.3,1.4-1.3c0,0,0.1,0,0.1,0c0.3,0,0.7,0.1,1,0.2l-0.2,0.5c-0.3-0.1-0.6-0.2-0.9-0.2c-0.6,0-0.9,0.4-0.9,0.7
		s0.3,0.7,0.9,0.9s1.2,0.7,1.2,1.4s-0.5,1.4-1.7,1.4c-0.4,0-0.8-0.1-1.2-0.3L844.4,566.4z"/>
	<path class="st9" d="M704.5,883.5c-0.4,0.2-0.8,0.2-1.3,0.2c-1.2,0.1-2.3-0.9-2.3-2.1c0-0.1,0-0.2,0-0.3c-0.1-1.3,0.9-2.4,2.2-2.5
		c0.1,0,0.2,0,0.3,0c0.4,0,0.8,0.1,1.1,0.2l-0.2,0.5c-0.3-0.1-0.7-0.2-1-0.2c-1-0.1-1.8,0.7-1.8,1.6c0,0.1,0,0.2,0,0.3
		c-0.1,0.9,0.6,1.8,1.5,1.9c0.1,0,0.2,0,0.3,0c0.3,0,0.7-0.1,1-0.2L704.5,883.5z"/>
	<path class="st9" d="M706.1,882.2l-0.5,1.5H705l1.6-4.7h0.7l1.6,4.7h-0.7l-0.5-1.5H706.1z M707.6,881.7l-0.5-1.4
		c-0.1-0.3-0.2-0.6-0.3-0.9l0,0c-0.1,0.3-0.2,0.6-0.2,0.8l-0.5,1.4H707.6z"/>
	<path class="st9" d="M709.5,882.9c0.3,0.2,0.7,0.3,1.1,0.3c0.6,0,1-0.3,1-0.8s-0.3-0.7-0.9-0.9s-1.3-0.7-1.3-1.3
		c0-0.8,0.7-1.3,1.4-1.3c0,0,0.1,0,0.1,0c0.3,0,0.7,0.1,1,0.2l-0.2,0.5c-0.3-0.1-0.6-0.2-0.9-0.2c-0.6,0-0.9,0.4-0.9,0.7
		s0.3,0.7,0.9,0.9s1.2,0.7,1.2,1.4s-0.5,1.4-1.7,1.4c-0.4,0-0.8-0.1-1.2-0.3L709.5,882.9z"/>
	<path class="st9" d="M713.8,882.2l-0.5,1.5h-0.6l1.6-4.7h0.7l1.6,4.7H716l-0.5-1.5H713.8z M715.3,881.7l-0.5-1.4
		c-0.1-0.3-0.2-0.6-0.3-0.9l0,0c-0.1,0.3-0.2,0.6-0.2,0.8l-0.5,1.4H715.3z"/>
	<path class="st9" d="M700.5,892.1l-1.5-4.7h0.7l0.7,2.3c0.2,0.6,0.4,1.2,0.5,1.8l0,0c0.1-0.5,0.3-1.1,0.5-1.8l0.8-2.3h0.7l-1.7,4.7
		L700.5,892.1z"/>
	<path class="st9" d="M705.9,889.8H704v1.7h2v0.5h-2.7v-4.7h2.5v0.5H704v1.5h1.8L705.9,889.8z"/>
	<path class="st9" d="M706.9,887.3h0.6v4.2h2v0.5h-2.6V887.3z"/>
	<path class="st9" d="M710.8,887.3v2h2.3v-2h0.6v4.7h-0.6v-2.2h-2.3v2.2h-0.6v-4.7H710.8z"/>
	<path class="st9" d="M715.5,890.6L715,892h-0.6l1.6-4.7h0.7l1.6,4.7h-0.7l-0.5-1.5H715.5z M717,890.1l-0.5-1.4
		c-0.1-0.3-0.2-0.6-0.3-0.9l0,0c-0.1,0.3-0.2,0.6-0.2,0.8l-0.5,1.4H717z"/>
	<path class="st9" d="M802.7,801.8h0.6v4.2h2.1v0.5h-2.8V801.8z"/>
	<path class="st9" d="M806.9,805l-0.5,1.5h-0.7l1.7-4.7h0.8l1.7,4.7h-0.7l-0.5-1.5H806.9z M808.5,804.6l-0.5-1.4
		c-0.1-0.3-0.2-0.6-0.3-0.9l0,0c-0.1,0.3-0.2,0.6-0.3,0.8l-0.5,1.4H808.5z"/>
	<path class="st9" d="M810.6,801.9c0.4-0.1,0.8-0.1,1.2-0.1c0.5,0,1,0.1,1.4,0.3c0.3,0.2,0.4,0.5,0.4,0.8c0,0.5-0.4,0.9-0.8,1l0,0
		c0.7,0.1,1.1,0.7,1,1.4c0,0.3-0.2,0.5-0.4,0.7c-0.5,0.3-1.1,0.5-1.7,0.4c-0.3,0-0.7,0-1-0.1L810.6,801.9z M811.3,803.8h0.6
		c0.7,0,1.1-0.3,1.1-0.8s-0.4-0.8-1.1-0.8c-0.2,0-0.4,0-0.6,0L811.3,803.8z M811.3,806.1c0.2,0,0.4,0,0.5,0c0.7,0,1.3-0.2,1.3-0.9
		s-0.6-0.9-1.3-0.9h-0.5L811.3,806.1z"/>
	<path class="st9" d="M818.8,804.1c0.1,1.2-0.8,2.4-2,2.5c-0.1,0-0.2,0-0.3,0c-1.2,0-2.2-1-2.2-2.2c0-0.1,0-0.1,0-0.2
		c-0.1-1.3,0.8-2.4,2.1-2.5c0.1,0,0.1,0,0.2,0c1.2,0,2.2,0.9,2.2,2.2C818.8,804,818.8,804,818.8,804.1z M815,804.2
		c-0.1,0.9,0.6,1.8,1.5,1.9c0,0,0.1,0,0.1,0c1,0,1.6-0.9,1.6-2c0.1-0.9-0.6-1.8-1.5-1.9c0,0-0.1,0-0.1,0
		C815.5,802.2,815,803.2,815,804.2L815,804.2z"/>
	<path class="st9" d="M819.7,801.9c0.4-0.1,0.8-0.1,1.2-0.1c0.5-0.1,1,0.1,1.4,0.4c0.3,0.2,0.4,0.6,0.4,0.9c0,0.6-0.4,1.1-0.9,1.2
		l0,0c0.4,0.2,0.7,0.6,0.7,1c0.1,0.4,0.2,0.9,0.4,1.3h-0.7c-0.1-0.4-0.3-0.7-0.3-1.1c-0.2-0.7-0.4-0.9-1-0.9h-0.6v2h-0.6V801.9z
		 M820.3,804h0.7c0.7,0,1.1-0.4,1.1-0.9s-0.5-0.9-1.1-0.9c-0.2,0-0.4,0-0.6,0.1V804z"/>
	<path class="st9" d="M824.4,805l-0.5,1.5h-0.7l1.7-4.7h0.8l1.7,4.7h-0.7l-0.5-1.5H824.4z M826,804.6l-0.5-1.4
		c-0.1-0.3-0.2-0.6-0.3-0.9l0,0c-0.1,0.3-0.2,0.6-0.3,0.8l-0.5,1.4H826z"/>
	<path class="st9" d="M829.6,804.4v0.5h-1.8v-0.5H829.6z"/>
	<path class="st9" d="M806,810.7h-1.5v-0.5h3.7v0.5h-1.5v4.2H806L806,810.7z"/>
	<path class="st9" d="M812.8,812.5c0.1,1.2-0.8,2.4-2,2.5c-0.1,0-0.2,0-0.3,0c-1.2,0-2.2-1-2.2-2.2c0-0.1,0-0.1,0-0.2
		c-0.1-1.3,0.8-2.4,2.1-2.5c0.1,0,0.1,0,0.2,0c1.2,0,2.2,0.9,2.2,2.2C812.8,812.4,812.8,812.4,812.8,812.5z M808.9,812.6
		c-0.1,0.9,0.6,1.8,1.5,1.9c0,0,0.1,0,0.1,0c1,0,1.6-0.9,1.6-2c0.1-0.9-0.6-1.8-1.5-1.9c0,0-0.1,0-0.1,0
		C809.4,810.6,808.9,811.6,808.9,812.6z M811.6,809.1l-0.9,0.8h-0.5l0.7-0.8H811.6z"/>
	<path class="st9" d="M813.6,810.3c0.4-0.1,0.8-0.1,1.2-0.1c0.5,0,1,0.1,1.4,0.4c0.3,0.2,0.4,0.6,0.4,0.9c0,0.6-0.4,1.1-0.9,1.2l0,0
		c0.4,0.2,0.7,0.6,0.7,1c0.1,0.4,0.2,0.9,0.4,1.3h-0.7c-0.1-0.4-0.3-0.7-0.3-1.1c-0.2-0.7-0.4-0.9-1-0.9h-0.6v2h-0.6V810.3z
		 M814.2,812.4h0.7c0.7,0,1.1-0.4,1.1-0.9s-0.5-0.9-1.1-0.9c-0.2,0-0.4,0-0.6,0.1V812.4z"/>
	<path class="st9" d="M818.2,810.2v4.7h-0.6v-4.7H818.2z"/>
	<path class="st9" d="M823.5,812.5c0.1,1.2-0.8,2.4-2,2.5c-0.1,0-0.2,0-0.3,0c-1.2,0-2.2-1-2.2-2.2c0-0.1,0-0.1,0-0.2
		c-0.1-1.3,0.8-2.4,2.1-2.5c0.1,0,0.1,0,0.2,0c1.2,0,2.2,0.9,2.2,2.2C823.5,812.4,823.5,812.4,823.5,812.5z M819.7,812.6
		c-0.1,0.9,0.6,1.8,1.5,1.9c0,0,0.1,0,0.1,0c1,0,1.6-0.9,1.6-2c0.1-0.9-0.6-1.8-1.5-1.9c0,0-0.1,0-0.1,0
		C820.2,810.6,819.7,811.6,819.7,812.6z"/>
	<path class="st9" d="M824.2,814.2c0.4,0.2,0.7,0.3,1.2,0.3c0.7,0,1-0.3,1-0.8s-0.3-0.7-0.9-0.9s-1.3-0.7-1.3-1.3s0.6-1.3,1.6-1.3
		c0.4,0,0.8,0.1,1.1,0.2l-0.2,0.5c-0.3-0.1-0.6-0.2-0.9-0.2c-0.7,0-0.9,0.4-0.9,0.7s0.3,0.7,1,0.9c0.8,0.3,1.3,0.7,1.3,1.4
		s-0.6,1.4-1.7,1.4c-0.4,0-0.9-0.1-1.3-0.3L824.2,814.2z"/>
	<path class="st9" d="M801.8,899.1c0.4-0.1,0.7-0.1,1.1-0.1c0.5,0,0.9,0.1,1.3,0.3c0.3,0.2,0.4,0.5,0.4,0.8c0,0.5-0.4,0.9-0.8,1l0,0
		c0.6,0.1,1,0.6,1,1.2c0,0.4-0.1,0.7-0.4,1c-0.5,0.3-1.1,0.5-1.6,0.4c-0.3,0-0.6,0-1-0.1L801.8,899.1z M802.4,901h0.5
		c0.6,0,1-0.3,1-0.8s-0.4-0.8-1-0.8c-0.2,0-0.4,0-0.5,0L802.4,901z M802.4,903.3c0.2,0,0.3,0,0.5,0c0.6,0,1.2-0.2,1.2-0.9
		s-0.5-0.9-1.2-0.9h-0.5L802.4,903.3z"/>
	<path class="st9" d="M806.2,899.1v4.7h-0.6v-4.7H806.2z"/>
	<path class="st9" d="M807.3,899.1c0.4-0.1,0.7-0.1,1.1-0.1c0.5,0,0.9,0.1,1.3,0.3c0.3,0.2,0.4,0.5,0.4,0.8c0,0.5-0.4,0.9-0.8,1l0,0
		c0.6,0.1,1,0.6,1,1.2c0,0.4-0.1,0.7-0.4,1c-0.5,0.3-1.1,0.5-1.6,0.4c-0.3,0-0.6,0-1-0.1L807.3,899.1z M807.9,901h0.5
		c0.6,0,1-0.3,1-0.8s-0.4-0.8-1-0.8c-0.2,0-0.4,0-0.5,0L807.9,901z M807.9,903.3c0.2,0,0.3,0,0.5,0c0.6,0,1.2-0.2,1.2-0.9
		s-0.5-0.9-1.2-0.9h-0.5L807.9,903.3z"/>
	<path class="st9" d="M811.1,899.1h0.6v4.2h2v0.5h-2.6L811.1,899.1z"/>
	<path class="st9" d="M815,899.1v4.7h-0.6v-4.7H815z"/>
	<path class="st9" d="M820.1,901.4c0.2,1.2-0.7,2.3-1.9,2.5c-0.1,0-0.2,0-0.3,0c-1.2,0-2.1-1-2.1-2.2c0-0.1,0-0.1,0-0.2
		c-0.1-1.2,0.8-2.3,2-2.5c0.1,0,0.1,0,0.2,0c1.2,0,2.1,1,2.1,2.2C820.1,901.2,820.1,901.3,820.1,901.4z M816.4,901.4
		c0,1,0.5,1.9,1.5,1.9s1.5-0.9,1.5-2s-0.5-1.9-1.5-1.9S816.4,900.4,816.4,901.4L816.4,901.4z"/>
	<path class="st9" d="M821.6,899.6h-1.4V899h3.5v0.5h-1.4v4.2h-0.6L821.6,899.6z"/>
	<path class="st9" d="M826.6,901.6h-1.8v1.7h2v0.5h-2.7v-4.7h2.5v0.5h-1.9v1.5h1.8L826.6,901.6z"/>
	<path class="st9" d="M830.9,903.6c-0.4,0.2-0.8,0.2-1.3,0.2c-1.2,0.1-2.3-0.9-2.3-2.1c0-0.1,0-0.2,0-0.3c-0.1-1.3,0.9-2.4,2.2-2.5
		c0.1,0,0.2,0,0.3,0c0.4,0,0.8,0.1,1.1,0.2l-0.2,0.5c-0.3-0.1-0.7-0.2-1-0.2c-1-0.1-1.8,0.7-1.8,1.6c0,0.1,0,0.2,0,0.3
		c-0.1,0.9,0.6,1.8,1.5,1.9c0.1,0,0.2,0,0.3,0c0.3,0,0.7-0.1,1-0.2L830.9,903.6z"/>
	<path class="st9" d="M832.5,902.3l-0.5,1.5h-0.6l1.6-4.7h0.7l1.6,4.7h-0.7l-0.5-1.5H832.5z M834,901.8l-0.5-1.4
		c-0.1-0.3-0.2-0.6-0.3-0.9l0,0c-0.1,0.3-0.2,0.6-0.2,0.8l-0.5,1.4H834z"/>
	<path class="st9" d="M875.1,763.7c0.4-0.1,0.8-0.1,1.2-0.1c0.5,0,0.9,0.1,1.3,0.4c0.3,0.3,0.4,0.6,0.4,1c0,0.4-0.1,0.7-0.4,1
		c-0.4,0.4-0.9,0.5-1.4,0.5c-0.2,0-0.3,0-0.5,0v1.8h-0.6V763.7z M875.7,765.9c0.2,0,0.3,0,0.5,0c0.7,0,1.2-0.4,1.2-1
		s-0.4-0.9-1.1-0.9c-0.2,0-0.4,0-0.6,0V765.9z"/>
	<path class="st9" d="M879,766.8l-0.5,1.5h-0.6l1.6-4.7h0.7l1.6,4.7h-0.7l-0.5-1.5H879z M880.6,766.4l-0.5-1.4
		c-0.1-0.3-0.2-0.6-0.3-0.9l0,0c-0.1,0.3-0.2,0.6-0.2,0.8l-0.5,1.4H880.6z M880.9,762.5l-0.9,0.8h-0.5l0.7-0.8H880.9z"/>
	<path class="st9" d="M882.9,764.1h-1.4v-0.5h3.5v0.5h-1.4v4.2h-0.6L882.9,764.1z"/>
	<path class="st9" d="M886.1,763.6v4.7h-0.6v-4.7L886.1,763.6z"/>
	<path class="st9" d="M891.2,765.9c0.2,1.2-0.7,2.3-1.9,2.5c-0.1,0-0.2,0-0.3,0c-1.2,0-2.1-1-2.1-2.2c0-0.1,0-0.1,0-0.2
		c-0.1-1.2,0.8-2.3,2-2.5c0.1,0,0.1,0,0.2,0c1.2,0,2.1,1,2.1,2.2C891.2,765.8,891.2,765.8,891.2,765.9z M887.5,766
		c0,1,0.5,1.9,1.5,1.9s1.5-0.9,1.5-2s-0.5-1.9-1.5-1.9S887.5,765,887.5,766L887.5,766z"/>
	<path class="st9" d="M850.3,750.1c-0.4,0.2-0.8,0.2-1.3,0.2c-1.2,0.1-2.3-0.9-2.3-2.1c0-0.1,0-0.2,0-0.3c-0.1-1.3,0.9-2.4,2.2-2.5
		c0.1,0,0.2,0,0.3,0c0.4,0,0.8,0.1,1.1,0.2l-0.2,0.5c-0.3-0.1-0.7-0.2-1-0.2c-1-0.1-1.8,0.7-1.8,1.6c0,0.1,0,0.2,0,0.3
		c-0.1,0.9,0.6,1.8,1.5,1.9c0.1,0,0.2,0,0.3,0c0.3,0,0.7-0.1,1-0.2L850.3,750.1z"/>
	<path class="st9" d="M854.9,747.8c0.2,1.2-0.7,2.3-1.9,2.5c-0.1,0-0.2,0-0.3,0c-1.2,0-2.1-1-2.1-2.2c0-0.1,0-0.1,0-0.2
		c-0.1-1.2,0.8-2.3,2-2.5c0.1,0,0.1,0,0.2,0c1.2,0,2.1,1,2.1,2.2C854.9,747.7,854.9,747.8,854.9,747.8z M851.2,747.9
		c0,1,0.5,1.9,1.5,1.9s1.5-0.9,1.5-2s-0.5-1.9-1.5-1.9S851.2,746.9,851.2,747.9L851.2,747.9z"/>
	<path class="st9" d="M855.7,745.6c0.4-0.1,0.8-0.1,1.2-0.1c0.5,0,1,0.1,1.4,0.4c0.2,0.2,0.4,0.6,0.4,0.9c0,0.6-0.4,1-0.9,1.2l0,0
		c0.4,0.2,0.7,0.6,0.7,1c0.1,0.4,0.2,0.9,0.4,1.3h-0.6c-0.1-0.4-0.2-0.7-0.3-1.1c-0.1-0.7-0.4-0.9-1-0.9h-0.6v2h-0.6L855.7,745.6z
		 M856.3,747.7h0.6c0.7,0,1.1-0.4,1.1-0.9s-0.4-0.9-1.1-0.9c-0.2,0-0.4,0-0.6,0.1L856.3,747.7z"/>
	<path class="st9" d="M859.5,745.6c0.4-0.1,0.8-0.1,1.2-0.1c0.5,0,1,0.1,1.4,0.4c0.2,0.2,0.4,0.6,0.4,0.9c0,0.6-0.4,1-0.9,1.2l0,0
		c0.4,0.2,0.7,0.6,0.7,1c0.1,0.4,0.2,0.9,0.4,1.3h-0.6c-0.1-0.4-0.2-0.7-0.3-1.1c-0.1-0.7-0.4-0.9-1-0.9h-0.6v2h-0.6L859.5,745.6z
		 M860.1,747.7h0.6c0.7,0,1.1-0.4,1.1-0.9s-0.4-0.9-1.1-0.9c-0.2,0-0.4,0-0.6,0.1L860.1,747.7z"/>
	<path class="st9" d="M865.7,748h-1.8v1.7h2v0.5h-2.7v-4.7h2.5v0.5h-1.9v1.5h1.8L865.7,748z"/>
	<path class="st9" d="M866.7,745.6c0.4-0.1,0.9-0.1,1.3-0.1c0.7-0.1,1.4,0.2,1.9,0.6c0.5,0.4,0.7,1.1,0.7,1.7c0,0.7-0.2,1.3-0.7,1.8
		c-0.6,0.5-1.3,0.7-2.1,0.7c-0.4,0-0.7,0-1.1-0.1L866.7,745.6z M867.3,749.8c0.2,0,0.4,0,0.6,0c1,0.1,1.9-0.6,2-1.6
		c0-0.1,0-0.3,0-0.4c0.1-0.9-0.6-1.7-1.5-1.8c-0.1,0-0.3,0-0.4,0c-0.2,0-0.5,0-0.7,0.1V749.8z"/>
	<path class="st9" d="M875.4,747.8c0.1,1.2-0.7,2.3-2,2.4c-0.1,0-0.2,0-0.2,0c-1.2,0-2.1-1-2.1-2.2c0-0.1,0-0.1,0-0.2
		c-0.1-1.2,0.8-2.3,2-2.5c0.1,0,0.1,0,0.2,0c1.2,0,2.1,1,2.1,2.2C875.4,747.6,875.4,747.7,875.4,747.8z M871.7,747.9
		c0,1,0.5,1.9,1.5,1.9s1.5-0.9,1.5-2s-0.5-1.9-1.5-1.9S871.7,746.9,871.7,747.9L871.7,747.9z"/>
	<path class="st9" d="M876.2,745.6c0.4-0.1,0.8-0.1,1.2-0.1c0.5,0,1,0.1,1.4,0.4c0.2,0.2,0.4,0.6,0.4,0.9c0,0.6-0.4,1-0.9,1.2l0,0
		c0.4,0.2,0.7,0.6,0.7,1c0.1,0.4,0.2,0.9,0.4,1.3h-0.6c-0.1-0.4-0.2-0.7-0.3-1.1c-0.1-0.7-0.4-0.9-1-0.9h-0.6v2h-0.6L876.2,745.6z
		 M876.8,747.7h0.6c0.7,0,1.1-0.4,1.1-0.9s-0.4-0.9-1.1-0.9c-0.2,0-0.4,0-0.6,0.1L876.8,747.7z"/>
	<path class="st9" d="M884.7,750.1c-0.4,0.2-0.8,0.2-1.3,0.2c-1.2,0.1-2.3-0.9-2.3-2.1c0-0.1,0-0.2,0-0.3c-0.1-1.3,0.9-2.4,2.2-2.5
		c0.1,0,0.2,0,0.3,0c0.4,0,0.8,0.1,1.1,0.2l-0.2,0.5c-0.3-0.1-0.7-0.2-1-0.2c-1-0.1-1.8,0.7-1.8,1.6c0,0.1,0,0.2,0,0.3
		c-0.1,0.9,0.6,1.8,1.5,1.9c0.1,0,0.2,0,0.3,0c0.3,0,0.7-0.1,1-0.2L884.7,750.1z"/>
	<path class="st9" d="M887.9,748h-1.8v1.7h2v0.5h-2.7v-4.7h2.5v0.5h-1.9v1.5h1.8V748z"/>
	<path class="st9" d="M888.9,750.3v-4.7h0.7l1.5,2.4c0.3,0.5,0.6,1,0.8,1.5l0,0c-0.1-0.6-0.1-1.2-0.1-1.9v-2h0.6v4.7h-0.6l-1.5-2.4
		c-0.3-0.5-0.6-1-0.9-1.6l0,0c0,0.6,0,1.2,0,2v2L888.9,750.3z"/>
	<path class="st9" d="M894.4,746H893v-0.5h3.5v0.5H895v4.2h-0.6V746z"/>
	<path class="st9" d="M897,745.6c0.4-0.1,0.8-0.1,1.2-0.1c0.5,0,1,0.1,1.4,0.4c0.2,0.2,0.4,0.6,0.4,0.9c0,0.6-0.4,1-0.9,1.2l0,0
		c0.4,0.2,0.7,0.6,0.7,1c0.1,0.4,0.2,0.9,0.4,1.3h-0.6c-0.1-0.4-0.2-0.7-0.3-1.1c-0.1-0.7-0.4-0.9-1-0.9h-0.6v2H897L897,745.6z
		 M897.6,747.7h0.6c0.7,0,1.1-0.4,1.1-0.9s-0.4-0.9-1.1-0.9c-0.2,0-0.4,0-0.6,0.1L897.6,747.7z"/>
	<path class="st9" d="M901.5,748.8l-0.5,1.5h-0.6l1.6-4.7h0.7l1.6,4.8h-0.7l-0.5-1.5L901.5,748.8z M903.1,748.3l-0.5-1.4
		c-0.1-0.3-0.2-0.6-0.3-0.9l0,0c-0.1,0.3-0.2,0.6-0.2,0.8l-0.5,1.4H903.1z"/>
	<path class="st9" d="M905.1,745.5h0.6v4.2h2v0.5h-2.6V745.5z"/>
	<path class="st9" d="M998.4,674.6c0.4-0.1,0.7-0.1,1.1-0.1c0.5,0,0.9,0.1,1.3,0.3c0.3,0.2,0.4,0.5,0.4,0.8c0,0.5-0.4,0.9-0.8,1l0,0
		c0.6,0.1,1,0.6,1,1.2c0,0.4-0.1,0.7-0.4,1c-0.5,0.3-1.1,0.5-1.6,0.4c-0.3,0-0.6,0-1-0.1L998.4,674.6z M999,676.5h0.5
		c0.6,0,1-0.3,1-0.8s-0.4-0.8-1-0.8c-0.2,0-0.4,0-0.5,0L999,676.5z M999,678.8c0.2,0,0.3,0,0.5,0c0.6,0,1.2-0.2,1.2-0.9
		s-0.5-0.9-1.2-0.9H999L999,678.8z"/>
	<path class="st9" d="M1002.1,674.5h0.6v4.2h2v0.5h-2.6L1002.1,674.5z"/>
	<path class="st9" d="M1009.2,676.8c0.2,1.2-0.7,2.3-1.9,2.5c-0.1,0-0.2,0-0.3,0c-1.2,0-2.1-1-2.1-2.2c0-0.1,0-0.1,0-0.2
		c-0.1-1.2,0.8-2.3,2-2.5c0.1,0,0.1,0,0.2,0c1.2,0,2.1,1,2.1,2.2C1009.2,676.7,1009.2,676.8,1009.2,676.8z M1005.5,676.9
		c0,1,0.5,1.9,1.5,1.9s1.5-0.9,1.5-2s-0.5-1.9-1.5-1.9S1005.5,675.9,1005.5,676.9L1005.5,676.9z"/>
	<path class="st9" d="M1013.3,679.1c-0.4,0.2-0.8,0.2-1.3,0.2c-1.2,0.1-2.3-0.9-2.3-2.1c0-0.1,0-0.2,0-0.3c-0.1-1.3,0.9-2.4,2.2-2.5
		c0.1,0,0.2,0,0.3,0c0.4,0,0.8,0.1,1.1,0.2l-0.2,0.5c-0.3-0.1-0.7-0.2-1-0.2c-1-0.1-1.8,0.7-1.8,1.6c0,0.1,0,0.2,0,0.3
		c-0.1,0.9,0.6,1.8,1.5,1.9c0.1,0,0.2,0,0.3,0c0.3,0,0.7-0.1,1-0.2L1013.3,679.1z"/>
	<path class="st9" d="M1017.9,676.8c0.2,1.2-0.7,2.3-1.9,2.5c-0.1,0-0.2,0-0.3,0c-1.2,0-2.1-1-2.1-2.2c0-0.1,0-0.1,0-0.2
		c-0.1-1.2,0.8-2.3,2-2.5c0.1,0,0.1,0,0.2,0c1.2,0,2.1,1,2.1,2.2C1017.9,676.7,1017.9,676.8,1017.9,676.8z M1014.3,676.9
		c0,1,0.6,1.9,1.5,1.9s1.5-0.9,1.5-2s-0.5-1.9-1.5-1.9S1014.3,675.9,1014.3,676.9z"/>
	<path class="st9" d="M1002.4,683c0.4-0.1,0.9-0.1,1.3-0.1c0.7-0.1,1.4,0.2,1.9,0.6c0.5,0.4,0.7,1.1,0.7,1.7c0,0.7-0.2,1.3-0.7,1.8
		c-0.6,0.5-1.3,0.7-2.1,0.7c-0.4,0-0.7,0-1.1-0.1L1002.4,683z M1003,687.2c0.2,0,0.4,0,0.6,0c1,0.1,1.9-0.6,2-1.6c0-0.1,0-0.3,0-0.4
		c0.1-0.9-0.6-1.7-1.5-1.8c-0.1,0-0.3,0-0.4,0c-0.2,0-0.5,0-0.7,0.1V687.2z"/>
	<path class="st9" d="M1007.7,686.2l-0.5,1.5h-0.6l1.6-4.7h0.7l1.6,4.7h-0.7l-0.5-1.5H1007.7z M1009.3,685.7l-0.5-1.4
		c-0.1-0.3-0.2-0.6-0.3-0.9l0,0c-0.1,0.3-0.2,0.6-0.2,0.8l-0.5,1.4H1009.3z"/>
	<path class="st9" d="M1011.1,686.9c0.3,0.2,0.7,0.3,1.1,0.3c0.6,0,1-0.3,1-0.8s-0.3-0.7-0.9-0.9s-1.3-0.7-1.3-1.3
		c0-0.8,0.7-1.3,1.4-1.3c0,0,0.1,0,0.1,0c0.3,0,0.7,0.1,1,0.2l-0.2,0.5c-0.3-0.1-0.6-0.2-0.9-0.2c-0.6,0-0.9,0.4-0.9,0.7
		s0.3,0.7,0.9,0.9s1.2,0.7,1.2,1.4s-0.5,1.4-1.7,1.4c-0.4,0-0.8-0.1-1.2-0.3L1011.1,686.9z"/>
	<path class="st9" d="M986.9,695.9c-0.4,0.2-0.8,0.2-1.3,0.2c-1.2,0.1-2.3-0.9-2.3-2.1c0-0.1,0-0.2,0-0.3c-0.1-1.3,0.9-2.4,2.2-2.5
		c0.1,0,0.2,0,0.3,0c0.4,0,0.8,0.1,1.1,0.2l-0.2,0.5c-0.3-0.1-0.7-0.2-1-0.2c-1-0.1-1.8,0.7-1.8,1.6c0,0.1,0,0.2,0,0.3
		c-0.1,0.9,0.6,1.8,1.5,1.9c0.1,0,0.2,0,0.3,0c0.3,0,0.7-0.1,1-0.2L986.9,695.9z"/>
	<path class="st9" d="M991.5,693.6c0.2,1.2-0.7,2.3-1.9,2.5c-0.1,0-0.2,0-0.3,0c-1.2,0-2.1-1-2.1-2.2c0-0.1,0-0.1,0-0.2
		c-0.1-1.2,0.8-2.3,2-2.5c0.1,0,0.1,0,0.2,0c1.2,0,2.1,1,2.1,2.2C991.6,693.5,991.6,693.6,991.5,693.6z M987.9,693.7
		c0,1,0.5,1.9,1.5,1.9s1.5-0.9,1.5-2s-0.5-1.9-1.5-1.9S987.9,692.7,987.9,693.7z"/>
	<path class="st9" d="M996.4,693.6c0.2,1.2-0.7,2.3-1.9,2.5c-0.1,0-0.2,0-0.3,0c-1.2,0-2.1-1-2.1-2.2c0-0.1,0-0.1,0-0.2
		c-0.1-1.2,0.8-2.3,2-2.5c0.1,0,0.1,0,0.2,0c1.2,0,2.1,1,2.1,2.2C996.4,693.5,996.4,693.6,996.4,693.6z M992.7,693.7
		c0,1,0.5,1.9,1.5,1.9s1.5-0.9,1.5-2s-0.5-1.9-1.5-1.9S992.7,692.7,992.7,693.7z"/>
	<path class="st9" d="M997.2,691.4c0.4-0.1,0.8-0.1,1.2-0.1c0.5-0.1,1,0.1,1.4,0.4c0.2,0.2,0.4,0.6,0.4,0.9c0,0.6-0.4,1.1-0.9,1.2
		l0,0c0.4,0.2,0.7,0.6,0.7,1c0.1,0.4,0.2,0.9,0.4,1.3h-0.6c-0.1-0.4-0.2-0.7-0.3-1.1c-0.1-0.7-0.4-0.9-1-0.9h-0.6v2h-0.6
		L997.2,691.4z M997.8,693.5h0.6c0.7,0,1.1-0.4,1.1-0.9s-0.4-0.9-1.1-0.9c-0.2,0-0.4,0-0.6,0.1L997.8,693.5z"/>
	<path class="st9" d="M1000.9,691.4c0.4-0.1,0.9-0.1,1.3-0.1c0.7-0.1,1.4,0.2,1.9,0.6c0.5,0.4,0.7,1.1,0.7,1.7
		c0,0.7-0.2,1.3-0.7,1.8c-0.6,0.5-1.3,0.7-2.1,0.7c-0.4,0-0.7,0-1.1-0.1L1000.9,691.4z M1001.5,695.6c0.2,0,0.4,0,0.6,0
		c1,0.1,1.9-0.6,2-1.6c0-0.1,0-0.3,0-0.4c0.1-0.9-0.6-1.7-1.5-1.8c-0.1,0-0.3,0-0.4,0c-0.2,0-0.5,0-0.7,0.1V695.6z"/>
	<path class="st9" d="M1008,693.8h-1.8v1.7h2v0.5h-2.7v-4.8h2.5v0.5h-1.9v1.5h1.8L1008,693.8z"/>
	<path class="st9" d="M1009,696.1v-4.8h0.7l1.5,2.4c0.3,0.5,0.6,1,0.8,1.5l0,0c-0.1-0.6-0.1-1.2-0.1-1.9v-2h0.6v4.7h-0.6l-1.5-2.4
		c-0.3-0.5-0.6-1-0.9-1.6l0,0c0,0.6,0,1.2,0,2v2L1009,696.1z"/>
	<path class="st9" d="M1014.4,694.6l-0.5,1.5h-0.6l1.6-4.7h0.7l1.6,4.7h-0.7l-0.5-1.5H1014.4z M1015.9,694.1l-0.5-1.4
		c-0.1-0.3-0.2-0.6-0.3-0.9l0,0c-0.1,0.3-0.2,0.6-0.2,0.8l-0.5,1.4H1015.9z"/>
	<path class="st9" d="M1021.1,695.9c-0.4,0.2-0.8,0.2-1.2,0.2l-0.2,0.3c0.3,0,0.5,0.3,0.5,0.5c0,0.4-0.4,0.6-0.7,0.6
		c-0.2,0-0.3,0-0.5-0.1l0.1-0.3c0.1,0.1,0.3,0.1,0.4,0.1c0.2,0,0.3-0.1,0.3-0.2s-0.2-0.3-0.6-0.3l0.3-0.5c-1.2-0.1-2.1-1.1-2-2.3
		c0,0,0,0,0,0c-0.1-1.3,0.9-2.4,2.2-2.5c0.1,0,0.2,0,0.3,0c0.4,0,0.8,0.1,1.1,0.2l-0.2,0.5c-0.3-0.1-0.7-0.2-1-0.2
		c-1-0.1-1.8,0.7-1.8,1.6c0,0.1,0,0.2,0,0.3c-0.1,0.9,0.6,1.8,1.5,1.9c0.1,0,0.2,0,0.3,0c0.3,0,0.7-0.1,1-0.2L1021.1,695.9z"/>
	<path class="st9" d="M1025.8,693.6c0.2,1.2-0.7,2.3-1.9,2.5c-0.1,0-0.2,0-0.3,0c-1.2,0-2.1-1-2.1-2.2c0-0.1,0-0.1,0-0.2
		c-0.1-1.2,0.8-2.3,2-2.5c0.1,0,0.1,0,0.2,0c1.2,0,2.1,1,2.1,2.2C1025.8,693.5,1025.8,693.6,1025.8,693.6z M1022.1,693.7
		c0,1,0.6,1.9,1.5,1.9s1.5-0.9,1.5-2s-0.5-1.9-1.5-1.9S1022.1,692.7,1022.1,693.7L1022.1,693.7z M1022.8,691c0-0.4,0.2-0.7,0.5-0.7
		c0.1,0,0.3,0.1,0.4,0.1c0.1,0.1,0.2,0.1,0.3,0.1c0.1,0,0.2,0,0.2-0.3h0.3c0,0.4-0.2,0.7-0.5,0.7c-0.2,0-0.3-0.1-0.4-0.1
		c-0.1-0.1-0.2-0.1-0.3-0.1c-0.1,0-0.2,0.1-0.2,0.3L1022.8,691z"/>
	<path class="st9" d="M1029,693.8h-1.8v1.7h2v0.5h-2.7v-4.8h2.6v0.5h-1.9v1.5h1.8L1029,693.8z"/>
	<path class="st9" d="M1029.9,695.3c0.3,0.2,0.7,0.3,1.1,0.3c0.6,0,1-0.3,1-0.8s-0.3-0.7-0.9-0.9s-1.3-0.7-1.3-1.3
		c0.1-0.7,0.7-1.3,1.5-1.2c0,0,0,0,0,0c0.3,0,0.7,0.1,1,0.2l-0.2,0.5c-0.3-0.1-0.6-0.2-0.9-0.2c-0.6,0-0.9,0.4-0.9,0.7
		s0.3,0.7,0.9,0.9s1.2,0.7,1.2,1.4s-0.5,1.4-1.7,1.4c-0.4,0-0.8-0.1-1.2-0.3L1029.9,695.3z"/>
	<path class="st9" d="M922.8,645.3l-0.5,1.5h-0.7l1.7-4.7h0.8l1.7,4.7h-0.7l-0.5-1.5H922.8z M924.5,644.8l-0.5-1.4
		c-0.1-0.3-0.2-0.6-0.3-0.9l0,0c-0.1,0.3-0.2,0.6-0.3,0.8l-0.5,1.4H924.5z"/>
	<path class="st9" d="M927,642v2.8c0,1.1,0.5,1.5,1.2,1.5s1.2-0.5,1.2-1.5V642h0.6v2.8c0,1.5-0.8,2-1.9,2s-1.8-0.5-1.8-2V642
		L927,642z"/>
	<path class="st9" d="M931,642.1c0.4-0.1,0.9-0.1,1.3-0.1c0.7-0.1,1.4,0.2,2,0.6c0.5,0.4,0.7,1.1,0.7,1.7c0,0.7-0.2,1.3-0.7,1.8
		c-0.6,0.5-1.4,0.7-2.2,0.7c-0.4,0-0.8,0-1.2-0.1L931,642.1z M931.7,646.3c0.2,0,0.4,0,0.6,0c1,0.1,1.9-0.6,2.1-1.6
		c0-0.1,0-0.3,0-0.4c0-1.1-0.7-1.8-2-1.8c-0.2,0-0.5,0-0.7,0.1L931.7,646.3z"/>
	<path class="st9" d="M936.5,642v4.7h-0.6V642H936.5z"/>
	<path class="st9" d="M938.6,642.5h-1.5V642h3.6v0.5h-1.5v4.2h-0.6V642.5z"/>
	<path class="st9" d="M945.3,644.3c0.1,1.2-0.8,2.3-2,2.5c-0.1,0-0.2,0-0.3,0c-1.2,0-2.2-1-2.2-2.2c0-0.1,0-0.1,0-0.2
		c-0.1-1.3,0.8-2.4,2.1-2.5c0.1,0,0.1,0,0.2,0c1.2,0,2.2,0.9,2.2,2.1C945.3,644.1,945.3,644.2,945.3,644.3z M941.5,644.4
		c-0.1,0.9,0.6,1.8,1.5,1.9c0,0,0.1,0,0.1,0c1,0,1.6-0.9,1.6-2c0.1-0.9-0.5-1.8-1.5-1.9c0,0-0.1,0-0.1,0
		C942,642.4,941.5,643.4,941.5,644.4L941.5,644.4z M944.1,640.9l-0.9,0.8h-0.5l0.7-0.8H944.1z"/>
	<path class="st9" d="M946.1,642.1c0.4-0.1,0.8-0.1,1.2-0.1c0.5,0,1,0.1,1.4,0.4c0.3,0.2,0.4,0.6,0.4,0.9c0,0.6-0.4,1.1-0.9,1.2l0,0
		c0.4,0.2,0.7,0.6,0.7,1c0.1,0.4,0.2,0.9,0.4,1.3h-0.7c-0.1-0.4-0.3-0.7-0.3-1.1c-0.2-0.7-0.4-0.9-1-0.9h-0.6v2h-0.6L946.1,642.1z
		 M946.7,644.2h0.6c0.7,0,1.1-0.4,1.1-0.9s-0.5-0.9-1.1-0.9c-0.2,0-0.4,0-0.6,0.1L946.7,644.2z"/>
	<path class="st9" d="M950.7,642v4.7H950V642H950.7z"/>
	<path class="st9" d="M956,644.3c0.1,1.2-0.8,2.3-2,2.5c-0.1,0-0.2,0-0.3,0c-1.2,0-2.2-1-2.2-2.2c0-0.1,0-0.1,0-0.2
		c-0.1-1.3,0.8-2.4,2.1-2.5c0.1,0,0.1,0,0.2,0c1.2,0,2.2,0.9,2.2,2.1C956,644.1,956,644.2,956,644.3z M952.2,644.4
		c-0.1,0.9,0.6,1.8,1.5,1.9c0,0,0.1,0,0.1,0c1,0,1.6-0.9,1.6-2c0.1-0.9-0.5-1.8-1.5-1.9c0,0-0.1,0-0.1,0
		C952.7,642.4,952.2,643.4,952.2,644.4L952.2,644.4z"/>
	<path class="st9" d="M934.4,689.3h0.6v4.2h2v0.5h-2.6V689.3z"/>
	<path class="st9" d="M938.4,692.5l-0.5,1.5h-0.6l1.6-4.7h0.7l1.6,4.7h-0.7l-0.5-1.5H938.4z M939.9,692l-0.5-1.4
		c-0.1-0.3-0.2-0.6-0.3-0.9l0,0c-0.1,0.3-0.2,0.6-0.2,0.8l-0.5,1.4H939.9z"/>
	<path class="st9" d="M941.9,689.3c0.4-0.1,0.7-0.1,1.1-0.1c0.5,0,0.9,0.1,1.3,0.3c0.3,0.2,0.4,0.5,0.4,0.8c0,0.5-0.4,0.9-0.8,1l0,0
		c0.6,0.1,1,0.6,1,1.2c0,0.4-0.1,0.7-0.4,1c-0.5,0.3-1.1,0.5-1.6,0.4c-0.3,0-0.6,0-1-0.1L941.9,689.3z M942.5,691.3h0.5
		c0.6,0,1-0.3,1-0.8s-0.4-0.8-1-0.8c-0.2,0-0.4,0-0.5,0L942.5,691.3z M942.5,693.5c0.2,0,0.3,0,0.5,0c0.6,0,1.2-0.2,1.2-0.9
		s-0.5-0.9-1.2-0.9h-0.5L942.5,693.5z"/>
	<path class="st9" d="M949.8,691.6c0.2,1.2-0.7,2.3-1.9,2.5c-0.1,0-0.2,0-0.3,0c-1.2,0-2.1-1-2.1-2.2c0-0.1,0-0.1,0-0.2
		c-0.1-1.2,0.8-2.3,2-2.5c0.1,0,0.1,0,0.2,0c1.2,0,2.1,1,2.1,2.2C949.8,691.4,949.8,691.5,949.8,691.6z M946.1,691.7
		c0,1,0.5,1.9,1.5,1.9s1.5-0.9,1.5-2s-0.5-1.9-1.5-1.9S946.1,690.6,946.1,691.7L946.1,691.7z"/>
	<path class="st9" d="M950.5,689.3c0.4-0.1,0.8-0.1,1.2-0.1c0.5-0.1,1,0.1,1.4,0.4c0.2,0.2,0.4,0.6,0.4,0.9c0,0.6-0.4,1.1-0.9,1.2
		l0,0c0.4,0.2,0.7,0.6,0.7,1c0.1,0.4,0.2,0.9,0.4,1.3H953c-0.1-0.4-0.2-0.7-0.3-1.1c-0.1-0.7-0.4-0.9-1-0.9h-0.6v2h-0.6L950.5,689.3
		z M951.1,691.5h0.6c0.7,0,1.1-0.4,1.1-0.9s-0.4-0.9-1.1-0.9c-0.2,0-0.4,0-0.6,0.1L951.1,691.5z"/>
	<path class="st9" d="M955.1,692.5l-0.5,1.5H954l1.6-4.7h0.7l1.6,4.7h-0.7l-0.5-1.5H955.1z M956.6,692l-0.5-1.4
		c-0.1-0.3-0.2-0.6-0.3-0.9l0,0c-0.1,0.3-0.2,0.6-0.2,0.8l-0.5,1.4H956.6z"/>
	<path class="st9" d="M960,691.9v0.5h-1.7v-0.5H960z"/>
	<path class="st9" d="M937.5,698.2h-1.4v-0.5h3.5v0.5h-1.4v4.2h-0.6L937.5,698.2z"/>
	<path class="st9" d="M944,700c0.2,1.2-0.7,2.3-1.9,2.5c-0.1,0-0.2,0-0.3,0c-1.2,0-2.1-1-2.1-2.2c0-0.1,0-0.1,0-0.2
		c-0.1-1.2,0.8-2.3,2-2.5c0.1,0,0.1,0,0.2,0c1.2,0,2.1,1,2.1,2.2C944,699.8,944,699.9,944,700z M940.3,700.1c0,1,0.5,1.9,1.5,1.9
		s1.5-0.9,1.5-2s-0.5-1.9-1.5-1.9S940.3,699,940.3,700.1L940.3,700.1z M942.8,696.6l-0.9,0.8h-0.5l0.7-0.8H942.8z"/>
	<path class="st9" d="M944.7,697.7c0.4-0.1,0.8-0.1,1.2-0.1c0.5,0,1,0.1,1.4,0.4c0.2,0.2,0.4,0.6,0.4,0.9c0,0.6-0.4,1-0.9,1.2l0,0
		c0.4,0.2,0.7,0.6,0.7,1c0.1,0.4,0.2,0.9,0.4,1.3h-0.6c-0.1-0.4-0.2-0.7-0.3-1.1c-0.1-0.7-0.4-0.9-1-0.9h-0.5v2h-0.6L944.7,697.7z
		 M945.3,699.9h0.6c0.7,0,1.1-0.4,1.1-0.9s-0.4-0.9-1.1-0.9c-0.2,0-0.4,0-0.6,0.1L945.3,699.9z"/>
	<path class="st9" d="M949.1,697.7v4.7h-0.6v-4.7H949.1z"/>
	<path class="st9" d="M954.2,700c0.2,1.2-0.7,2.3-1.9,2.5c-0.1,0-0.2,0-0.3,0c-1.2,0-2.1-1-2.1-2.2c0-0.1,0-0.1,0-0.2
		c-0.1-1.2,0.8-2.3,2-2.5c0.1,0,0.1,0,0.2,0c1.2,0,2.1,1,2.1,2.2C954.2,699.8,954.2,699.9,954.2,700z M950.6,700.1
		c0,1,0.5,1.9,1.5,1.9s1.5-0.9,1.5-2s-0.5-1.9-1.5-1.9S950.5,699,950.6,700.1L950.6,700.1z"/>
	<path class="st9" d="M954.9,701.7c0.3,0.2,0.7,0.3,1.1,0.3c0.6,0,1-0.3,1-0.8s-0.3-0.7-0.9-0.9s-1.3-0.7-1.3-1.3
		c0-0.8,0.7-1.3,1.4-1.3c0,0,0.1,0,0.1,0c0.3,0,0.7,0.1,1,0.2l-0.2,0.5c-0.3-0.1-0.6-0.2-0.9-0.2c-0.6,0-0.9,0.4-0.9,0.7
		s0.3,0.7,0.9,0.9s1.2,0.7,1.2,1.4s-0.5,1.4-1.7,1.4c-0.4,0-0.8-0.1-1.2-0.3L954.9,701.7z"/>
	<path class="st9" d="M719.5,172c0.4-0.1,0.8-0.1,1.2-0.1c0.5-0.1,1,0.1,1.4,0.4c0.2,0.2,0.4,0.6,0.4,0.9c0,0.6-0.4,1.1-0.9,1.2l0,0
		c0.4,0.2,0.7,0.6,0.7,1c0.1,0.4,0.2,0.9,0.4,1.3H722c-0.1-0.4-0.2-0.7-0.3-1.1c-0.1-0.6-0.4-0.9-1-0.9h-0.6v2h-0.6L719.5,172z
		 M720.1,174.2h0.6c0.7,0,1.1-0.4,1.1-0.9s-0.4-0.9-1.1-0.9c-0.2,0-0.4,0-0.6,0.1L720.1,174.2z"/>
	<path class="st9" d="M725.7,174.5h-1.8v1.7h2v0.5h-2.7v-4.7h2.5v0.5h-1.9v1.5h1.8L725.7,174.5z"/>
	<path class="st9" d="M726.7,175.9c0.3,0.2,0.7,0.3,1.1,0.3c0.6,0,1-0.3,1-0.8s-0.3-0.7-0.9-0.9s-1.3-0.7-1.3-1.3
		c0-0.8,0.7-1.3,1.4-1.3c0,0,0.1,0,0.1,0c0.3,0,0.7,0.1,1,0.2l-0.2,0.5c-0.3-0.1-0.6-0.2-0.9-0.2c-0.6,0-0.9,0.4-0.9,0.7
		s0.3,0.7,0.9,0.9s1.2,0.7,1.2,1.4s-0.5,1.4-1.7,1.4c-0.4,0-0.8-0.1-1.2-0.3L726.7,175.9z"/>
	<path class="st9" d="M731.1,172.5h-1.4v-0.5h3.5v0.5h-1.4v4.2h-0.6L731.1,172.5z"/>
	<path class="st9" d="M733.9,175.2l-0.5,1.5h-0.6l1.6-4.7h0.7l1.6,4.7h-0.7l-0.5-1.5H733.9z M735.5,174.7l-0.5-1.4
		c-0.1-0.3-0.2-0.6-0.3-0.9l0,0c-0.1,0.3-0.2,0.6-0.2,0.9l-0.5,1.4H735.5z"/>
	<path class="st9" d="M737.8,172v2.8c0,1.1,0.5,1.5,1.1,1.5s1.2-0.5,1.2-1.5V172h0.6v2.8c0,1.4-0.8,2-1.8,2s-1.7-0.6-1.7-2v-2.8
		L737.8,172z"/>
	<path class="st9" d="M741.8,172c0.4-0.1,0.8-0.1,1.2-0.1c0.5-0.1,1,0.1,1.4,0.4c0.2,0.2,0.4,0.6,0.4,0.9c0,0.6-0.4,1.1-0.9,1.2l0,0
		c0.4,0.2,0.7,0.6,0.7,1c0.1,0.4,0.2,0.9,0.4,1.3h-0.6c-0.1-0.4-0.2-0.7-0.3-1.1c-0.1-0.6-0.4-0.9-1-0.9h-0.6v2h-0.6L741.8,172z
		 M742.4,174.2h0.6c0.7,0,1.1-0.4,1.1-0.9s-0.4-0.9-1.1-0.9c-0.2,0-0.4,0-0.6,0.1L742.4,174.2z"/>
	<path class="st9" d="M746.4,175.2l-0.5,1.5h-0.6l1.6-4.7h0.7l1.6,4.7h-0.7l-0.5-1.5H746.4z M747.9,174.7l-0.5-1.4
		c-0.1-0.3-0.2-0.6-0.3-0.9l0,0c-0.1,0.3-0.2,0.6-0.2,0.9l-0.5,1.4H747.9z"/>
	<path class="st9" d="M749.8,176.7V172h0.7l1.5,2.4c0.3,0.5,0.6,1,0.8,1.5l0,0c-0.1-0.6-0.1-1.2-0.1-1.9v-2h0.6v4.7h-0.6l-1.5-2.4
		c-0.3-0.5-0.6-1-0.9-1.6l0,0c0,0.6,0,1.2,0,1.9v2L749.8,176.7z"/>
	<path class="st9" d="M755.4,172.5h-1.4v-0.5h3.4v0.5H756v4.2h-0.6V172.5z"/>
	<path class="st9" d="M760.4,174.5h-1.8v1.7h2v0.5h-2.7v-4.7h2.5v0.5h-1.9v1.5h1.9V174.5z"/>
	<path class="st9" d="M718.8,180.4v2.8c0,1.1,0.5,1.5,1.1,1.5s1.2-0.5,1.2-1.5v-2.8h0.6v2.8c0,1.4-0.8,2-1.8,2s-1.7-0.6-1.7-2v-2.8
		L718.8,180.4z"/>
	<path class="st9" d="M722.7,185.1v-4.7h0.7l1.5,2.4c0.3,0.5,0.6,1,0.8,1.5l0,0c-0.1-0.6-0.1-1.2-0.1-1.9v-2h0.6v4.7h-0.6l-1.5-2.4
		c-0.3-0.5-0.6-1-0.9-1.6l0,0c0,0.6,0,1.2,0,1.9v2L722.7,185.1z"/>
	<path class="st9" d="M727.9,180.4v4.7h-0.6v-4.7H727.9z"/>
	<path class="st9" d="M730,185.1l-1.5-4.7h0.7l0.7,2.3c0.2,0.6,0.4,1.2,0.5,1.8l0,0c0.1-0.6,0.3-1.1,0.5-1.8l0.8-2.3h0.6l-1.7,4.7
		L730,185.1z"/>
	<path class="st9" d="M735.4,182.9h-1.8v1.7h2v0.5h-2.7v-4.7h2.5v0.5h-1.9v1.5h1.9V182.9z"/>
	<path class="st9" d="M736.4,180.4c0.4-0.1,0.8-0.1,1.2-0.1c0.5,0,1,0.1,1.4,0.4c0.2,0.2,0.4,0.6,0.4,0.9c0,0.6-0.4,1-0.9,1.2l0,0
		c0.4,0.2,0.7,0.6,0.7,1c0.1,0.4,0.2,0.9,0.4,1.3h-0.6c-0.1-0.4-0.2-0.7-0.3-1.1c-0.1-0.6-0.4-0.9-1-0.9H737v2h-0.6V180.4z
		 M737,182.6h0.6c0.7,0,1.1-0.4,1.1-0.9s-0.4-0.9-1.1-0.9c-0.2,0-0.4,0-0.6,0.1L737,182.6z"/>
	<path class="st9" d="M740,184.3c0.3,0.2,0.7,0.3,1.1,0.3c0.6,0,1-0.3,1-0.8s-0.3-0.7-0.9-0.9s-1.3-0.7-1.3-1.3
		c0-0.8,0.7-1.3,1.4-1.3c0,0,0.1,0,0.1,0c0.3,0,0.7,0.1,1,0.2l-0.2,0.5c-0.3-0.1-0.6-0.2-0.9-0.2c-0.6,0-0.9,0.4-0.9,0.7
		s0.3,0.7,0.9,0.9s1.2,0.7,1.2,1.4s-0.5,1.4-1.7,1.4c-0.4,0-0.8-0.1-1.2-0.3L740,184.3z"/>
	<path class="st9" d="M744.2,180.4v4.7h-0.6v-4.7H744.2z"/>
	<path class="st9" d="M746.1,180.9h-1.4v-0.5h3.5v0.5h-1.4v4.2h-0.6L746.1,180.9z"/>
	<path class="st9" d="M749,183.6l-0.5,1.5h-0.6l1.6-4.7h0.7l1.6,4.7h-0.7l-0.5-1.5H749z M750.5,183.1l-0.5-1.4
		c-0.1-0.3-0.2-0.6-0.3-0.9l0,0c-0.1,0.3-0.2,0.6-0.2,0.9l-0.5,1.4H750.5z M750.8,179.3l-0.9,0.8h-0.5l0.7-0.8H750.8z"/>
	<path class="st9" d="M752.5,180.4c0.4-0.1,0.8-0.1,1.2-0.1c0.5,0,1,0.1,1.4,0.4c0.2,0.2,0.4,0.6,0.4,0.9c0,0.6-0.4,1-0.9,1.2l0,0
		c0.4,0.2,0.7,0.6,0.7,1c0.1,0.4,0.2,0.9,0.4,1.3h-0.6c-0.1-0.4-0.2-0.7-0.3-1.1c-0.1-0.6-0.4-0.9-1-0.9h-0.6v2h-0.6L752.5,180.4z
		 M753.1,182.6h0.6c0.7,0,1.1-0.4,1.1-0.9s-0.4-0.9-1.1-0.9c-0.2,0-0.4,0-0.6,0.1L753.1,182.6z"/>
	<path class="st9" d="M756.8,180.4v4.7h-0.6v-4.7H756.8z"/>
	<path class="st9" d="M761.9,182.7c0.2,1.2-0.7,2.3-1.9,2.5c-0.1,0-0.2,0-0.3,0c-1.2,0-2.1-1-2.1-2.2c0-0.1,0-0.1,0-0.2
		c-0.1-1.2,0.8-2.3,2-2.5c0.1,0,0.1,0,0.2,0c1.2,0,2.1,1,2.1,2.2C762,182.5,761.9,182.6,761.9,182.7z M758.3,182.8
		c0,1,0.5,1.9,1.5,1.9s1.5-0.9,1.5-2s-0.5-1.9-1.5-1.9S758.3,181.7,758.3,182.8L758.3,182.8z"/>
	<path class="st9" d="M675.1,813.2c0.4-0.1,0.7-0.1,1.1-0.1c0.5,0,0.9,0.1,1.3,0.3c0.3,0.2,0.4,0.5,0.4,0.8c0,0.5-0.4,0.9-0.8,1l0,0
		c0.6,0.1,1,0.6,1,1.2c0,0.4-0.1,0.7-0.4,1c-0.5,0.3-1.1,0.5-1.6,0.4c-0.3,0-0.6,0-1-0.1L675.1,813.2z M675.7,815.1h0.5
		c0.6,0,1-0.3,1-0.8s-0.4-0.8-1-0.8c-0.2,0-0.4,0-0.5,0L675.7,815.1z M675.7,817.3c0.2,0,0.3,0,0.5,0c0.6,0,1.2-0.2,1.2-0.9
		s-0.5-0.9-1.2-0.9h-0.5L675.7,817.3z"/>
	<path class="st9" d="M678.8,813.1h0.6v4.2h2v0.5h-2.6L678.8,813.1z"/>
	<path class="st9" d="M685.9,815.4c0.2,1.2-0.7,2.3-1.9,2.5c-0.1,0-0.2,0-0.3,0c-1.2,0-2.1-1-2.1-2.2c0-0.1,0-0.1,0-0.2
		c-0.1-1.2,0.8-2.3,2-2.5c0.1,0,0.1,0,0.2,0c1.2,0,2.1,1,2.1,2.2C685.9,815.3,685.9,815.3,685.9,815.4z M682.3,815.5
		c0,1,0.5,1.9,1.5,1.9s1.5-0.9,1.5-2s-0.5-1.9-1.5-1.9S682.3,814.4,682.3,815.5z"/>
	<path class="st9" d="M690,817.7c-0.4,0.2-0.8,0.2-1.3,0.2c-1.2,0.1-2.3-0.9-2.3-2.1c0-0.1,0-0.2,0-0.3c-0.1-1.3,0.9-2.4,2.2-2.5
		c0.1,0,0.2,0,0.3,0c0.4,0,0.8,0.1,1.1,0.2l-0.2,0.5c-0.3-0.1-0.7-0.2-1-0.2c-1-0.1-1.8,0.7-1.8,1.6c0,0.1,0,0.2,0,0.3
		c-0.1,0.9,0.6,1.8,1.5,1.9c0.1,0,0.2,0,0.3,0c0.3,0,0.7-0.1,1-0.2L690,817.7z"/>
	<path class="st9" d="M694.7,815.4c0.2,1.2-0.7,2.3-1.9,2.5c-0.1,0-0.2,0-0.3,0c-1.2,0-2.1-1-2.1-2.2c0-0.1,0-0.1,0-0.2
		c-0.1-1.2,0.8-2.3,2-2.5c0.1,0,0.1,0,0.2,0c1.2,0,2.1,1,2.1,2.2C694.7,815.3,694.7,815.3,694.7,815.4z M691,815.5
		c0,1,0.5,1.9,1.5,1.9s1.5-0.9,1.5-2s-0.5-1.9-1.5-1.9S691,814.4,691,815.5L691,815.5z"/>
	<path class="st9" d="M696.9,813.1h0.6v4.2h2v0.5h-2.6L696.9,813.1z"/>
	<path class="st9" d="M682.9,717.6l-0.5,1.5h-0.6l1.6-4.8h0.7l1.6,4.7h-0.7l-0.5-1.5L682.9,717.6z M684.5,717.1l-0.5-1.4
		c-0.1-0.3-0.2-0.6-0.3-0.9l0,0c-0.1,0.3-0.2,0.6-0.2,0.8l-0.5,1.4H684.5z"/>
	<path class="st9" d="M689.9,718.8c-0.5,0.2-1,0.3-1.5,0.3c-1.2,0.1-2.3-0.8-2.4-2c0-0.1,0-0.3,0-0.4c0-1.3,1-2.4,2.3-2.4
		c0.1,0,0.2,0,0.3,0c0.4,0,0.8,0.1,1.2,0.2l-0.2,0.5c-0.3-0.1-0.7-0.2-1-0.2c-1-0.1-1.8,0.7-1.9,1.6c0,0.1,0,0.2,0,0.3
		c-0.1,1,0.6,1.8,1.5,1.9c0.1,0,0.2,0,0.3,0c0.3,0,0.6,0,0.8-0.1v-1.4h-1v-0.5h1.5L689.9,718.8z"/>
	<path class="st9" d="M690.8,714.4c0.4-0.1,0.8-0.1,1.2-0.1c0.5-0.1,1,0.1,1.4,0.4c0.2,0.2,0.4,0.6,0.4,0.9c0,0.6-0.4,1.1-0.9,1.2
		l0,0c0.4,0.2,0.7,0.6,0.7,1c0.1,0.4,0.2,0.9,0.4,1.3h-0.6c-0.1-0.4-0.2-0.7-0.3-1.1c-0.1-0.7-0.4-0.9-1-0.9h-0.6v2h-0.6
		L690.8,714.4z M691.5,716.5h0.6c0.7,0,1.1-0.4,1.1-0.9s-0.4-0.9-1.1-0.9c-0.2,0-0.4,0-0.6,0.1L691.5,716.5z"/>
	<path class="st9" d="M695.4,717.6l-0.5,1.5h-0.6l1.6-4.7h0.7l1.6,4.7h-0.7l-0.5-1.5H695.4z M696.9,717.1l-0.5-1.4
		c-0.1-0.3-0.2-0.6-0.3-0.9l0,0c-0.1,0.3-0.2,0.6-0.2,0.8l-0.5,1.4H696.9z M697.3,713.2l-0.9,0.8h-0.5l0.7-0.8H697.3z"/>
	<path class="st9" d="M698.9,714.4c0.4-0.1,0.8-0.1,1.2-0.1c0.5-0.1,1,0.1,1.4,0.4c0.2,0.2,0.4,0.6,0.4,0.9c0,0.6-0.4,1.1-0.9,1.2
		l0,0c0.4,0.2,0.7,0.6,0.7,1c0.1,0.4,0.2,0.9,0.4,1.3h-0.6c-0.1-0.4-0.2-0.7-0.3-1.1c-0.1-0.7-0.4-0.9-1-0.9h-0.6v2h-0.6
		L698.9,714.4z M699.5,716.5h0.6c0.7,0,1.1-0.4,1.1-0.9s-0.4-0.9-1.1-0.9c-0.2,0-0.4,0-0.6,0.1L699.5,716.5z"/>
	<path class="st9" d="M703.3,714.3v4.7h-0.6v-4.7H703.3z"/>
	<path class="st9" d="M705.1,717.6l-0.5,1.5H704l1.6-4.7h0.8l1.6,4.7h-0.7l-0.5-1.5H705.1z M706.7,717.1l-0.5-1.4
		c-0.1-0.3-0.2-0.6-0.3-0.9l0,0c-0.1,0.3-0.2,0.6-0.2,0.8l-0.5,1.4H706.7z"/>
	<path class="st9" d="M708.6,718.3c0.3,0.2,0.7,0.3,1.1,0.3c0.6,0,1-0.3,1-0.8s-0.3-0.7-0.9-0.9s-1.3-0.7-1.3-1.3
		c0-0.8,0.7-1.3,1.4-1.3c0,0,0.1,0,0.1,0c0.3,0,0.7,0.1,1,0.2l-0.2,0.5c-0.3-0.1-0.6-0.2-0.9-0.2c-0.6,0-0.9,0.4-0.9,0.7
		s0.3,0.7,0.9,0.9s1.2,0.7,1.2,1.4s-0.5,1.4-1.7,1.4c-0.4,0-0.8-0.1-1.2-0.3L708.6,718.3z"/>
	<path d="M444.4,94l-1.8-0.2l-0.2,1.7l2,0.3l-0.1,0.5l-2.6-0.3l0.6-4.7l2.5,0.3l-0.1,0.5l-1.9-0.2l-0.2,1.5l1.8,0.2L444.4,94z"/>
	<path d="M445.1,95.5c0.3,0.2,0.6,0.4,1,0.4c0.6,0.1,1-0.2,1.1-0.7s-0.2-0.7-0.8-1s-1.1-0.8-1.1-1.5c0.1-0.7,0.8-1.2,1.6-1.1
		c0,0,0.1,0,0.1,0c0.4,0,0.7,0.2,1,0.4l-0.2,0.5c-0.3-0.2-0.5-0.3-0.9-0.3c-0.6-0.1-0.9,0.3-1,0.6s0.2,0.7,0.8,1s1.1,0.8,1,1.5
		s-0.7,1.3-1.8,1.1c-0.4,0-0.8-0.2-1.2-0.4L445.1,95.5z"/>
	<path d="M449.9,92.7l-1.4-0.2l0.1-0.5l3.5,0.4l-0.1,0.5l-1.4-0.2l-0.5,4.2l-0.6-0.1L449.9,92.7z"/>
	<path d="M453.2,92.6l-0.4,2.8c-0.1,1,0.3,1.6,0.9,1.6s1.2-0.3,1.3-1.3l0.4-2.8l0.6,0.1l-0.4,2.7c-0.2,1.4-1,1.9-2,1.8
		s-1.6-0.8-1.4-2.2l0.4-2.8L453.2,92.6z"/>
	<path d="M457,93.1l2.5,0.3l-0.1,0.5l-1.9-0.2l-0.2,1.6l1.8,0.2l-0.1,0.5l-1.8-0.2l-0.3,2.1l-0.6-0.1L457,93.1z"/>
	<path d="M460.2,96.7l-0.7,1.4l-0.6-0.1l2.2-4.5l0.7,0.1l1,4.9l-0.6-0.1l-0.3-1.5L460.2,96.7z M461.8,96.4l-0.3-1.4
		c-0.1-0.3-0.1-0.6-0.1-0.9l0,0c-0.1,0.3-0.2,0.5-0.3,0.8l-0.6,1.3L461.8,96.4z"/>
	<path d="M463.6,97.9c0.3,0.2,0.6,0.4,1,0.4c0.6,0.1,1-0.2,1.1-0.7s-0.2-0.7-0.8-1s-1.1-0.8-1.1-1.5c0.1-0.7,0.8-1.2,1.6-1.1
		c0,0,0.1,0,0.1,0c0.4,0,0.7,0.2,1,0.4l-0.2,0.5c-0.3-0.2-0.5-0.3-0.9-0.3c-0.6-0.1-0.9,0.3-1,0.6s0.2,0.7,0.8,1s1.1,0.8,1,1.5
		s-0.7,1.3-1.8,1.1c-0.4,0-0.8-0.2-1.2-0.4L463.6,97.9z"/>
	<path class="st9" d="M38.8,628.2c0.4-0.1,0.7-0.1,1.1-0.1c0.5,0,0.9,0.1,1.3,0.3c0.3,0.2,0.4,0.5,0.4,0.8c0,0.5-0.4,0.9-0.8,1l0,0
		c0.6,0.1,1,0.6,1,1.2c0,0.4-0.1,0.7-0.4,1c-0.5,0.3-1.1,0.5-1.6,0.4c-0.3,0-0.6,0-1-0.1L38.8,628.2z M39.4,630.1h0.5
		c0.6,0,1-0.3,1-0.8s-0.4-0.8-1-0.8c-0.2,0-0.4,0-0.5,0L39.4,630.1z M39.4,632.4c0.2,0,0.3,0,0.5,0c0.6,0,1.2-0.2,1.2-0.9
		s-0.5-0.9-1.2-0.9h-0.5L39.4,632.4z"/>
	<path class="st9" d="M42.6,628.1h0.6v4.2h2v0.5h-2.6V628.1z"/>
	<path class="st9" d="M49.6,630.4c0.2,1.2-0.7,2.3-1.9,2.5c-0.1,0-0.2,0-0.3,0c-1.2,0-2.1-1-2.1-2.2c0-0.1,0-0.1,0-0.2
		c-0.1-1.2,0.8-2.3,2-2.5c0.1,0,0.1,0,0.2,0c1.2,0,2.1,1,2.1,2.2C49.7,630.3,49.6,630.3,49.6,630.4z M46,630.5c0,1,0.5,1.9,1.5,1.9
		s1.5-0.9,1.5-2s-0.5-1.9-1.5-1.9S46,629.5,46,630.5L46,630.5z"/>
	<path class="st9" d="M53.7,632.7c-0.4,0.2-0.8,0.2-1.3,0.2c-1.2,0.1-2.3-0.9-2.3-2.1c0-0.1,0-0.2,0-0.3c-0.1-1.3,0.9-2.4,2.2-2.5
		c0.1,0,0.2,0,0.3,0c0.4,0,0.8,0.1,1.1,0.2l-0.2,0.5c-0.3-0.1-0.7-0.2-1-0.2c-1-0.1-1.8,0.7-1.8,1.6c0,0.1,0,0.2,0,0.3
		c-0.1,0.9,0.6,1.8,1.5,1.9c0.1,0,0.2,0,0.3,0c0.3,0,0.7-0.1,1-0.2L53.7,632.7z"/>
	<path class="st9" d="M58.4,630.4c0.2,1.2-0.7,2.3-1.9,2.5c-0.1,0-0.2,0-0.3,0c-1.2,0-2.1-1-2.1-2.2c0-0.1,0-0.1,0-0.2
		c-0.1-1.2,0.8-2.3,2-2.5c0.1,0,0.1,0,0.2,0c1.2,0,2.1,1,2.1,2.2C58.4,630.3,58.4,630.3,58.4,630.4z M54.7,630.5
		c0,1,0.6,1.9,1.5,1.9s1.5-0.9,1.5-2s-0.5-1.9-1.5-1.9S54.7,629.5,54.7,630.5z"/>
	<path class="st9" d="M60.6,628.2c0.4-0.1,0.9-0.1,1.3-0.1c0.7-0.1,1.4,0.2,1.9,0.6c0.5,0.4,0.7,1.1,0.7,1.7c0,0.7-0.2,1.3-0.7,1.8
		c-0.6,0.5-1.3,0.7-2.1,0.7c-0.4,0-0.7,0-1.1-0.1L60.6,628.2z M61.2,632.3c0.2,0,0.4,0,0.6,0c1,0.1,1.9-0.6,2-1.6c0-0.1,0-0.3,0-0.4
		c0.1-0.9-0.6-1.7-1.5-1.8c-0.1,0-0.3,0-0.4,0c-0.2,0-0.5,0-0.7,0.1V632.3z"/>
	<path class="st9" d="M67.8,630.6h-1.8v1.7h2v0.5h-2.6v-4.7h2.6v0.5h-1.9v1.5h1.8L67.8,630.6z"/>
	<path class="st9" d="M42.7,639.2c0-0.7-0.1-1.5-0.1-2l0,0c-0.2,0.5-0.4,1.1-0.6,1.8l-0.8,2.3h-0.5L40,639c-0.2-0.7-0.4-1.3-0.5-1.8
		l0,0c0,0.6,0,1.4-0.1,2.1l-0.1,2h-0.6l0.3-4.7h0.8l0.8,2.3c0.2,0.6,0.4,1.1,0.5,1.6l0,0c0.1-0.5,0.3-1,0.5-1.6l0.8-2.3h0.8l0.3,4.7
		h-0.6L42.7,639.2z"/>
	<path class="st9" d="M46.8,639H45v1.7h2v0.5h-2.6v-4.7h2.5v0.5H45v1.5h1.8V639z"/>
	<path class="st9" d="M47.8,636.6c0.4-0.1,0.9-0.1,1.3-0.1c0.7-0.1,1.4,0.2,1.9,0.6c0.5,0.4,0.7,1.1,0.7,1.7c0,0.7-0.2,1.3-0.7,1.8
		c-0.6,0.5-1.3,0.7-2.1,0.7c-0.4,0-0.7,0-1.1-0.1V636.6z M48.4,640.7c0.2,0,0.4,0,0.6,0c1,0.1,1.9-0.6,2-1.6c0-0.1,0-0.3,0-0.4
		c0.1-0.9-0.6-1.7-1.5-1.8c-0.1,0-0.3,0-0.4,0c-0.2,0-0.5,0-0.7,0.1V640.7z"/>
	<path class="st9" d="M53.1,636.5v4.7h-0.6v-4.7H53.1z"/>
	<path class="st9" d="M57.5,641.1c-0.4,0.2-0.8,0.2-1.3,0.2c-1.2,0.1-2.3-0.9-2.3-2.1c0-0.1,0-0.2,0-0.3c-0.1-1.3,0.9-2.4,2.2-2.5
		c0.1,0,0.2,0,0.3,0c0.4,0,0.8,0.1,1.1,0.2l-0.2,0.5c-0.3-0.1-0.7-0.2-1-0.2c-1-0.1-1.8,0.7-1.8,1.6c0,0.1,0,0.2,0,0.3
		c-0.1,0.9,0.6,1.8,1.5,1.9c0.1,0,0.2,0,0.3,0c0.3,0,0.7-0.1,1-0.2L57.5,641.1z"/>
	<path class="st9" d="M58.8,636.5v4.7h-0.6v-4.7H58.8z"/>
	<path class="st9" d="M59.9,641.2v-4.7h0.7l1.5,2.4c0.3,0.5,0.6,1,0.8,1.5l0,0c-0.1-0.6-0.1-1.2-0.1-1.9v-2h0.6v4.7h-0.6l-1.5-2.4
		c-0.3-0.5-0.6-1-0.9-1.6l0,0c0,0.6,0,1.2,0,2v2L59.9,641.2z"/>
	<path class="st9" d="M65.3,639.7l-0.5,1.5h-0.6l1.6-4.7h0.7l1.6,4.7h-0.7l-0.5-1.5H65.3z M66.8,639.3l-0.4-1.4
		c-0.1-0.3-0.2-0.6-0.3-0.9l0,0c-0.1,0.3-0.2,0.6-0.2,0.8l-0.5,1.4L66.8,639.3z"/>
	<path class="st9" d="M758.2,847.6h-1.4v-0.5h3.5v0.5h-1.4v4.2h-0.6L758.2,847.6z"/>
	<path class="st9" d="M764.6,849.4c0.2,1.2-0.7,2.3-1.9,2.5c-0.1,0-0.2,0-0.3,0c-1.2,0-2.1-1-2.1-2.2c0-0.1,0-0.1,0-0.2
		c-0.1-1.2,0.8-2.3,2-2.5c0.1,0,0.1,0,0.2,0c1.2,0,2.1,1,2.1,2.2C764.6,849.3,764.6,849.3,764.6,849.4z M761,849.5
		c0,1,0.5,1.9,1.5,1.9s1.5-0.9,1.5-2s-0.5-1.9-1.5-1.9S761,848.4,761,849.5z"/>
	<path class="st9" d="M765.4,847.2c0.4-0.1,0.8-0.1,1.2-0.1c0.5,0,1,0.1,1.4,0.4c0.2,0.2,0.4,0.6,0.4,0.9c0,0.6-0.4,1-0.9,1.2l0,0
		c0.4,0.2,0.7,0.6,0.7,1c0.1,0.4,0.2,0.9,0.4,1.3h-0.6c-0.1-0.4-0.2-0.7-0.3-1.1c-0.1-0.7-0.4-0.9-1-0.9H766v2h-0.6V847.2z
		 M766,849.3h0.6c0.7,0,1.1-0.4,1.1-0.9s-0.4-0.9-1.1-0.9c-0.2,0-0.4,0-0.6,0.1L766,849.3z"/>
	<path class="st9" d="M769.2,847.2c0.4-0.1,0.8-0.1,1.2-0.1c0.5,0,1,0.1,1.4,0.4c0.2,0.2,0.4,0.6,0.4,0.9c0,0.6-0.4,1-0.9,1.2l0,0
		c0.4,0.2,0.7,0.6,0.7,1c0.1,0.4,0.2,0.9,0.4,1.3h-0.6c-0.1-0.4-0.2-0.7-0.3-1.1c-0.1-0.7-0.4-0.9-1-0.9h-0.6v2h-0.6L769.2,847.2z
		 M769.8,849.3h0.6c0.7,0,1.1-0.4,1.1-0.9s-0.4-0.9-1.1-0.9c-0.2,0-0.4,0-0.6,0.1L769.8,849.3z"/>
	<path class="st9" d="M775.4,849.6h-1.8v1.7h2v0.5h-2.7v-4.7h2.5v0.5h-1.9v1.5h1.9V849.6z"/>
	<path class="st9" d="M685.8,465.2c0.4-0.1,0.7-0.1,1.1-0.1c0.5,0,0.9,0.1,1.3,0.3c0.3,0.2,0.4,0.5,0.4,0.8c0,0.5-0.4,0.9-0.8,1l0,0
		c0.6,0.1,1,0.6,1,1.2c0,0.4-0.1,0.7-0.4,1c-0.5,0.3-1.1,0.5-1.6,0.4c-0.3,0-0.6,0-1-0.1L685.8,465.2z M686.4,467.1h0.5
		c0.6,0,1-0.3,1-0.8s-0.4-0.8-1-0.8c-0.2,0-0.4,0-0.5,0L686.4,467.1z M686.4,469.4c0.2,0,0.3,0,0.5,0c0.6,0,1.2-0.2,1.2-0.9
		s-0.5-0.9-1.2-0.9h-0.6L686.4,469.4z"/>
	<path class="st9" d="M689.6,465.1h0.6v4.2h2v0.5h-2.6L689.6,465.1z"/>
	<path class="st9" d="M696.7,467.4c0.2,1.2-0.7,2.3-1.9,2.5c-0.1,0-0.2,0-0.3,0c-1.2,0-2.1-1-2.1-2.2c0-0.1,0-0.1,0-0.2
		c-0.1-1.2,0.8-2.3,2-2.5c0.1,0,0.1,0,0.2,0c1.2,0,2.1,1,2.1,2.2C696.7,467.3,696.7,467.4,696.7,467.4z M693,467.5
		c0,1,0.5,1.9,1.5,1.9s1.5-0.9,1.5-2s-0.5-1.9-1.5-1.9S693,466.5,693,467.5z"/>
	<path class="st9" d="M700.8,469.7c-0.4,0.2-0.8,0.2-1.3,0.2c-1.2,0.1-2.3-0.9-2.3-2.1c0-0.1,0-0.2,0-0.3c-0.1-1.3,0.9-2.4,2.2-2.5
		c0.1,0,0.2,0,0.3,0c0.4,0,0.8,0.1,1.1,0.2l-0.2,0.5c-0.3-0.1-0.7-0.2-1-0.2c-1-0.1-1.8,0.7-1.8,1.6c0,0.1,0,0.2,0,0.3
		c-0.1,0.9,0.6,1.8,1.5,1.9c0.1,0,0.2,0,0.3,0c0.3,0,0.7-0.1,1-0.2L700.8,469.7z"/>
	<path class="st9" d="M705.4,467.4c0.2,1.2-0.7,2.3-1.9,2.5c-0.1,0-0.2,0-0.3,0c-1.2,0-2.1-1-2.1-2.2c0-0.1,0-0.1,0-0.2
		c-0.1-1.2,0.8-2.3,2-2.5c0.1,0,0.1,0,0.2,0c1.2,0,2.1,1,2.1,2.2C705.4,467.3,705.4,467.4,705.4,467.4z M701.7,467.5
		c0,1,0.5,1.9,1.5,1.9s1.5-0.9,1.5-2s-0.5-1.9-1.5-1.9S701.7,466.5,701.7,467.5L701.7,467.5z"/>
	<path class="st9" d="M697.3,478.1c-0.4,0.2-0.8,0.2-1.3,0.2c-1.2,0.1-2.3-0.9-2.3-2.1c0-0.1,0-0.2,0-0.3c-0.1-1.3,0.9-2.4,2.2-2.5
		c0.1,0,0.2,0,0.3,0c0.4,0,0.8,0.1,1.1,0.2l-0.2,0.5c-0.3-0.1-0.7-0.2-1-0.2c-1-0.1-1.8,0.7-1.8,1.6c0,0.1,0,0.2,0,0.3
		c-0.1,0.9,0.6,1.8,1.5,1.9c0.1,0,0.2,0,0.3,0c0.3,0,0.7-0.1,1-0.2L697.3,478.1z"/>
	<path class="st9" d="M798.1,465.8c0.4-0.1,0.7-0.1,1.1-0.1c0.5,0,0.9,0.1,1.3,0.3c0.3,0.2,0.4,0.5,0.4,0.8c0,0.5-0.4,0.9-0.8,1l0,0
		c0.6,0.1,1,0.6,1,1.2c0,0.4-0.1,0.7-0.4,1c-0.5,0.3-1.1,0.5-1.6,0.4c-0.3,0-0.6,0-1-0.1L798.1,465.8z M798.7,467.7h0.5
		c0.6,0,1-0.3,1-0.8s-0.4-0.8-1-0.8c-0.2,0-0.4,0-0.5,0L798.7,467.7z M798.7,470c0.2,0,0.3,0,0.5,0c0.6,0,1.2-0.2,1.2-0.9
		s-0.5-0.9-1.2-0.9h-0.5L798.7,470z"/>
	<path class="st9" d="M801.9,465.7h0.6v4.2h2v0.5h-2.6V465.7z"/>
	<path class="st9" d="M808.9,468c0.2,1.2-0.7,2.3-1.9,2.5c-0.1,0-0.2,0-0.3,0c-1.2,0-2.1-1-2.1-2.2c0-0.1,0-0.1,0-0.2
		c-0.1-1.2,0.8-2.3,2-2.5c0.1,0,0.1,0,0.2,0c1.2,0,2.1,1,2.1,2.2C809,467.9,808.9,468,808.9,468z M805.3,468.1c0,1,0.5,1.9,1.5,1.9
		s1.5-0.9,1.5-2s-0.5-1.9-1.5-1.9S805.3,467.1,805.3,468.1L805.3,468.1z"/>
	<path class="st9" d="M813,470.3c-0.4,0.2-0.8,0.2-1.3,0.2c-1.2,0.1-2.3-0.9-2.3-2.1c0-0.1,0-0.2,0-0.3c-0.1-1.3,0.9-2.4,2.2-2.5
		c0.1,0,0.2,0,0.3,0c0.4,0,0.8,0.1,1.1,0.2l-0.2,0.5c-0.3-0.1-0.7-0.2-1-0.2c-1-0.1-1.8,0.7-1.8,1.6c0,0.1,0,0.2,0,0.3
		c-0.1,0.9,0.6,1.8,1.5,1.9c0.1,0,0.2,0,0.3,0c0.3,0,0.7-0.1,1-0.2L813,470.3z"/>
	<path class="st9" d="M817.7,468c0.2,1.2-0.7,2.3-1.9,2.5c-0.1,0-0.2,0-0.3,0c-1.2,0-2.1-1-2.1-2.2c0-0.1,0-0.1,0-0.2
		c-0.1-1.2,0.8-2.3,2-2.5c0.1,0,0.1,0,0.2,0c1.2,0,2.1,1,2.1,2.2C817.7,467.9,817.7,468,817.7,468z M814,468.1c0,1,0.5,1.9,1.5,1.9
		s1.5-0.9,1.5-2s-0.5-1.9-1.5-1.9S814,467.1,814,468.1L814,468.1z"/>
	<path class="st9" d="M803.5,474.2c0.4-0.1,0.7-0.1,1.1-0.1c0.5,0,0.9,0.1,1.3,0.3c0.3,0.2,0.4,0.5,0.4,0.8c0,0.5-0.4,0.9-0.8,1l0,0
		c0.6,0.1,1,0.6,1,1.2c0,0.4-0.1,0.7-0.4,1c-0.5,0.3-1.1,0.5-1.6,0.4c-0.3,0-0.6,0-1-0.1L803.5,474.2z M804.1,476.1h0.5
		c0.6,0,1-0.3,1-0.8s-0.4-0.8-1-0.8c-0.2,0-0.4,0-0.5,0L804.1,476.1z M804.1,478.4c0.2,0,0.3,0,0.5,0c0.6,0,1.2-0.2,1.2-0.9
		s-0.5-0.9-1.2-0.9h-0.5L804.1,478.4z"/>
	<path class="st9" d="M808.7,476.7v0.5H807v-0.5H808.7z"/>
	<path class="st9" d="M809.3,478.9v-0.4l0.5-0.5c1.2-1.1,1.7-1.7,1.7-2.4c0-0.4-0.3-0.8-0.7-0.9c-0.1,0-0.1,0-0.2,0
		c-0.4,0-0.7,0.1-1,0.4l-0.2-0.4c0.4-0.3,0.8-0.5,1.3-0.5c0.7-0.1,1.3,0.5,1.4,1.2c0,0.1,0,0.1,0,0.2c0,0.8-0.6,1.5-1.6,2.4
		l-0.4,0.3h2v0.5L809.3,478.9z"/>
	<path class="st9" d="M815.4,650c0.4-0.1,0.7-0.1,1.1-0.1c0.5,0,0.9,0.1,1.3,0.3c0.3,0.2,0.4,0.5,0.4,0.8c0,0.5-0.4,0.9-0.8,1l0,0
		c0.6,0.1,1,0.6,1,1.2c0,0.4-0.1,0.7-0.4,1c-0.5,0.3-1.1,0.5-1.6,0.4c-0.3,0-0.6,0-1-0.1L815.4,650z M816,651.9h0.5
		c0.6,0,1-0.3,1-0.8s-0.4-0.8-1-0.8c-0.2,0-0.4,0-0.5,0L816,651.9z M816,654.2c0.2,0,0.3,0,0.5,0c0.6,0,1.2-0.2,1.2-0.9
		s-0.5-0.9-1.2-0.9h-0.5L816,654.2z"/>
	<path class="st9" d="M819.2,650h0.6v4.2h2v0.5h-2.6L819.2,650z"/>
	<path class="st9" d="M826.3,652.3c0.2,1.2-0.7,2.3-1.9,2.5c-0.1,0-0.2,0-0.3,0c-1.2,0-2.1-1-2.1-2.2c0-0.1,0-0.1,0-0.2
		c-0.1-1.2,0.8-2.3,2-2.5c0.1,0,0.1,0,0.2,0c1.2,0,2.1,1,2.1,2.2C826.3,652.1,826.3,652.2,826.3,652.3z M822.6,652.4
		c0,1,0.5,1.9,1.5,1.9s1.5-0.9,1.5-2s-0.5-1.9-1.5-1.9S822.6,651.3,822.6,652.4L822.6,652.4z"/>
	<path class="st9" d="M830.4,654.5c-0.4,0.2-0.8,0.2-1.3,0.2c-1.2,0.1-2.3-0.9-2.3-2.1c0-0.1,0-0.2,0-0.3c-0.1-1.3,0.9-2.4,2.2-2.5
		c0.1,0,0.2,0,0.3,0c0.4,0,0.8,0.1,1.1,0.2l-0.2,0.5c-0.3-0.1-0.7-0.2-1-0.2c-1-0.1-1.8,0.7-1.8,1.6c0,0.1,0,0.2,0,0.3
		c-0.1,0.9,0.6,1.8,1.5,1.9c0.1,0,0.2,0,0.3,0c0.3,0,0.7-0.1,1-0.2L830.4,654.5z"/>
	<path class="st9" d="M835,652.3c0.2,1.2-0.7,2.3-1.9,2.5c-0.1,0-0.2,0-0.3,0c-1.2,0-2.1-1-2.1-2.2c0-0.1,0-0.1,0-0.2
		c-0.1-1.2,0.8-2.3,2-2.5c0.1,0,0.1,0,0.2,0c1.2,0,2.1,1,2.1,2.2C835.1,652.1,835,652.2,835,652.3z M831.4,652.4
		c0,1,0.5,1.9,1.5,1.9s1.5-0.9,1.5-2s-0.5-1.9-1.5-1.9S831.4,651.3,831.4,652.4L831.4,652.4z"/>
	<path class="st9" d="M838.1,653.2l-0.5,1.5H837l1.6-4.7h0.7l1.6,4.7h-0.7l-0.5-1.5H838.1z M839.6,652.7l-0.5-1.4
		c-0.1-0.3-0.2-0.6-0.3-0.9l0,0c-0.1,0.3-0.2,0.6-0.2,0.8l-0.5,1.4H839.6z"/>
	<path class="st9" d="M742.5,650.6c0.4-0.1,0.7-0.1,1.1-0.1c0.5,0,0.9,0.1,1.3,0.3c0.3,0.2,0.4,0.5,0.4,0.8c0,0.5-0.4,0.9-0.8,1l0,0
		c0.6,0.1,1,0.6,1,1.2c0,0.4-0.1,0.7-0.4,1c-0.5,0.4-1.1,0.6-1.7,0.5c-0.3,0-0.6,0-1-0.1L742.5,650.6z M743.1,652.5h0.5
		c0.6,0,1-0.3,1-0.8s-0.4-0.8-1-0.8c-0.2,0-0.4,0-0.5,0L743.1,652.5z M743.1,654.8c0.2,0,0.3,0,0.5,0c0.6,0,1.2-0.2,1.2-0.9
		s-0.5-0.9-1.2-0.9h-0.5L743.1,654.8z"/>
	<path class="st9" d="M746.3,650.5h0.6v4.2h2v0.5h-2.6L746.3,650.5z"/>
	<path class="st9" d="M753.4,652.8c0.2,1.2-0.7,2.3-1.9,2.5c-0.1,0-0.2,0-0.3,0c-1.2,0-2.1-1-2.1-2.2c0-0.1,0-0.1,0-0.2
		c-0.1-1.2,0.8-2.3,2-2.5c0.1,0,0.1,0,0.2,0c1.2,0,2.1,1,2.1,2.2C753.4,652.7,753.4,652.8,753.4,652.8z M749.7,652.9
		c0,1,0.5,1.9,1.5,1.9s1.5-0.9,1.5-2s-0.5-1.9-1.5-1.9S749.7,651.9,749.7,652.9L749.7,652.9z"/>
	<path class="st9" d="M757.4,655.1c-0.4,0.2-0.8,0.2-1.3,0.2c-1.2,0.1-2.3-0.9-2.3-2.1c0-0.1,0-0.2,0-0.3c-0.1-1.3,0.9-2.4,2.2-2.5
		c0.1,0,0.2,0,0.3,0c0.4,0,0.8,0.1,1.1,0.2l-0.2,0.5c-0.3-0.1-0.7-0.2-1-0.2c-1-0.1-1.8,0.7-1.8,1.6c0,0.1,0,0.2,0,0.3
		c-0.1,0.9,0.6,1.8,1.5,1.9c0.1,0,0.2,0,0.3,0c0.3,0,0.7-0.1,1-0.2L757.4,655.1z"/>
	<path class="st9" d="M762.1,652.8c0.1,1.2-0.7,2.3-2,2.4c-0.1,0-0.2,0-0.2,0c-1.2,0-2.1-1-2.1-2.2c0-0.1,0-0.1,0-0.2
		c-0.1-1.2,0.8-2.3,2-2.5c0.1,0,0.1,0,0.2,0c1.2,0,2.1,1,2.1,2.2C762.1,652.7,762.1,652.7,762.1,652.8z M758.4,652.9
		c0,1,0.5,1.9,1.5,1.9s1.5-0.9,1.5-2s-0.5-1.9-1.5-1.9S758.4,651.9,758.4,652.9L758.4,652.9z"/>
	<path class="st9" d="M764.4,650.6c0.4-0.1,0.7-0.1,1.1-0.1c0.5,0,0.9,0.1,1.3,0.3c0.3,0.2,0.4,0.5,0.4,0.8c0,0.5-0.4,0.9-0.8,1l0,0
		c0.6,0.1,1,0.6,1,1.2c0,0.4-0.1,0.7-0.4,1c-0.5,0.3-1.1,0.5-1.6,0.4c-0.3,0-0.6,0-1-0.1L764.4,650.6z M765,652.5h0.5
		c0.6,0,1-0.3,1-0.8s-0.4-0.8-1-0.8c-0.2,0-0.4,0-0.5,0L765,652.5z M765,654.8c0.2,0,0.3,0,0.5,0c0.6,0,1.2-0.2,1.2-0.9
		s-0.5-0.9-1.2-0.9H765L765,654.8z"/>
	<path class="st9" d="M922.7,780.1l-0.5,1.5h-0.6l1.6-4.7h0.7l1.6,4.7h-0.7l-0.5-1.5H922.7z M924.3,779.6l-0.5-1.4
		c-0.1-0.3-0.2-0.6-0.3-0.9l0,0c-0.1,0.3-0.2,0.6-0.2,0.8l-0.5,1.4H924.3z"/>
	<path class="st9" d="M926.2,776.9c0.4-0.1,0.9-0.1,1.3-0.1c0.7-0.1,1.4,0.2,1.9,0.6c0.5,0.4,0.7,1.1,0.7,1.7c0,0.7-0.2,1.3-0.7,1.8
		c-0.6,0.5-1.3,0.7-2.1,0.7c-0.4,0-0.7,0-1.1-0.1L926.2,776.9z M926.8,781.1c0.2,0,0.4,0,0.6,0c1,0.1,1.9-0.6,2-1.6
		c0-0.1,0-0.3,0-0.4c0.1-0.9-0.6-1.7-1.5-1.8c-0.1,0-0.3,0-0.4,0c-0.2,0-0.5,0-0.7,0.1V781.1z"/>
	<path class="st9" d="M934.9,779.5c0-0.7-0.1-1.5-0.1-2l0,0c-0.2,0.5-0.4,1.1-0.6,1.8l-0.8,2.3h-0.5l-0.8-2.3
		c-0.2-0.7-0.4-1.3-0.5-1.8l0,0c0,0.6,0,1.4-0.1,2.1l-0.1,2h-0.6l0.3-4.7h0.8l0.8,2.3c0.2,0.6,0.4,1.1,0.5,1.6l0,0
		c0.1-0.5,0.3-1,0.5-1.6l0.8-2.3h0.8l0.3,4.7H935L934.9,779.5z"/>
	<path class="st9" d="M937.1,776.9v4.7h-0.6v-4.7H937.1z"/>
	<path class="st9" d="M938.2,781.6v-4.7h0.7l1.5,2.4c0.3,0.5,0.6,1,0.8,1.5l0,0c-0.1-0.6-0.1-1.2-0.1-1.9v-2h0.6v4.7h-0.6l-1.5-2.4
		c-0.3-0.5-0.6-1-0.9-1.6l0,0c0,0.6,0,1.2,0,2v2L938.2,781.6z"/>
	<path class="st9" d="M943.4,776.9v4.7h-0.6v-4.7H943.4z"/>
	<path class="st9" d="M944.4,780.8c0.3,0.2,0.7,0.3,1.1,0.3c0.6,0,1-0.3,1-0.8s-0.3-0.7-0.9-0.9s-1.3-0.7-1.3-1.3
		c0-0.8,0.7-1.3,1.4-1.3c0,0,0.1,0,0.1,0c0.3,0,0.7,0.1,1,0.2l-0.2,0.5c-0.3-0.1-0.6-0.2-0.9-0.2c-0.6,0-0.9,0.4-0.9,0.7
		s0.3,0.7,0.9,0.9s1.2,0.7,1.2,1.4s-0.5,1.4-1.7,1.4c-0.4,0-0.8-0.1-1.2-0.3L944.4,780.8z"/>
	<path class="st9" d="M949.4,779.5v0.5h-1.7v-0.5H949.4z"/>
	<path class="st9" d="M924.7,785.8h-1.4v-0.5h3.5v0.5h-1.4v4.2h-0.6L924.7,785.8z"/>
	<path class="st9" d="M927.2,785.3c0.4,0,0.8,0,1.1,0c0.5,0,1,0.1,1.4,0.4c0.2,0.2,0.4,0.6,0.4,0.9c0,0.6-0.4,1-0.9,1.2l0,0
		c0.4,0.2,0.7,0.6,0.7,1c0.1,0.4,0.2,0.9,0.4,1.3h-0.6c-0.1-0.4-0.2-0.7-0.3-1.1c-0.1-0.7-0.4-0.9-1-0.9h-0.6v2h-0.6L927.2,785.3z
		 M927.8,787.4h0.6c0.7,0,1.1-0.4,1.1-0.9s-0.4-0.9-1.1-0.9c-0.2,0-0.4,0-0.6,0.1L927.8,787.4z"/>
	<path class="st9" d="M931.8,788.5l-0.5,1.5h-0.6l1.6-4.7h0.7l1.6,4.7H934l-0.5-1.5H931.8z M933.3,788l-0.5-1.4
		c-0.1-0.3-0.2-0.6-0.3-0.9l0,0c-0.1,0.3-0.2,0.6-0.2,0.8l-0.5,1.4H933.3z"/>
	<path class="st9" d="M938.5,789.8c-0.4,0.2-0.8,0.2-1.2,0.2l-0.2,0.3c0.3,0,0.5,0.3,0.5,0.5c0,0.4-0.4,0.6-0.7,0.6
		c-0.2,0-0.3,0-0.5-0.1l0.1-0.3c0.1,0.1,0.3,0.1,0.4,0.1c0.2,0,0.3-0.1,0.3-0.2s-0.2-0.3-0.5-0.3l0.3-0.5c-1.2-0.1-2.1-1.1-2-2.3
		c0,0,0,0,0,0c-0.1-1.3,0.9-2.4,2.2-2.5c0.1,0,0.2,0,0.3,0c0.4,0,0.8,0.1,1.1,0.2l-0.2,0.5c-0.3-0.1-0.7-0.2-1-0.2
		c-1-0.1-1.8,0.7-1.8,1.6c0,0.1,0,0.2,0,0.3c-0.1,0.9,0.6,1.8,1.5,1.9c0.1,0,0.2,0,0.3,0c0.3,0,0.7-0.1,1-0.2L938.5,789.8z"/>
	<path class="st9" d="M940.1,788.5l-0.5,1.5h-0.6l1.6-4.7h0.7l1.6,4.7h-0.7l-0.5-1.5H940.1z M940.1,785c0-0.4,0.2-0.7,0.5-0.7
		c0.1,0,0.3,0.1,0.4,0.1c0.1,0.1,0.2,0.1,0.3,0.1c0.1,0,0.2,0,0.2-0.3h0.3c0,0.4-0.2,0.7-0.5,0.7c-0.2,0-0.3-0.1-0.4-0.1
		c-0.1-0.1-0.2-0.1-0.3-0.1c-0.1,0-0.2,0.1-0.2,0.3L940.1,785z M941.6,788l-0.5-1.4c-0.1-0.3-0.2-0.6-0.3-0.9l0,0
		c-0.1,0.3-0.2,0.6-0.2,0.8l-0.5,1.4H941.6z"/>
	<path class="st9" d="M947.5,787.6c0.2,1.2-0.7,2.3-1.9,2.5c-0.1,0-0.2,0-0.3,0c-1.2,0-2.1-1-2.1-2.2c0-0.1,0-0.1,0-0.2
		c-0.1-1.2,0.8-2.3,2-2.5c0.1,0,0.1,0,0.2,0c1.2,0,2.1,1,2.1,2.2C947.5,787.4,947.5,787.5,947.5,787.6z M943.9,787.7
		c0,1,0.5,1.9,1.5,1.9s1.5-0.9,1.5-2s-0.5-1.9-1.5-1.9S943.8,786.6,943.9,787.7L943.9,787.7z"/>
	<path class="st9" d="M736.5,772.7c0.3-0.1,0.7-0.1,1-0.1c0.4,0,0.8,0.1,1.1,0.3c0.2,0.2,0.4,0.5,0.3,0.8c0,0.3-0.1,0.6-0.3,0.9
		c-0.3,0.3-0.8,0.5-1.2,0.4c-0.1,0-0.3,0-0.4,0v1.6h-0.5L736.5,772.7z M737,774.7c0.1,0,0.3,0,0.4,0c0.6,0,1-0.3,1-0.9
		s-0.4-0.8-1-0.8c-0.2,0-0.3,0-0.5,0L737,774.7z"/>
	<path class="st9" d="M739.7,772.8c0.3-0.1,0.7-0.1,1-0.1c0.4,0,0.8,0.1,1.2,0.3c0.2,0.2,0.3,0.5,0.3,0.8c0,0.5-0.3,0.9-0.8,1l0,0
		c0.3,0.1,0.6,0.5,0.6,0.8c0.1,0.4,0.2,0.8,0.3,1.1h-0.5c-0.1-0.3-0.2-0.7-0.3-1c-0.1-0.6-0.3-0.8-0.8-0.8h-0.5v1.8h-0.5V772.8z
		 M740.2,774.6h0.5c0.5,0,0.9-0.3,0.9-0.8s-0.4-0.8-0.9-0.8c-0.2,0-0.3,0-0.5,0L740.2,774.6z"/>
	<path class="st9" d="M746.3,774.7c0.1,1-0.6,2-1.6,2.1c-0.1,0-0.1,0-0.2,0c-1,0-1.8-0.9-1.8-1.9c0-0.1,0-0.1,0-0.2
		c-0.1-1,0.6-2,1.7-2.1c0.1,0,0.1,0,0.2,0c1,0,1.8,0.8,1.8,1.8C746.3,774.5,746.3,774.6,746.3,774.7z M743.2,774.7
		c0,0.9,0.5,1.6,1.3,1.6s1.3-0.8,1.3-1.7s-0.4-1.6-1.3-1.6S743.2,773.9,743.2,774.7L743.2,774.7z"/>
	<path class="st9" d="M747,772.7h2.2v0.4h-1.6v1.3h1.5v0.4h-1.5v1.8H747L747,772.7z"/>
	<path class="st9" d="M751.9,774.8h-1.6v1.4h1.7v0.4h-2.2v-4h2.2v0.4h-1.7v1.3h1.6L751.9,774.8z"/>
	<path class="st9" d="M752.7,776.1c0.3,0.2,0.6,0.3,0.9,0.3c0.5,0,0.8-0.3,0.8-0.7s-0.2-0.6-0.8-0.8s-1.1-0.6-1.1-1.2
		c0-0.6,0.6-1.1,1.2-1.1c0,0,0.1,0,0.1,0c0.3,0,0.6,0.1,0.9,0.2l-0.1,0.4c-0.2-0.1-0.5-0.2-0.8-0.2c-0.5,0-0.8,0.3-0.8,0.6
		s0.2,0.6,0.8,0.8s1,0.6,1,1.2s-0.5,1.2-1.4,1.2c-0.4,0-0.7-0.1-1-0.3L752.7,776.1z"/>
	<path class="st9" d="M755.7,776.1c0.3,0.2,0.6,0.3,0.9,0.3c0.5,0,0.8-0.3,0.8-0.7s-0.2-0.6-0.8-0.8s-1.1-0.6-1.1-1.2
		c0-0.6,0.6-1.1,1.2-1.1c0,0,0.1,0,0.1,0c0.3,0,0.6,0.1,0.9,0.2l-0.1,0.4c-0.2-0.1-0.5-0.2-0.8-0.2c-0.5,0-0.8,0.3-0.8,0.6
		s0.2,0.6,0.8,0.8s1,0.6,1,1.2s-0.5,1.2-1.4,1.2c-0.4,0-0.7-0.1-1-0.3L755.7,776.1z"/>
	<path class="st9" d="M762.1,774.7c0.1,1-0.6,2-1.6,2.1c-0.1,0-0.1,0-0.2,0c-1,0-1.8-0.9-1.8-1.9c0-0.1,0-0.1,0-0.2
		c-0.1-1,0.6-2,1.7-2.1c0.1,0,0.1,0,0.2,0c1,0,1.8,0.8,1.8,1.8C762.1,774.5,762.1,774.6,762.1,774.7z M759,774.7
		c0,0.9,0.5,1.6,1.3,1.6s1.3-0.8,1.3-1.7s-0.4-1.6-1.3-1.6S759,773.9,759,774.7z"/>
	<path class="st9" d="M762.8,772.8c0.3-0.1,0.7-0.1,1-0.1c0.4,0,0.8,0.1,1.2,0.3c0.2,0.2,0.3,0.5,0.3,0.8c0,0.5-0.3,0.9-0.8,1l0,0
		c0.3,0.1,0.6,0.5,0.6,0.8c0.1,0.4,0.2,0.8,0.3,1.1h-0.5c-0.1-0.3-0.2-0.7-0.3-1c-0.1-0.6-0.3-0.8-0.8-0.8h-0.5v1.8h-0.5V772.8z
		 M763.3,774.6h0.5c0.5,0,0.9-0.3,0.9-0.8s-0.4-0.8-0.9-0.8c-0.2,0-0.3,0-0.5,0L763.3,774.6z"/>
	<path class="st9" d="M768,774.8h-1.6v1.4h1.7v0.4H766v-4h2.2v0.4h-1.7v1.3h1.6L768,774.8z"/>
	<path class="st9" d="M768.8,776.1c0.3,0.2,0.6,0.3,0.9,0.3c0.5,0,0.8-0.3,0.8-0.7s-0.2-0.6-0.8-0.8s-1.1-0.6-1.1-1.2
		c0-0.6,0.6-1.1,1.2-1.1c0,0,0.1,0,0.1,0c0.3,0,0.6,0.1,0.9,0.2l-0.1,0.4c-0.2-0.1-0.5-0.2-0.8-0.2c-0.5,0-0.8,0.3-0.8,0.6
		s0.2,0.6,0.8,0.8s1,0.6,1,1.2s-0.5,1.2-1.4,1.2c-0.4,0-0.7-0.1-1-0.3L768.8,776.1z"/>
	<path class="st10" d="M860.8,1009.3c0.3-0.1,0.7-0.1,1-0.1c0.4,0,0.8,0.1,1.1,0.3c0.2,0.2,0.4,0.5,0.3,0.8c0,0.3-0.1,0.6-0.3,0.9
		c-0.3,0.3-0.8,0.5-1.2,0.4c-0.1,0-0.3,0-0.4,0v1.6h-0.5V1009.3z M861.4,1011.3c0.1,0,0.3,0,0.4,0c0.6,0,1-0.3,1-0.9s-0.4-0.8-1-0.8
		c-0.2,0-0.3,0-0.5,0L861.4,1011.3z"/>
	<path class="st10" d="M864,1009.3c0.3-0.1,0.7-0.1,1-0.1c0.4,0,0.8,0.1,1.2,0.3c0.2,0.2,0.3,0.5,0.3,0.8c0,0.5-0.3,0.9-0.8,1l0,0
		c0.3,0.1,0.6,0.5,0.6,0.8c0.1,0.4,0.2,0.8,0.3,1.1h-0.5c-0.1-0.3-0.2-0.7-0.3-1c-0.1-0.6-0.3-0.8-0.8-0.8h-0.5v1.8H864V1009.3z
		 M864.5,1011.1h0.5c0.6,0,0.9-0.3,0.9-0.8s-0.4-0.8-0.9-0.8c-0.2,0-0.3,0-0.5,0L864.5,1011.1z"/>
	<path class="st10" d="M867.9,1012l-0.4,1.3H867l1.4-4h0.6l1.4,4h-0.6l-0.4-1.3H867.9z M869.3,1011.6l-0.4-1.2
		c-0.1-0.3-0.2-0.5-0.2-0.7l0,0c-0.1,0.2-0.1,0.5-0.2,0.7l-0.4,1.2H869.3z"/>
	<path class="st10" d="M873.7,1013.2c-0.3,0.1-0.7,0.2-1.1,0.2l-0.1,0.2c0.2,0,0.4,0.2,0.4,0.4c0,0.3-0.3,0.5-0.6,0.5
		c-0.1,0-0.3,0-0.4-0.1l0.1-0.3c0.1,0.1,0.2,0.1,0.3,0.1c0.1,0,0.3-0.1,0.3-0.2s-0.2-0.2-0.5-0.3l0.3-0.5c-1-0.1-1.8-1-1.7-2
		c-0.1-1.1,0.8-2.1,1.9-2.1c0.1,0,0.2,0,0.2,0c0.3,0,0.7,0,1,0.2l-0.1,0.4c-0.3-0.1-0.5-0.2-0.8-0.2c-0.8,0-1.5,0.6-1.6,1.4
		c0,0.1,0,0.2,0,0.3c-0.1,0.8,0.5,1.5,1.3,1.6c0.1,0,0.2,0,0.3,0c0.3,0,0.6-0.1,0.8-0.2L873.7,1013.2z"/>
	<path class="st10" d="M875,1012l-0.4,1.3h-0.5l1.4-4h0.6l1.4,4h-0.6l-0.4-1.3H875z M876.4,1011.6l-0.4-1.2
		c-0.1-0.3-0.2-0.5-0.2-0.7l0,0c-0.1,0.2-0.1,0.5-0.2,0.7l-0.4,1.2H876.4z"/>
</g>
</svg>
